<svg width="39" height="41" viewBox="0 0 39 41" fill="none" xmlns="http://www.w3.org/2000/svg">
<path d="M22.8375 0.803101C22.3248 0.860065 21.7235 0.942352 21.5083 0.980331C21.2867 1.01831 20.7234 1.09426 20.255 1.1449C19.7866 1.19554 19.2739 1.26517 19.1156 1.30314C18.9574 1.33479 18.432 1.40442 17.9446 1.46139C17.4573 1.51202 16.9192 1.58165 16.742 1.61963C16.5711 1.65128 16.0141 1.7209 15.5077 1.77787C15.0013 1.83484 14.4886 1.90446 14.3684 1.93611C14.2481 1.96776 13.7038 2.03739 13.1657 2.09435C12.6277 2.15765 12.1656 2.21462 12.1403 2.23361C12.1087 2.24627 11.596 2.31589 11.001 2.38552C10.3997 2.44882 9.77936 2.5311 9.62111 2.56908C9.46287 2.60073 8.92485 2.67669 8.41848 2.72732C7.9121 2.78429 7.3994 2.85392 7.27913 2.88556C7.15887 2.91088 6.72845 2.96785 6.32968 3.01216C5.93091 3.05014 5.3739 3.11976 5.09539 3.1704C4.81689 3.22104 4.17759 3.30332 3.67121 3.36029C3.16484 3.41726 2.63948 3.48689 2.50022 3.51853C2.36097 3.55018 1.94954 3.60715 1.58242 3.64513C1.2153 3.68311 0.708924 3.7464 0.455737 3.78438L0 3.854L0.0126594 20.8239L0.0316484 37.7938L0.221539 37.8064C0.329143 37.8191 0.557012 37.8507 0.727913 37.8887C0.905144 37.9267 1.48747 38.009 2.0255 38.0786C4.1586 38.3444 4.99412 38.4584 5.53847 38.5533C5.85495 38.604 6.39298 38.6799 6.74111 38.7116C7.08924 38.7495 7.51966 38.8065 7.69056 38.8445C7.86779 38.8825 8.45012 38.9647 8.98815 39.028C10.5516 39.2243 12.2353 39.4521 12.4378 39.4964C12.5454 39.5154 13.0708 39.5914 13.6088 39.661C15.3558 39.8825 16.8686 40.0851 17.0585 40.1294C17.1661 40.1484 17.6915 40.2244 18.2295 40.294C20.0145 40.5155 21.5526 40.7244 21.7108 40.7687C21.9703 40.832 23.7996 41.0282 23.8312 40.9966C23.8502 40.9839 23.8629 40.2054 23.8629 39.2686V37.5722H30.085C34.0347 37.5722 36.4526 37.5469 36.7121 37.5089C37.5413 37.376 38.2566 36.838 38.63 36.0658L38.8326 35.6417V20.8302V6.01876L38.63 5.59467C38.3072 4.90473 37.8641 4.49331 37.1362 4.19581C36.8071 4.05656 36.7881 4.05656 30.3382 4.03757L23.8629 4.01858V2.37919C23.8629 1.48037 23.8439 0.727142 23.8186 0.714485C23.7869 0.701824 23.3502 0.739803 22.8375 0.803101ZM36.959 5.63264C37.4907 5.99977 37.4401 4.43634 37.459 20.672C37.4717 31.3565 37.459 35.1986 37.4021 35.3885C37.2502 35.9265 36.8324 36.1797 36.0792 36.1797C35.4968 36.1797 35.4336 36.1101 35.7627 35.8126C35.9209 35.667 35.9526 35.572 36.0032 35.1733C36.0602 34.6669 36.0096 34.4707 35.7374 34.1668C35.4082 33.7934 34.7753 33.6668 34.3259 33.882C34.1993 33.939 33.6486 34.439 33.0979 34.9897L32.0915 35.9898H31.6484C31.3319 35.9898 31.2053 35.9645 31.2053 35.9075C31.2053 35.8632 31.6927 35.3442 32.2814 34.7555C32.8764 34.1668 33.3574 33.6605 33.3574 33.6352C33.3574 33.6098 31.5471 31.7806 29.3317 29.5715C26.7239 26.9637 25.2807 25.5648 25.2238 25.5901C25.1731 25.6091 24.8693 25.8876 24.5465 26.2168C24.2237 26.5459 23.9389 26.8118 23.9135 26.8118C23.8882 26.8118 23.8629 26.5776 23.8629 26.2864V25.761L24.3693 25.261C25.1162 24.5204 25.2744 24.0837 24.9959 23.552C24.7491 23.0836 24.3946 22.8241 23.9958 22.8241H23.8312L23.8502 14.1207L23.8629 5.41744L30.2749 5.4301L36.6932 5.44909L36.959 5.63264ZM21.6095 16.602C21.5526 16.7033 21.3627 16.9501 21.1918 17.159C21.0272 17.3679 20.7424 17.7223 20.5715 17.9502C20.179 18.4439 20.1221 18.5199 19.5524 19.2415C18.8751 20.096 18.8878 20.0706 19.0144 20.3112C19.0713 20.4251 19.2043 20.6403 19.3055 20.7986C19.4068 20.9568 19.5524 21.1847 19.622 21.3049C19.6916 21.4252 19.8309 21.6531 19.9322 21.8113C20.3942 22.5519 20.8563 23.2988 21.2741 23.9824C21.5209 24.3875 21.7488 24.742 21.7804 24.7609C21.8121 24.7799 21.8374 24.8496 21.8374 24.9192C21.8374 25.0458 21.8121 25.0521 20.6854 25.0078C20.0461 24.9825 19.5144 24.9508 19.4954 24.9318C19.4511 24.8939 18.8371 23.8368 18.1345 22.5899C17.7991 21.9885 17.5016 21.4822 17.4699 21.4632C17.4446 21.4442 17.2737 21.6024 17.0965 21.805L16.7737 22.1784V23.552V24.9318L15.8432 24.8875C15.3305 24.8685 14.8874 24.8242 14.8621 24.7989C14.8304 24.7673 14.8178 22.9127 14.8241 20.6656L14.8431 16.5893L15.8115 16.5703L16.7737 16.5513V18.311C16.78 19.8808 16.7863 20.058 16.8749 19.9441C16.9256 19.8744 17.1281 19.5769 17.3243 19.2794C17.8307 18.5135 18.6979 17.2286 18.7359 17.1906C18.7548 17.1717 18.8688 17.0134 18.989 16.8298L19.2106 16.5007L19.622 16.4754C19.8499 16.4627 20.4132 16.4501 20.8816 16.4437L21.7235 16.4311L21.6095 16.602ZM11.8428 16.7729C13.2544 17.1273 13.9253 18.1338 13.7291 19.6086C13.6595 20.1086 13.3999 20.7036 13.1151 21.0074C12.5771 21.5771 11.577 21.9379 10.5452 21.9379H9.9376L9.92494 23.3114L9.90595 24.6913L9.24133 24.7103C8.87421 24.723 8.48177 24.7103 8.37417 24.6913L8.16529 24.6533V20.7669V16.8742L8.31087 16.8425C8.66533 16.7602 10.0262 16.6336 10.6022 16.6273C11.0769 16.621 11.3871 16.6589 11.8428 16.7729ZM5.14603 17.3362C5.20933 17.5514 5.32326 17.9565 5.40555 18.235C5.67139 19.1275 5.96256 20.1276 6.36133 21.5265C6.50058 22.0075 6.6335 22.4633 6.98164 23.6659C7.07025 23.9507 7.17153 24.2799 7.20318 24.3938C7.26014 24.5647 7.25381 24.609 7.17786 24.6407C7.12722 24.6597 6.70313 24.6533 6.23474 24.628L5.38023 24.5837L5.31693 24.3179C5.27895 24.1786 5.20933 23.9444 5.15869 23.8052C5.10805 23.6659 5.02577 23.3431 4.9688 23.0899L4.86119 22.6342H3.89275H2.91798L2.84836 22.9C2.81038 23.0519 2.74075 23.3114 2.69011 23.4887C2.63948 23.6596 2.55719 23.9634 2.51288 24.1533L2.43693 24.5014L1.60141 24.5204C0.949452 24.5331 0.759562 24.5204 0.759562 24.4571C0.759562 24.3685 0.917804 23.7355 1.17099 22.843C1.25961 22.5202 1.40519 21.9885 1.4938 21.6721C1.74066 20.7922 1.95587 20.0073 2.1331 19.3744C2.22172 19.0579 2.36097 18.5642 2.44326 18.2667C2.52554 17.9692 2.63948 17.5451 2.70277 17.3172L2.81671 16.9058L3.8611 16.8742C4.43711 16.8552 4.93082 16.8615 4.9688 16.8931C5.00045 16.9185 5.08273 17.1147 5.14603 17.3362Z" fill="white"/>
<path d="M32.4523 21.9823C32.4333 22.0139 32.3446 22.2735 32.256 22.5709C31.9459 23.609 31.9459 23.6153 31.6737 23.6027C31.5408 23.59 31.4205 23.5647 31.4015 23.5331C31.3319 23.4381 30.4394 23.3305 29.7305 23.3305C29.1798 23.3305 28.8886 23.3685 28.4202 23.4887C27.8063 23.6533 26.8252 24.0964 26.4897 24.3686L26.2998 24.5268L30.2875 28.5145C32.4776 30.7109 34.3005 32.5085 34.3258 32.5085C34.4018 32.5085 34.5157 32.382 34.6866 32.0971C34.7689 31.9579 34.8765 31.8186 34.9208 31.7933C34.9651 31.768 35.0031 31.6857 35.0031 31.6161C35.0031 31.5464 35.0538 31.3882 35.1234 31.2553C35.1867 31.1287 35.3196 30.7109 35.4145 30.3311C35.5728 29.7045 35.5854 29.5589 35.5538 28.8753C35.5348 28.4259 35.4842 28.0018 35.4272 27.8436C35.3702 27.698 35.3069 27.4511 35.288 27.2929L35.2436 27.0081L35.5158 26.8815C35.6677 26.8118 35.9779 26.7106 36.2058 26.6536C36.6615 26.5333 36.9653 26.3941 36.9653 26.3055C36.9653 26.2295 36.6995 26.2232 36.6172 26.2928C36.5792 26.3244 36.383 26.3877 36.1741 26.4321C35.9652 26.4827 35.7374 26.5523 35.6677 26.5966C35.5981 26.6409 35.4399 26.6916 35.3133 26.7169C35.0917 26.7612 35.0854 26.7549 34.9208 26.4194C34.6803 25.9257 34.3765 25.5269 33.8131 24.9509C33.3447 24.4699 33.0852 24.2863 32.4206 23.9445C32.1548 23.8116 32.1421 23.7926 32.1737 23.5774C32.1927 23.4508 32.2434 23.2546 32.3003 23.1343C32.3826 22.9381 32.4839 22.6026 32.5535 22.2861C32.5725 22.2165 32.6042 22.1089 32.6295 22.0456C32.6611 21.9696 32.6421 21.938 32.5788 21.938C32.5219 21.938 32.4649 21.957 32.4523 21.9823ZM30.3571 24.6408C31.0724 25.2041 30.7686 26.2675 29.8697 26.3561C29.6039 26.3814 29.5406 26.3624 29.3064 26.1725C28.9899 25.9193 28.8633 25.6978 28.8633 25.4003C28.8633 25.1218 28.9899 24.8749 29.2558 24.6471C29.5533 24.3939 30.0406 24.3939 30.3571 24.6408ZM33.9777 28.2487C34.0853 28.293 34.1803 28.3689 34.1803 28.4196C34.1803 28.4639 34.2372 28.5525 34.3069 28.6158C34.5537 28.8437 34.4461 29.4576 34.1043 29.7615C33.9144 29.9324 33.389 30.0779 33.2814 29.9957C33.2371 29.9577 33.1295 29.9134 33.0409 29.8944C32.9523 29.8691 32.8004 29.7488 32.6991 29.6159C32.2814 29.0905 32.5535 28.3626 33.2625 28.1347C33.4144 28.0904 33.6929 28.1284 33.9777 28.2487Z" fill="white"/>
<path d="M9.98181 18.1843C9.95649 18.2033 9.9375 18.716 9.9375 19.3237V20.4187H10.4059C11.1212 20.4187 11.4693 20.2605 11.7541 19.7984C11.9757 19.4313 11.9567 18.9312 11.7035 18.5894C11.6022 18.4375 11.4123 18.2793 11.2984 18.2286C11.0768 18.14 10.0578 18.102 9.98181 18.1843Z" fill="white"/>
<path d="M3.90548 18.6465C3.88016 18.7351 3.8232 19.0199 3.77256 19.2794C3.72192 19.539 3.59533 20.096 3.48772 20.5074C3.38012 20.9188 3.2915 21.2733 3.2915 21.2796C3.2915 21.2923 3.60166 21.3049 3.98777 21.3049H4.6777L4.58276 21.0011C4.46882 20.6277 4.19665 19.5833 4.05107 18.9629C3.96245 18.5895 3.9308 18.5199 3.90548 18.6465Z" fill="white"/>
<mask id="mask0_349_3690" style="mask-type:alpha" maskUnits="userSpaceOnUse" x="0" y="0" width="39" height="41">
<path d="M22.8375 0.803099C22.3248 0.860067 21.7235 0.942352 21.5083 0.98033C21.2867 1.01831 20.7234 1.09426 20.255 1.1449C19.7866 1.19554 19.2739 1.26517 19.1156 1.30314C18.9574 1.33479 18.432 1.40442 17.9446 1.46139C17.4573 1.51202 16.9192 1.58165 16.742 1.61963C16.5711 1.65128 16.0141 1.7209 15.5077 1.77787C15.0013 1.83484 14.4886 1.90446 14.3684 1.93611C14.2481 1.96776 13.7038 2.03739 13.1657 2.09435C12.6277 2.15765 12.1656 2.21462 12.1403 2.23361C12.1087 2.24627 11.596 2.31589 11.001 2.38552C10.3997 2.44882 9.77936 2.5311 9.62111 2.56908C9.46287 2.60073 8.92485 2.67668 8.41847 2.72732C7.9121 2.78429 7.3994 2.85392 7.27913 2.88556C7.15887 2.91088 6.72845 2.96785 6.32968 3.01216C5.93091 3.05014 5.3739 3.11976 5.09539 3.1704C4.81689 3.22104 4.17759 3.30332 3.67121 3.36029C3.16484 3.41726 2.63948 3.48688 2.50022 3.51853C2.36097 3.55018 1.94954 3.60715 1.58242 3.64513C1.2153 3.6831 0.708924 3.7464 0.455737 3.78438L0 3.85401L0.0126594 20.8239L0.0316484 37.7938L0.221539 37.8064C0.329143 37.8191 0.557012 37.8507 0.727913 37.8887C0.905144 37.9267 1.48747 38.009 2.0255 38.0786C4.1586 38.3444 4.99412 38.4584 5.53847 38.5533C5.85495 38.604 6.39298 38.6799 6.74111 38.7116C7.08924 38.7495 7.51966 38.8065 7.69056 38.8445C7.86779 38.8825 8.45012 38.9647 8.98815 39.028C10.5516 39.2243 12.2353 39.4521 12.4378 39.4964C12.5454 39.5154 13.0708 39.5914 13.6088 39.661C15.3558 39.8825 16.8686 40.0851 17.0585 40.1294C17.1661 40.1484 17.6915 40.2244 18.2295 40.294C20.0144 40.5155 21.5526 40.7244 21.7108 40.7687C21.9703 40.832 23.7996 41.0282 23.8312 40.9966C23.8502 40.9839 23.8629 40.2054 23.8629 39.2686V37.5722H30.085C34.0347 37.5722 36.4526 37.5469 36.7121 37.5089C37.5413 37.376 38.2566 36.838 38.63 36.0657L38.8326 35.6417V20.8302V6.01876L38.63 5.59467C38.3072 4.90473 37.8641 4.4933 37.1362 4.19581C36.8071 4.05656 36.7881 4.05656 30.3382 4.03757L23.8629 4.01858V2.37919C23.8629 1.48038 23.8439 0.727143 23.8186 0.714484C23.7869 0.701825 23.3502 0.739803 22.8375 0.803099ZM36.959 5.63265C37.4907 5.99977 37.4401 4.43633 37.459 20.672C37.4717 31.3565 37.459 35.1986 37.4021 35.3885C37.2502 35.9265 36.8324 36.1797 36.0792 36.1797C35.4968 36.1797 35.4336 36.1101 35.7627 35.8126C35.9209 35.667 35.9526 35.572 36.0032 35.1733C36.0602 34.6669 36.0096 34.4707 35.7374 34.1668C35.4082 33.7934 34.7753 33.6668 34.3259 33.882C34.1993 33.939 33.6486 34.439 33.0979 34.9897L32.0915 35.9898H31.6484C31.3319 35.9898 31.2053 35.9645 31.2053 35.9075C31.2053 35.8632 31.6927 35.3442 32.2814 34.7555C32.8764 34.1668 33.3574 33.6605 33.3574 33.6352C33.3574 33.6098 31.5471 31.7806 29.3317 29.5715C26.7239 26.9637 25.2807 25.5648 25.2238 25.5901C25.1731 25.6091 24.8693 25.8876 24.5465 26.2168C24.2237 26.5459 23.9389 26.8118 23.9135 26.8118C23.8882 26.8118 23.8629 26.5776 23.8629 26.2864V25.761L24.3693 25.261C25.1162 24.5204 25.2744 24.0837 24.9959 23.552C24.7491 23.0836 24.3946 22.8241 23.9958 22.8241H23.8312L23.8502 14.1207L23.8629 5.41744L30.2749 5.4301L36.6932 5.44909L36.959 5.63265ZM21.6095 16.602C21.5526 16.7033 21.3627 16.9501 21.1918 17.159C21.0272 17.3679 20.7424 17.7223 20.5715 17.9502C20.179 18.4439 20.1221 18.5199 19.5524 19.2415C18.8751 20.096 18.8878 20.0706 19.0144 20.3112C19.0713 20.4251 19.2043 20.6403 19.3055 20.7986C19.4068 20.9568 19.5524 21.1847 19.622 21.3049C19.6916 21.4252 19.8309 21.6531 19.9322 21.8113C20.3942 22.5519 20.8563 23.2988 21.2741 23.9824C21.5209 24.3875 21.7488 24.742 21.7804 24.7609C21.8121 24.7799 21.8374 24.8496 21.8374 24.9192C21.8374 25.0458 21.8121 25.0521 20.6854 25.0078C20.0461 24.9825 19.5144 24.9508 19.4954 24.9318C19.4511 24.8939 18.8371 23.8368 18.1345 22.5899C17.7991 21.9885 17.5016 21.4822 17.4699 21.4632C17.4446 21.4442 17.2737 21.6024 17.0965 21.805L16.7737 22.1784V23.552V24.9318L15.8432 24.8875C15.3305 24.8685 14.8874 24.8242 14.8621 24.7989C14.8304 24.7673 14.8178 22.9127 14.8241 20.6656L14.8431 16.5893L15.8115 16.5703L16.7737 16.5513V18.311C16.78 19.8808 16.7863 20.058 16.8749 19.9441C16.9256 19.8744 17.1281 19.5769 17.3243 19.2794C17.8307 18.5135 18.6979 17.2286 18.7359 17.1906C18.7548 17.1717 18.8688 17.0134 18.989 16.8298L19.2106 16.5007L19.622 16.4754C19.8499 16.4627 20.4132 16.4501 20.8816 16.4437L21.7235 16.4311L21.6095 16.602ZM11.8428 16.7729C13.2544 17.1273 13.9253 18.1338 13.7291 19.6086C13.6595 20.1086 13.3999 20.7036 13.1151 21.0074C12.5771 21.5771 11.577 21.9379 10.5452 21.9379H9.9376L9.92494 23.3114L9.90595 24.6913L9.24133 24.7103C8.87421 24.723 8.48177 24.7103 8.37417 24.6913L8.16529 24.6533V20.7669V16.8742L8.31087 16.8425C8.66533 16.7602 10.0262 16.6336 10.6022 16.6273C11.0769 16.621 11.3871 16.6589 11.8428 16.7729ZM5.14603 17.3362C5.20933 17.5514 5.32326 17.9565 5.40555 18.235C5.67139 19.1275 5.96256 20.1276 6.36133 21.5265C6.50058 22.0075 6.6335 22.4633 6.98164 23.6659C7.07025 23.9507 7.17153 24.2799 7.20318 24.3938C7.26014 24.5647 7.25381 24.609 7.17786 24.6407C7.12722 24.6597 6.70313 24.6533 6.23474 24.628L5.38023 24.5837L5.31693 24.3179C5.27895 24.1786 5.20933 23.9444 5.15869 23.8052C5.10805 23.6659 5.02577 23.3431 4.9688 23.0899L4.86119 22.6342H3.89275H2.91798L2.84836 22.9C2.81038 23.0519 2.74075 23.3114 2.69011 23.4887C2.63948 23.6596 2.55719 23.9634 2.51288 24.1533L2.43693 24.5014L1.60141 24.5204C0.949452 24.5331 0.759562 24.5204 0.759562 24.4571C0.759562 24.3685 0.917804 23.7355 1.17099 22.843C1.25961 22.5202 1.40519 21.9885 1.4938 21.6721C1.74066 20.7922 1.95587 20.0073 2.1331 19.3744C2.22172 19.0579 2.36097 18.5642 2.44326 18.2667C2.52554 17.9692 2.63948 17.5451 2.70277 17.3172L2.81671 16.9058L3.8611 16.8742C4.43711 16.8552 4.93082 16.8615 4.9688 16.8931C5.00045 16.9185 5.08273 17.1147 5.14603 17.3362Z" fill="white"/>
<path d="M32.4523 21.9823C32.4333 22.0139 32.3446 22.2735 32.256 22.5709C31.9459 23.609 31.9459 23.6153 31.6737 23.6027C31.5408 23.59 31.4205 23.5647 31.4015 23.5331C31.3319 23.4381 30.4394 23.3305 29.7305 23.3305C29.1798 23.3305 28.8886 23.3685 28.4202 23.4887C27.8063 23.6533 26.8252 24.0964 26.4897 24.3686L26.2998 24.5268L30.2875 28.5145C32.4776 30.7109 34.3005 32.5085 34.3258 32.5085C34.4018 32.5085 34.5157 32.382 34.6866 32.0971C34.7689 31.9579 34.8765 31.8186 34.9208 31.7933C34.9651 31.768 35.0031 31.6857 35.0031 31.6161C35.0031 31.5464 35.0538 31.3882 35.1234 31.2553C35.1867 31.1287 35.3196 30.7109 35.4145 30.3311C35.5728 29.7045 35.5854 29.5589 35.5538 28.8753C35.5348 28.4259 35.4842 28.0018 35.4272 27.8436C35.3702 27.698 35.3069 27.4511 35.288 27.2929L35.2436 27.0081L35.5158 26.8815C35.6677 26.8118 35.9779 26.7106 36.2058 26.6536C36.6615 26.5333 36.9653 26.3941 36.9653 26.3055C36.9653 26.2295 36.6995 26.2232 36.6172 26.2928C36.5792 26.3244 36.383 26.3877 36.1741 26.4321C35.9652 26.4827 35.7374 26.5523 35.6677 26.5966C35.5981 26.6409 35.4399 26.6916 35.3133 26.7169C35.0917 26.7612 35.0854 26.7549 34.9208 26.4194C34.6803 25.9257 34.3765 25.5269 33.8131 24.9509C33.3447 24.4699 33.0852 24.2863 32.4206 23.9445C32.1548 23.8116 32.1421 23.7926 32.1737 23.5774C32.1927 23.4508 32.2434 23.2546 32.3003 23.1343C32.3826 22.9381 32.4839 22.6026 32.5535 22.2861C32.5725 22.2165 32.6042 22.1089 32.6295 22.0456C32.6611 21.9696 32.6421 21.938 32.5788 21.938C32.5219 21.938 32.4649 21.957 32.4523 21.9823ZM30.3571 24.6408C31.0724 25.2041 30.7686 26.2675 29.8697 26.3561C29.6039 26.3814 29.5406 26.3624 29.3064 26.1725C28.9899 25.9193 28.8633 25.6978 28.8633 25.4003C28.8633 25.1218 28.9899 24.8749 29.2558 24.6471C29.5533 24.3939 30.0406 24.3939 30.3571 24.6408ZM33.9777 28.2487C34.0853 28.293 34.1803 28.3689 34.1803 28.4196C34.1803 28.4639 34.2372 28.5525 34.3069 28.6158C34.5537 28.8437 34.4461 29.4576 34.1043 29.7615C33.9144 29.9324 33.389 30.0779 33.2814 29.9957C33.2371 29.9577 33.1295 29.9134 33.0409 29.8944C32.9523 29.8691 32.8004 29.7488 32.6991 29.6159C32.2814 29.0905 32.5535 28.3626 33.2625 28.1347C33.4144 28.0904 33.6929 28.1284 33.9777 28.2487Z" fill="white"/>
<path d="M9.98181 18.1843C9.95649 18.2033 9.9375 18.716 9.9375 19.3237V20.4187H10.4059C11.1212 20.4187 11.4693 20.2605 11.7541 19.7984C11.9757 19.4313 11.9567 18.9312 11.7035 18.5894C11.6022 18.4375 11.4123 18.2793 11.2984 18.2286C11.0768 18.14 10.0578 18.102 9.98181 18.1843Z" fill="white"/>
<path d="M3.90548 18.6465C3.88016 18.7351 3.8232 19.0199 3.77256 19.2794C3.72192 19.539 3.59533 20.096 3.48772 20.5074C3.38012 20.9188 3.2915 21.2733 3.2915 21.2796C3.2915 21.2923 3.60166 21.3049 3.98777 21.3049H4.6777L4.58276 21.0011C4.46882 20.6277 4.19665 19.5833 4.05107 18.9629C3.96245 18.5895 3.9308 18.5199 3.90548 18.6465Z" fill="white"/>
</mask>
<g mask="url(#mask0_349_3690)">
<rect x="24" y="20" width="13" height="16" fill="#1B7F6D"/>
</g>
</svg>
