<svg width="28" height="28" viewBox="0 0 28 28" fill="none" xmlns="http://www.w3.org/2000/svg">
<path d="M23.3333 7.87492C25.1052 7.87492 26.5417 6.4385 26.5417 4.66659C26.5417 2.89467 25.1052 1.45825 23.3333 1.45825C21.5614 1.45825 20.125 2.89467 20.125 4.66659C20.125 6.4385 21.5614 7.87492 23.3333 7.87492Z" fill="#1B7F6D"/>
<path opacity="0.4" d="M23.3335 9.33325C20.7552 9.33325 18.6668 7.24492 18.6668 4.66659C18.6668 3.81492 18.9118 3.02159 19.3202 2.33325H8.16683C4.94683 2.33325 2.3335 4.93492 2.3335 8.14325V15.1199V16.2866C2.3335 19.4949 4.94683 22.0966 8.16683 22.0966H9.91683C10.2318 22.0966 10.6518 22.3066 10.8502 22.5633L12.6002 24.8849C13.3702 25.9116 14.6302 25.9116 15.4002 24.8849L17.1502 22.5633C17.3718 22.2716 17.7218 22.0966 18.0835 22.0966H19.8335C23.0535 22.0966 25.6668 19.4949 25.6668 16.2866V8.67992C24.9785 9.08825 24.1852 9.33325 23.3335 9.33325Z" fill="#1B7F6D"/>
<path d="M14.0002 14.0001C13.3468 14.0001 12.8335 13.4751 12.8335 12.8334C12.8335 12.1917 13.3585 11.6667 14.0002 11.6667C14.6418 11.6667 15.1668 12.1917 15.1668 12.8334C15.1668 13.4751 14.6535 14.0001 14.0002 14.0001Z" fill="#1B7F6D"/>
<path d="M18.6667 14.0001C18.0133 14.0001 17.5 13.4751 17.5 12.8334C17.5 12.1917 18.025 11.6667 18.6667 11.6667C19.3083 11.6667 19.8333 12.1917 19.8333 12.8334C19.8333 13.4751 19.32 14.0001 18.6667 14.0001Z" fill="#1B7F6D"/>
<path d="M9.33317 14.0001C8.67984 14.0001 8.1665 13.4751 8.1665 12.8334C8.1665 12.1917 8.6915 11.6667 9.33317 11.6667C9.97484 11.6667 10.4998 12.1917 10.4998 12.8334C10.4998 13.4751 9.9865 14.0001 9.33317 14.0001Z" fill="#1B7F6D"/>
</svg>
