<svg width="28" height="28" viewBox="0 0 28 28" fill="none" xmlns="http://www.w3.org/2000/svg">
<path opacity="0.4" d="M4.0835 25.6666V5.83325C4.0835 3.49992 5.64683 2.33325 7.5835 2.33325H16.9168C18.8535 2.33325 20.4168 3.49992 20.4168 5.83325V25.6666H4.0835Z" fill="#1B7F6D"/>
<path d="M22.1668 26.5417H2.3335C1.85516 26.5417 1.4585 26.1451 1.4585 25.6667C1.4585 25.1884 1.85516 24.7917 2.3335 24.7917H22.1668C22.6452 24.7917 23.0418 25.1884 23.0418 25.6667C23.0418 26.1451 22.6452 26.5417 22.1668 26.5417Z" fill="#1B7F6D"/>
<path d="M9.205 11.6666H15.3067C16.52 11.6666 17.5117 11.0833 17.5117 9.46159V8.02659C17.5 6.41659 16.5083 5.83325 15.295 5.83325H9.19333C7.99167 5.83325 7 6.41658 7 8.03825V9.47325C7 11.0833 7.99167 11.6666 9.205 11.6666Z" fill="#1B7F6D"/>
<path d="M11.0835 16.0417H7.5835C7.10516 16.0417 6.7085 15.6451 6.7085 15.1667C6.7085 14.6884 7.10516 14.2917 7.5835 14.2917H11.0835C11.5618 14.2917 11.9585 14.6884 11.9585 15.1667C11.9585 15.6451 11.5618 16.0417 11.0835 16.0417Z" fill="#1B7F6D"/>
<path d="M26.5415 11.6666V18.6666C26.5415 19.1449 26.1565 19.5416 25.6665 19.5416L20.4165 19.5533V17.8033L24.7915 17.7916V12.2033L22.9365 11.2816C22.5048 11.0716 22.3298 10.5466 22.5515 10.1033C22.7615 9.67161 23.2982 9.50828 23.7298 9.71828L26.0632 10.8849C26.3548 11.0366 26.5415 11.3399 26.5415 11.6666Z" fill="#1B7F6D"/>
</svg>
