<svg width="28" height="28" viewBox="0 0 28 28" fill="none" xmlns="http://www.w3.org/2000/svg">
<path d="M17.5002 3.50004V14C17.5002 15.2834 16.4502 16.3334 15.1668 16.3334H2.3335V7.00004C2.3335 4.42171 4.42183 2.33337 7.00016 2.33337H16.3335C16.9752 2.33337 17.5002 2.85837 17.5002 3.50004Z" fill="#1B7F6D"/>
<path opacity="0.4" d="M25.6668 16.3334V19.8334C25.6668 21.77 24.1035 23.3334 22.1668 23.3334H21.0002C21.0002 22.05 19.9502 21 18.6668 21C17.3835 21 16.3335 22.05 16.3335 23.3334H11.6668C11.6668 22.05 10.6168 21 9.3335 21C8.05016 21 7.00016 22.05 7.00016 23.3334H5.8335C3.89683 23.3334 2.3335 21.77 2.3335 19.8334V16.3334H15.1668C16.4502 16.3334 17.5002 15.2834 17.5002 14V5.83337H19.6468C20.4868 5.83337 21.2568 6.28839 21.6768 7.01172L23.6718 10.5H22.1668C21.5252 10.5 21.0002 11.025 21.0002 11.6667V15.1667C21.0002 15.8084 21.5252 16.3334 22.1668 16.3334H25.6668Z" fill="#1B7F6D"/>
<path d="M9.33333 25.6667C10.622 25.6667 11.6667 24.622 11.6667 23.3333C11.6667 22.0447 10.622 21 9.33333 21C8.04467 21 7 22.0447 7 23.3333C7 24.622 8.04467 25.6667 9.33333 25.6667Z" fill="#1B7F6D"/>
<path d="M18.6668 25.6667C19.9555 25.6667 21.0002 24.622 21.0002 23.3333C21.0002 22.0447 19.9555 21 18.6668 21C17.3782 21 16.3335 22.0447 16.3335 23.3333C16.3335 24.622 17.3782 25.6667 18.6668 25.6667Z" fill="#1B7F6D"/>
<path d="M25.6667 14.6184V16.3333H22.1667C21.525 16.3333 21 15.8083 21 15.1667V11.6667C21 11.025 21.525 10.5 22.1667 10.5H23.6717L25.3633 13.4633C25.5617 13.8133 25.6667 14.21 25.6667 14.6184Z" fill="#1B7F6D"/>
</svg>
