<svg width="28" height="28" viewBox="0 0 28 28" fill="none" xmlns="http://www.w3.org/2000/svg">
<path opacity="0.4" d="M19.7165 25.6667H8.28318C6.29984 25.6667 4.6665 24.045 4.6665 22.05V5.95002C4.6665 3.96668 6.28818 2.33334 8.28318 2.33334H19.7165C21.6998 2.33334 23.3332 3.95502 23.3332 5.95002V22.05C23.3332 24.045 21.7115 25.6667 19.7165 25.6667Z" fill="#1B7F6D"/>
<path d="M23.3332 9.33334H4.6665V15.1667H23.3332V9.33334Z" fill="#1B7F6D"/>
<path d="M9.33333 21.875C9.24 21.875 9.14666 21.8634 9.05333 21.8517C8.95999 21.8284 8.86667 21.805 8.77334 21.7584C8.69167 21.7234 8.59833 21.6767 8.52833 21.63C8.44666 21.5717 8.36499 21.5134 8.30666 21.4434C8.02666 21.175 7.875 20.8017 7.875 20.4167C7.875 20.0317 8.02666 19.6584 8.30666 19.39C8.36499 19.32 8.44666 19.2617 8.52833 19.2034C8.59833 19.1567 8.69167 19.11 8.77334 19.075C8.86667 19.0284 8.95999 19.005 9.05333 18.9817C9.51999 18.8884 10.0217 19.0517 10.36 19.39C10.64 19.6584 10.7917 20.0317 10.7917 20.4167C10.7917 20.8017 10.64 21.175 10.36 21.4434C10.0917 21.7234 9.71833 21.875 9.33333 21.875Z" fill="#1B7F6D"/>
<path d="M18.6668 21.875C18.5735 21.875 18.4802 21.8634 18.3868 21.8517C18.2935 21.8284 18.2002 21.805 18.1068 21.7583C18.0252 21.7233 17.9318 21.6767 17.8618 21.63C17.7802 21.5717 17.6985 21.5133 17.6402 21.4433C17.3602 21.175 17.2085 20.8017 17.2085 20.4167C17.2085 20.0317 17.3602 19.6583 17.6402 19.39C17.6985 19.32 17.7802 19.2617 17.8618 19.2033C17.9318 19.1567 18.0252 19.11 18.1068 19.075C18.2002 19.0284 18.2935 19.005 18.3868 18.9817C18.5735 18.9467 18.7602 18.9467 18.9585 18.9817C19.0402 19.005 19.1335 19.0284 19.2268 19.075C19.3085 19.11 19.4018 19.1567 19.4718 19.2033C19.5535 19.2617 19.6352 19.32 19.6935 19.39C19.9735 19.6583 20.1252 20.0317 20.1252 20.4167C20.1252 20.8017 19.9735 21.175 19.6935 21.4433C19.6352 21.5133 19.5535 21.5717 19.4718 21.63C19.4018 21.6767 19.3085 21.7233 19.2268 21.7583C19.1335 21.805 19.0402 21.8284 18.9585 21.8517C18.8535 21.8634 18.7602 21.875 18.6668 21.875Z" fill="#1B7F6D"/>
<path d="M16.9168 6.70834H11.0835C10.6052 6.70834 10.2085 6.31168 10.2085 5.83334C10.2085 5.35501 10.6052 4.95834 11.0835 4.95834H16.9168C17.3952 4.95834 17.7918 5.35501 17.7918 5.83334C17.7918 6.31168 17.3952 6.70834 16.9168 6.70834Z" fill="#1B7F6D"/>
</svg>
