<svg width="28" height="28" viewBox="0 0 28 28" fill="none" xmlns="http://www.w3.org/2000/svg">
<path d="M19.8565 24.8382L15.7965 22.8082C14.6649 22.2482 13.3465 22.2482 12.2149 22.8082L8.15486 24.8382C4.66652 26.5765 0.991524 22.8315 2.81152 19.3899L3.76819 17.5932C3.89652 17.3482 4.10652 17.1499 4.36319 17.0332L19.1099 10.3832C19.7165 10.1149 20.4282 10.3599 20.7315 10.9432L25.1765 19.3899C26.9965 22.8315 23.3332 26.5765 19.8565 24.8382Z" fill="#1B7F6D"/>
<path opacity="0.4" d="M18.2 8.97161L8.54003 13.3233C7.45503 13.8133 6.35836 12.6466 6.91836 11.5966L10.465 4.86494C11.97 2.00661 16.0534 2.00661 17.5584 4.86494L18.8067 7.24494C19.1334 7.88661 18.8534 8.67994 18.2 8.97161Z" fill="#1B7F6D"/>
</svg>
