<svg width="28" height="28" viewBox="0 0 28 28" fill="none" xmlns="http://www.w3.org/2000/svg">
<path opacity="0.4" d="M25.8767 15.9367C25.7017 14.0117 25.1884 11.9583 21.4434 11.9583H6.55669C2.81169 11.9583 2.31002 14.0117 2.12335 15.9367L1.47002 23.0417C1.38835 23.9283 1.68002 24.815 2.28669 25.48C2.90502 26.1567 3.78002 26.5417 4.71335 26.5417H6.90669C8.79669 26.5417 9.15835 25.4567 9.39169 24.745L9.62502 24.045C9.89335 23.24 9.96335 23.0417 11.0134 23.0417H16.9867C18.0367 23.0417 18.0717 23.1583 18.375 24.045L18.6084 24.745C18.8417 25.4567 19.2034 26.5417 21.0934 26.5417H23.2867C24.2084 26.5417 25.095 26.1567 25.7134 25.48C26.32 24.815 26.6117 23.9283 26.53 23.0417L25.8767 15.9367Z" fill="#1B7F6D"/>
<path d="M24.5 8.45833H23.3333C23.3217 8.45833 23.3217 8.45833 23.31 8.45833L22.8667 6.34667C22.4467 4.305 21.5717 2.42667 18.095 2.42667H14.875H13.125H9.905C6.42833 2.42667 5.55333 4.305 5.13333 6.34667L4.69 8.45833C4.67833 8.45833 4.67833 8.45833 4.66667 8.45833H3.5C3.02167 8.45833 2.625 8.855 2.625 9.33333C2.625 9.81167 3.02167 10.2083 3.5 10.2083H4.32833L3.83833 12.5417C4.46833 12.18 5.34333 11.9583 6.55667 11.9583H21.4433C22.6567 11.9583 23.5317 12.18 24.1617 12.5417L23.6717 10.2083H24.5C24.9783 10.2083 25.375 9.81167 25.375 9.33333C25.375 8.855 24.9783 8.45833 24.5 8.45833Z" fill="#1B7F6D"/>
<path d="M10.5 18.375H7C6.52167 18.375 6.125 17.9783 6.125 17.5C6.125 17.0217 6.52167 16.625 7 16.625H10.5C10.9783 16.625 11.375 17.0217 11.375 17.5C11.375 17.9783 10.9783 18.375 10.5 18.375Z" fill="#1B7F6D"/>
<path d="M21 18.375H17.5C17.0217 18.375 16.625 17.9783 16.625 17.5C16.625 17.0217 17.0217 16.625 17.5 16.625H21C21.4783 16.625 21.875 17.0217 21.875 17.5C21.875 17.9783 21.4783 18.375 21 18.375Z" fill="#1B7F6D"/>
</svg>
