<svg width="28" height="28" viewBox="0 0 28 28" fill="none" xmlns="http://www.w3.org/2000/svg">
<path opacity="0.4" d="M24.4652 8.38833V15.5983H2.3335V8.38833C2.3335 5.69333 4.52683 3.5 7.22183 3.5H19.5768C22.2718 3.5 24.4652 5.69333 24.4652 8.38833Z" fill="#1B7F6D"/>
<path d="M2.3335 15.5984V15.8201C2.3335 18.5267 4.52683 20.7084 7.22183 20.7084H11.4218C12.0635 20.7084 12.5885 21.2334 12.5885 21.8751V22.8317C12.5885 23.4734 12.0635 23.9984 11.4218 23.9984H8.78516C8.33016 23.9984 7.95683 24.3717 7.95683 24.8267C7.95683 25.2817 8.33016 25.6551 8.78516 25.6551H18.0368C18.4918 25.6551 18.8652 25.2817 18.8652 24.8267C18.8652 24.3717 18.4918 23.9984 18.0368 23.9984H15.4118C14.7702 23.9984 14.2452 23.4734 14.2452 22.8317V21.8751C14.2452 21.2334 14.7702 20.7084 15.4118 20.7084H19.5768C22.2835 20.7084 24.4652 18.5151 24.4652 15.8201V15.5984H2.3335Z" fill="#1B7F6D"/>
<path d="M25.6548 2.75338L24.3365 3.67505V3.18504C24.3365 2.07671 23.4382 1.19004 22.3415 1.19004H17.3482C16.1465 1.17838 15.1665 2.15838 15.1665 3.36004V7.18671C15.1665 8.19004 15.6682 9.18171 17.1615 9.18171H22.3298C23.4382 9.18171 24.3248 8.28338 24.3248 7.18671V6.68504L25.6432 7.60671C26.3082 8.06171 26.8332 7.78171 26.8332 6.98838V3.37171C26.8332 2.57838 26.3082 2.31004 25.6548 2.75338Z" fill="#1B7F6D"/>
</svg>
