<svg width="26" height="26" viewBox="0 0 26 26" fill="none" xmlns="http://www.w3.org/2000/svg">
<path opacity="0.4" d="M18.447 0H7.553C2.821 0 0 2.821 0 7.553V18.447C0 23.179 2.821 26 7.553 26H18.447C23.179 26 26 23.179 26 18.447V7.553C26 2.821 23.179 0 18.447 0Z" fill="#1B7F6D"/>
<path d="M21.2027 8.93105C21.2027 9.46405 20.7737 9.90605 20.2277 9.90605H13.4027C12.8697 9.90605 12.4277 9.46405 12.4277 8.93105C12.4277 8.39805 12.8697 7.95605 13.4027 7.95605H20.2277C20.7737 7.95605 21.2027 8.39805 21.2027 8.93105Z" fill="#1B7F6D"/>
<path d="M10.361 7.67003L7.43603 10.595C7.24103 10.79 6.99403 10.881 6.74703 10.881C6.50003 10.881 6.24003 10.79 6.05803 10.595L5.08303 9.62003C4.69303 9.24303 4.69303 8.61903 5.08303 8.24203C5.46003 7.86503 6.07103 7.86503 6.46103 8.24203L6.74703 8.52803L8.98303 6.29203C9.36003 5.91503 9.97103 5.91503 10.361 6.29203C10.738 6.66903 10.738 7.29303 10.361 7.67003Z" fill="#1B7F6D"/>
<path d="M21.2027 18.0312C21.2027 18.5642 20.7737 19.0062 20.2277 19.0062H13.4027C12.8697 19.0062 12.4277 18.5642 12.4277 18.0312C12.4277 17.4982 12.8697 17.0562 13.4027 17.0562H20.2277C20.7737 17.0562 21.2027 17.4982 21.2027 18.0312Z" fill="#1B7F6D"/>
<path d="M10.361 16.7701L7.43603 19.6951C7.24103 19.8901 6.99403 19.9811 6.74703 19.9811C6.50003 19.9811 6.24003 19.8901 6.05803 19.6951L5.08303 18.7201C4.69303 18.3431 4.69303 17.7191 5.08303 17.3421C5.46003 16.9651 6.07103 16.9651 6.46103 17.3421L6.74703 17.6281L8.98303 15.3921C9.36003 15.0151 9.97103 15.0151 10.361 15.3921C10.738 15.7691 10.738 16.3931 10.361 16.7701Z" fill="#1B7F6D"/>
</svg>
