<svg width="28" height="28" viewBox="0 0 28 28" fill="none" xmlns="http://www.w3.org/2000/svg">
<path opacity="0.4" d="M14.0002 25.6666C20.4435 25.6666 25.6668 20.4433 25.6668 14C25.6668 7.55666 20.4435 2.33331 14.0002 2.33331C7.55684 2.33331 2.3335 7.55666 2.3335 14C2.3335 20.4433 7.55684 25.6666 14.0002 25.6666Z" fill="#1B7F6D"/>
<path d="M14 16.625C15.4497 16.625 16.625 15.4497 16.625 14C16.625 12.5503 15.4497 11.375 14 11.375C12.5503 11.375 11.375 12.5503 11.375 14C11.375 15.4497 12.5503 16.625 14 16.625Z" fill="#1B7F6D"/>
<path d="M8.16683 14.875H5.8335C5.35516 14.875 4.9585 14.4783 4.9585 14C4.9585 13.5217 5.35516 13.125 5.8335 13.125H8.16683C8.64516 13.125 9.04183 13.5217 9.04183 14C9.04183 14.4783 8.64516 14.875 8.16683 14.875Z" fill="#1B7F6D"/>
<path d="M22.1668 14.875H19.8335C19.3552 14.875 18.9585 14.4783 18.9585 14C18.9585 13.5217 19.3552 13.125 19.8335 13.125H22.1668C22.6452 13.125 23.0418 13.5217 23.0418 14C23.0418 14.4783 22.6452 14.875 22.1668 14.875Z" fill="#1B7F6D"/>
</svg>
