<svg width="310" height="261" viewBox="0 0 310 261" fill="none" xmlns="http://www.w3.org/2000/svg">
<path opacity="0.05" d="M138.258 198.704C138.258 214.457 132.497 228.778 120.976 241.667C109.454 254.556 93.6121 261 73.4495 261C59.7677 261 48.2462 258.494 38.885 253.481C29.5238 247.753 21.9628 240.951 16.2021 233.074C10.4413 224.481 6.12079 215.173 3.24042 205.148C1.08014 195.123 0 185.099 0 175.074C0 155.025 3.24042 136.049 9.72125 118.148C16.2021 99.5309 24.4832 82.7037 34.5645 67.6667C45.3658 52.6296 57.6074 39.3827 71.2892 27.9259C84.971 15.7531 99.0128 6.44445 113.415 0L145.819 41.8889C129.257 54.0618 115.935 67.6667 105.854 82.7037C95.7724 97.0247 90.0116 114.926 88.5714 136.407C103.693 137.84 115.575 144.642 124.216 156.815C133.577 168.272 138.258 182.235 138.258 198.704ZM302.439 198.704C302.439 214.457 296.678 228.778 285.157 241.667C273.635 254.556 257.793 261 237.631 261C223.949 261 212.427 258.494 203.066 253.481C193.705 247.753 186.144 240.951 180.383 233.074C174.623 224.481 170.302 215.173 167.422 205.148C165.261 195.123 164.181 185.099 164.181 175.074C164.181 155.025 167.422 136.049 173.902 118.148C180.383 99.5309 188.664 82.7037 198.746 67.6667C209.547 52.6296 221.789 39.3827 235.47 27.9259C249.152 15.7531 263.194 6.44445 277.596 0L310 41.8889C293.438 54.0618 280.116 67.6667 270.035 82.7037C259.954 97.0247 254.193 114.926 252.753 136.407C267.875 137.84 279.756 144.642 288.397 156.815C297.758 168.272 302.439 182.235 302.439 198.704Z" fill="black"/>
</svg>
