<svg width="40" height="40" viewBox="0 0 40 40" fill="none" xmlns="http://www.w3.org/2000/svg">
<path d="M23.5499 18.9C24.1999 16.1666 21.8165 13.7832 19.0832 14.4332C17.7999 14.7499 16.7499 15.7999 16.4332 17.0833C15.7832 19.8166 18.1665 22.1999 20.8999 21.5499C22.1999 21.2332 23.2499 20.1833 23.5499 18.9Z" fill="#1B7F6D"/>
<path opacity="0.4" d="M10.0334 29.95C9.73343 29.95 9.41674 29.8334 9.18341 29.6167C5.95008 26.6167 4.1001 22.3833 4.1001 17.9833C4.1001 9.21667 11.2334 2.08337 20.0001 2.08337C28.7668 2.08337 35.9001 9.21667 35.9001 17.9833C35.9001 22.4167 34.1168 26.5167 30.8834 29.5667C30.3834 30.0334 29.5834 30.0167 29.1168 29.5167C28.6501 29.0167 28.6668 28.2167 29.1668 27.7501C31.9001 25.1834 33.4001 21.7334 33.4001 18C33.4001 10.6167 27.3834 4.60006 20.0001 4.60006C12.6168 4.60006 6.6001 10.6167 6.6001 18C6.6001 21.7667 8.11675 25.2334 10.8834 27.8C11.3834 28.2667 11.4168 29.0667 10.9501 29.5667C10.7001 29.8167 10.3668 29.95 10.0334 29.95Z" fill="#1B7F6D"/>
<path opacity="0.4" d="M26.6667 25.5C26.3667 25.5 26.05 25.3833 25.8167 25.1666C25.3167 24.6999 25.2834 23.8999 25.7667 23.3999C27.15 21.9333 27.9167 20 27.9167 18C27.9167 13.6333 24.3667 10.1 20.0167 10.1C15.6667 10.1 12.1167 13.65 12.1167 18C12.1167 20.0166 12.8834 21.9333 14.2667 23.3999C14.7334 23.8999 14.7167 24.6999 14.2167 25.1666C13.7167 25.6499 12.9167 25.6167 12.45 25.1167C10.6334 23.1833 9.6167 20.65 9.6167 18C9.6167 12.2666 14.2833 7.59998 20.0167 7.59998C25.75 7.59998 30.4167 12.2666 30.4167 18C30.4167 20.65 29.4167 23.1833 27.5834 25.1167C27.3334 25.3667 27 25.5 26.6667 25.5Z" fill="#1B7F6D"/>
<path d="M17.1666 27.7666L14.7666 30.75C12.8666 33.1333 14.55 36.6499 17.6 36.6499H22.3833C25.4333 36.6499 27.1333 33.1166 25.2166 30.75L22.8166 27.7666C21.3833 25.9499 18.6166 25.9499 17.1666 27.7666Z" fill="#1B7F6D"/>
</svg>
