<svg width="38" height="38" viewBox="0 0 38 38" fill="none" xmlns="http://www.w3.org/2000/svg">
<path opacity="0.4" d="M34.421 18.5884C33.4552 15.4217 31.0485 13.1417 28.0244 12.4609C27.1377 8.50254 24.6994 5.66838 21.2477 4.59171C17.4793 3.43588 13.1093 4.56004 10.3702 7.42588C7.94768 9.94338 7.15602 13.4109 8.09018 17.1C4.71768 17.9234 3.16602 20.8684 3.16602 23.5284C3.16602 26.505 5.11352 29.8459 9.45185 30.1467H13.4577V25.9825C13.4577 23.9717 14.661 22.7684 16.6718 22.7684H21.3268C23.3377 22.7684 24.541 23.9717 24.541 25.9825V30.1467H25.8235C25.8393 30.1467 25.871 30.1467 25.8869 30.1467C28.1352 30.1467 30.2885 29.3075 31.9352 27.8034C34.516 25.555 35.466 22.0242 34.421 18.5884Z" fill="#1B7F6D"/>
<path d="M21.3282 22.7842H16.6732C14.6623 22.7842 13.459 23.9875 13.459 25.9983V30.6533C13.459 32.6642 14.6623 33.8675 16.6732 33.8675H21.3282C23.339 33.8675 24.5423 32.6642 24.5423 30.6533V25.9983C24.5423 23.9875 23.339 22.7842 21.3282 22.7842ZM21.6448 28.5792L19.0007 31.5875L18.684 31.9517C18.2565 32.4425 17.8923 32.3158 17.8923 31.6508V28.8325H16.689C16.1348 28.8325 15.9923 28.5 16.3565 28.0883L19.0007 25.08L19.3173 24.7158C19.7448 24.225 20.109 24.3517 20.109 25.0167V27.835H21.3123C21.8665 27.8192 22.009 28.1675 21.6448 28.5792Z" fill="#1B7F6D"/>
</svg>
