<svg width="40" height="40" viewBox="0 0 40 40" fill="none" xmlns="http://www.w3.org/2000/svg">
<path opacity="0.4" d="M33.3332 15.0001V19.8667L32.0332 19.1167C30.9665 18.5001 29.6332 18.6834 28.7665 19.5167C28.5832 19.6834 28.4332 19.8834 28.2998 20.1001L28.1998 20.2834C28.0165 20.6001 27.8665 20.6834 27.8498 20.7001C27.8165 20.6834 27.6498 20.6001 27.4665 20.2667L27.3665 20.1001C26.9998 19.4667 26.4165 19.0334 25.7165 18.8501C24.9998 18.6501 24.2665 18.7501 23.6498 19.1167L22.1332 20.0001C21.4498 20.3834 20.9665 21.0167 20.7665 21.7667C20.5665 22.5334 20.6665 23.3167 21.0498 24.0001C21.2332 24.3001 21.2332 24.4834 21.2332 24.5167C21.2165 24.5334 21.0498 24.6334 20.6832 24.6334C19.0665 24.6334 17.7498 25.9501 17.7498 27.5501V29.1167C17.7498 30.7167 19.0665 32.0334 20.6832 32.0334C21.0498 32.0334 21.2165 32.1334 21.2165 32.1501C21.2332 32.1667 21.2332 32.3667 21.0498 32.6667C20.9332 32.8834 20.8332 33.1001 20.7832 33.3334H14.9998C10.3998 33.3334 6.6665 29.6001 6.6665 25.0001V15.0001C6.6665 10.4001 10.3998 6.66675 14.9998 6.66675H24.9998C29.5998 6.66675 33.3332 10.4001 33.3332 15.0001Z" fill="#1B7F6D"/>
<path d="M28.7667 16.2334V19.5167C28.5834 19.6834 28.4334 19.8834 28.3001 20.1001L28.2001 20.2834C28.0167 20.6001 27.8667 20.6834 27.8501 20.7001C27.8167 20.6834 27.6501 20.6001 27.4667 20.2667L27.3667 20.1001C27.0001 19.4667 26.4167 19.0334 25.7167 18.8501C25.0001 18.6501 24.2667 18.7501 23.6501 19.1167L22.1334 20.0001C21.4501 20.3834 20.9667 21.0167 20.7667 21.7667C20.5667 22.5334 20.6667 23.3167 21.0501 24.0001C21.2334 24.3001 21.2334 24.4834 21.2334 24.5167C21.2167 24.5334 21.0501 24.6334 20.6834 24.6334C19.0667 24.6334 17.7501 25.9501 17.7501 27.5501V28.7667H16.2334C13.4834 28.7667 11.2334 26.5167 11.2334 23.7667V16.2334C11.2334 13.4834 13.4834 11.2334 16.2334 11.2334H23.7667C26.5167 11.2334 28.7667 13.4834 28.7667 16.2334Z" fill="#1B7F6D"/>
<path d="M15.1001 4.58325V6.66658H15.0001C14.1668 6.66658 13.3668 6.78325 12.6001 7.01659V4.58325C12.6001 3.89992 13.1501 3.33325 13.8501 3.33325C14.5334 3.33325 15.1001 3.89992 15.1001 4.58325Z" fill="#1B7F6D"/>
<path d="M21.25 4.58325V6.66659H18.75V4.58325C18.75 3.89992 19.3167 3.33325 20 3.33325C20.6833 3.33325 21.25 3.89992 21.25 4.58325Z" fill="#1B7F6D"/>
<path d="M27.417 4.58325V7.01659C26.6503 6.78325 25.8337 6.66658 25.0003 6.66658H24.917V4.58325C24.917 3.89992 25.4837 3.33325 26.167 3.33325C26.8503 3.33325 27.417 3.89992 27.417 4.58325Z" fill="#1B7F6D"/>
<path d="M36.6667 13.8333C36.6667 14.5333 36.1167 15.0833 35.4167 15.0833H33.3334V14.9999C33.3334 14.1666 33.2167 13.3499 32.9834 12.5833H35.4167C36.1167 12.5833 36.6667 13.1499 36.6667 13.8333Z" fill="#1B7F6D"/>
<path d="M15.1001 33.3334V35.4167C15.1001 36.1001 14.5334 36.6667 13.8501 36.6667C13.1501 36.6667 12.6001 36.1001 12.6001 35.4167V32.9834C13.3668 33.2167 14.1668 33.3334 15.0001 33.3334H15.1001Z" fill="#1B7F6D"/>
<path d="M7.01683 12.5833C6.7835 13.3499 6.66683 14.1666 6.66683 14.9999V15.0833H4.5835C3.90016 15.0833 3.3335 14.5333 3.3335 13.8333C3.3335 13.1499 3.90016 12.5833 4.5835 12.5833H7.01683Z" fill="#1B7F6D"/>
<path d="M6.66683 18.75V21.25H4.5835C3.90016 21.25 3.3335 20.6833 3.3335 20C3.3335 19.3 3.90016 18.75 4.5835 18.75H6.66683Z" fill="#1B7F6D"/>
<path d="M7.01683 27.4168H4.5835C3.90016 27.4168 3.3335 26.8501 3.3335 26.1667C3.3335 25.4667 3.90016 24.9167 4.5835 24.9167H6.66683V25.0001C6.66683 25.8334 6.7835 26.6501 7.01683 27.4168Z" fill="#1B7F6D"/>
<path opacity="0.4" d="M34.9833 25.8834C33.85 25.8834 33.2 25.3167 33.2 24.4834C33.2 24.15 33.3 23.7667 33.5333 23.3667C34 22.5667 33.7167 21.5334 32.9167 21.0834L31.4 20.2C30.7 19.7834 29.8 20.0334 29.3833 20.7334L29.2833 20.9C28.4833 22.2834 27.1833 22.2834 26.3833 20.9L26.2833 20.7334C25.8833 20.0334 24.9667 19.7834 24.2833 20.2L22.75 21.0834C22.2167 21.3834 21.9 21.95 21.9 22.5334C21.9 22.8167 21.9833 23.1 22.1333 23.3667C22.3667 23.7667 22.4833 24.15 22.4833 24.4834C22.4833 25.3167 21.8167 25.8834 20.6833 25.8834C19.7667 25.8834 19 26.6334 19 27.55V29.1167C19 30.0334 19.7667 30.7834 20.6833 30.7834C21.8167 30.7834 22.4833 31.35 22.4833 32.1834C22.4833 32.5167 22.3667 32.9 22.1333 33.3C21.6667 34.1 21.95 35.1334 22.75 35.5834L24.2833 36.4667C24.9667 36.8834 25.8833 36.6334 26.2833 35.9334L26.3833 35.7667C27.1833 34.3834 28.4833 34.3834 29.2833 35.7667L29.3833 35.9334C29.8 36.6334 30.7 36.8834 31.4 36.4667L32.9167 35.5834C33.45 35.2834 33.7667 34.7167 33.7667 34.1334C33.7667 33.85 33.6833 33.5667 33.5333 33.3C33.3 32.9 33.2 32.5167 33.2 32.1834C33.2 31.35 33.85 30.7834 34.9833 30.7834C35.9167 30.7834 36.6667 30.0334 36.6667 29.1167V27.55C36.6667 26.6334 35.9167 25.8834 34.9833 25.8834ZM27.8333 31.2C26.25 31.2 24.9667 29.9167 24.9667 28.3334C24.9667 26.75 26.25 25.4667 27.8333 25.4667C29.4167 25.4667 30.7 26.75 30.7 28.3334C30.7 29.9167 29.4167 31.2 27.8333 31.2Z" fill="#1B7F6D"/>
<path d="M30.7001 28.3335C30.7001 29.9168 29.4168 31.2001 27.8335 31.2001C26.2501 31.2001 24.9668 29.9168 24.9668 28.3335C24.9668 26.7501 26.2501 25.4668 27.8335 25.4668C29.4168 25.4668 30.7001 26.7501 30.7001 28.3335Z" fill="#1B7F6D"/>
</svg>
