<svg width="40" height="40" viewBox="0 0 40 40" fill="none" xmlns="http://www.w3.org/2000/svg">
<path opacity="0.4" d="M27.9485 31.6335H12.0484C11.3484 31.6335 10.7151 31.1835 10.4818 30.5335L3.54845 11.1168C2.99845 9.56681 4.76511 8.25015 6.08178 9.20015L12.7484 13.9668C13.6318 14.6001 14.8984 14.2168 15.2818 13.2001L18.4318 4.80015C18.9651 3.35015 21.0151 3.35015 21.5484 4.80015L24.6984 13.2001C25.0818 14.2335 26.3318 14.6001 27.2318 13.9668L33.8984 9.20015C35.2318 8.25015 36.9818 9.58348 36.4318 11.1168L29.4984 30.5335C29.2818 31.1835 28.6484 31.6335 27.9485 31.6335Z" fill="#1B7F6D"/>
<path d="M28.3346 36.6667H11.668C10.9846 36.6667 10.418 36.1001 10.418 35.4167C10.418 34.7334 10.9846 34.1667 11.668 34.1667H28.3346C29.018 34.1667 29.5846 34.7334 29.5846 35.4167C29.5846 36.1001 29.018 36.6667 28.3346 36.6667Z" fill="#1B7F6D"/>
<path d="M24.1654 24.5833H15.832C15.1487 24.5833 14.582 24.0166 14.582 23.3333C14.582 22.6499 15.1487 22.0833 15.832 22.0833H24.1654C24.8487 22.0833 25.4154 22.6499 25.4154 23.3333C25.4154 24.0166 24.8487 24.5833 24.1654 24.5833Z" fill="#1B7F6D"/>
</svg>
