<svg width="40" height="40" viewBox="0 0 40 40" fill="none" xmlns="http://www.w3.org/2000/svg">
<path opacity="0.4" d="M21.6667 5.41663H11.6667C5.96667 5.41663 3.75 7.63329 3.75 13.3333V26.6666C3.75 30.5 5.83333 34.5833 11.6667 34.5833H21.6667C27.3667 34.5833 29.5833 32.3666 29.5833 26.6666V13.3333C29.5833 7.63329 27.3667 5.41663 21.6667 5.41663Z" fill="#1B7F6D"/>
<path d="M19.1668 18.9666C20.8973 18.9666 22.3001 17.5638 22.3001 15.8333C22.3001 14.1028 20.8973 12.7 19.1668 12.7C17.4363 12.7 16.0334 14.1028 16.0334 15.8333C16.0334 17.5638 17.4363 18.9666 19.1668 18.9666Z" fill="#1B7F6D"/>
<path d="M36.0834 10.2834C35.4 9.93335 33.9667 9.53335 32.0167 10.9L29.55 12.6334C29.5667 12.8667 29.5834 13.0834 29.5834 13.3334V26.6667C29.5834 26.9167 29.55 27.1334 29.55 27.3667L32.0167 29.1C33.05 29.8334 33.95 30.0667 34.6667 30.0667C35.2834 30.0667 35.7667 29.9 36.0834 29.7334C36.7667 29.3834 37.9167 28.4334 37.9167 26.05V13.9667C37.9167 11.5834 36.7667 10.6334 36.0834 10.2834Z" fill="#1B7F6D"/>
</svg>
