<svg width="38" height="38" viewBox="0 0 38 38" fill="none" xmlns="http://www.w3.org/2000/svg">
<path opacity="0.4" d="M34.2791 15.8809C33.6616 14.9942 32.5691 14.4876 31.3182 14.4876H24.8266C24.3991 14.4876 24.0032 14.3134 23.7341 13.9967C23.4491 13.6801 23.3382 13.2367 23.4016 12.7776L24.2091 7.58423C24.5574 6.03256 23.5282 4.2909 21.9766 3.7684C20.5357 3.23006 18.8416 3.9584 18.1607 4.98756L11.4791 14.9151L11.2891 15.2317V29.2284L11.5266 29.4659L16.5457 33.3451C17.2107 34.0101 18.7149 34.3742 19.7757 34.3742H25.9507C28.0724 34.3742 30.2099 32.7751 30.6849 30.8276L34.5799 18.9684C34.9916 17.8442 34.8807 16.7517 34.2791 15.8809Z" fill="#1B7F6D"/>
<path d="M8.24852 10.1016H6.61768C4.16352 10.1016 3.16602 11.0516 3.16602 13.3949V29.3232C3.16602 31.6666 4.16352 32.6166 6.61768 32.6166H8.24852C10.7027 32.6166 11.7002 31.6666 11.7002 29.3232V13.3949C11.7002 11.0516 10.7027 10.1016 8.24852 10.1016Z" fill="#1B7F6D"/>
</svg>
