<svg width="40" height="40" viewBox="0 0 40 40" fill="none" xmlns="http://www.w3.org/2000/svg">
<path opacity="0.4" d="M36.6666 13.0166V26.9833C36.6666 33.0499 33.0499 36.6666 26.9833 36.6666H13.0166C6.94992 36.6666 3.33325 33.0499 3.33325 26.9833V13.0166C3.33325 12.1666 3.39992 11.3499 3.54992 10.5999C4.39992 6.01659 7.78325 3.34992 12.9499 3.33325H27.0499C32.2166 3.34992 35.5999 6.01659 36.4499 10.5999C36.5999 11.3499 36.6666 12.1666 36.6666 13.0166Z" fill="#1B7F6D"/>
<path d="M36.6666 13.0166V13.0999H3.33325V13.0166C3.33325 12.1666 3.39992 11.3499 3.54992 10.5999H12.9499V3.33325H15.4499V10.5999H24.5499V3.33325H27.0499V10.5999H36.4499C36.5999 11.3499 36.6666 12.1666 36.6666 13.0166Z" fill="#1B7F6D"/>
<path d="M24.0667 21.2001L20.6 19.2001C19.3167 18.4667 18.0834 18.3667 17.1167 18.9167C16.15 19.4667 15.6167 20.6 15.6167 22.0667V26.0667C15.6167 27.5334 16.15 28.6667 17.1167 29.2167C17.5334 29.4501 18 29.5667 18.4834 29.5667C19.15 29.5667 19.8667 29.3501 20.6 28.9334L24.0667 26.9334C25.35 26.2001 26.05 25.1667 26.05 24.0501C26.05 22.9334 25.3334 21.9501 24.0667 21.2001Z" fill="#1B7F6D"/>
</svg>
