<svg width="40" height="40" viewBox="0 0 40 40" fill="none" xmlns="http://www.w3.org/2000/svg">
<path opacity="0.4" d="M16.6 3.51668L7.43333 6.95001C5.68333 7.61668 4.25 9.68335 4.25 11.5667V25.0667C4.25 26.4167 5.13333 28.2 6.21667 29L15.3833 35.85C17 37.0667 19.65 37.0667 21.2667 35.85L30.4333 29C31.5167 28.1833 32.4 26.4167 32.4 25.0667V11.5667C32.4 9.70001 30.9667 7.61668 29.2167 6.96668L20.05 3.53335C19.1167 3.16668 17.55 3.16668 16.6 3.51668Z" fill="#1B7F6D"/>
<path d="M26.6667 19.1833C22.5334 19.1833 19.1667 22.55 19.1667 26.6834C19.1667 30.8167 22.5334 34.1834 26.6667 34.1834C30.8001 34.1834 34.1667 30.8167 34.1667 26.6834C34.1667 22.5333 30.8001 19.1833 26.6667 19.1833Z" fill="#1B7F6D"/>
<path d="M34.9999 36.6667C34.5499 36.6667 34.1333 36.4834 33.8166 36.1834C33.7499 36.1 33.6666 36.0167 33.6166 35.9167C33.5499 35.8334 33.4999 35.7334 33.4666 35.6334C33.4166 35.5334 33.3833 35.4334 33.3666 35.3334C33.3499 35.2167 33.3333 35.1167 33.3333 35C33.3333 34.7834 33.3833 34.5667 33.4666 34.3667C33.5499 34.15 33.6666 33.9834 33.8166 33.8167C34.1999 33.4334 34.7833 33.25 35.3166 33.3667C35.4333 33.3834 35.5333 33.4167 35.6333 33.4667C35.7333 33.5 35.8333 33.55 35.9166 33.6167C36.0166 33.6667 36.0999 33.75 36.1833 33.8167C36.3333 33.9834 36.4499 34.15 36.5333 34.3667C36.6166 34.5667 36.6666 34.7834 36.6666 35C36.6666 35.4334 36.4833 35.8667 36.1833 36.1834C36.0999 36.25 36.0166 36.3167 35.9166 36.3834C35.8333 36.45 35.7333 36.5 35.6333 36.5334C35.5333 36.5834 35.4333 36.6167 35.3166 36.6334C35.2166 36.65 35.0999 36.6667 34.9999 36.6667Z" fill="#1B7F6D"/>
</svg>
