<svg width="40" height="40" viewBox="0 0 40 40" fill="none" xmlns="http://www.w3.org/2000/svg">
<path d="M36.6669 9.51666V25.4833C36.6669 30.0833 32.9335 33.8167 28.3335 33.8167H11.6669C10.9002 33.8167 10.1669 33.7167 9.4502 33.5167C8.41687 33.2333 8.08353 31.9167 8.8502 31.15L26.5669 13.4333C26.9335 13.0667 27.4835 12.9833 28.0002 13.0833C28.5335 13.1833 29.1169 13.0333 29.5335 12.6333L33.8169 8.33333C35.3835 6.76666 36.6669 7.28333 36.6669 9.51666Z" fill="#1B7F6D"/>
<path opacity="0.4" d="M24.3997 12.2667L6.94967 29.7167C6.14967 30.5167 4.81634 30.3167 4.28301 29.3167C3.66634 28.1833 3.33301 26.8667 3.33301 25.4833V9.51667C3.33301 7.28334 4.61634 6.76667 6.18301 8.33334L10.483 12.65C11.133 13.2833 12.1997 13.2833 12.8497 12.65L18.8163 6.66667C19.4663 6.01667 20.533 6.01667 21.183 6.66667L24.4163 9.9C25.0497 10.55 25.0497 11.6167 24.3997 12.2667Z" fill="#1B7F6D"/>
</svg>
