<svg width="40" height="40" viewBox="0 0 40 40" fill="none" xmlns="http://www.w3.org/2000/svg">
<path opacity="0.4" d="M17.9168 4.08334C19.0668 3.10001 20.9501 3.10001 22.1168 4.08334L24.7501 6.35001C25.2501 6.78334 26.1835 7.13334 26.8501 7.13334H29.6835C31.4501 7.13334 32.9001 8.58334 32.9001 10.35V13.1833C32.9001 13.8333 33.2501 14.7833 33.6835 15.2833L35.9501 17.9167C36.9335 19.0667 36.9335 20.95 35.9501 22.1167L33.6835 24.75C33.2501 25.25 32.9001 26.1833 32.9001 26.85V29.6833C32.9001 31.45 31.4501 32.9 29.6835 32.9H26.8501C26.2001 32.9 25.2501 33.25 24.7501 33.6833L22.1168 35.95C20.9668 36.9333 19.0835 36.9333 17.9168 35.95L15.2835 33.6833C14.7835 33.25 13.8501 32.9 13.1835 32.9H10.3001C8.53346 32.9 7.08346 31.45 7.08346 29.6833V26.8333C7.08346 26.1833 6.73346 25.25 6.3168 24.75L4.0668 22.1C3.10013 20.95 3.10013 19.0833 4.0668 17.9333L6.3168 15.2833C6.73346 14.7833 7.08346 13.85 7.08346 13.2V10.3333C7.08346 8.56667 8.53346 7.11667 10.3001 7.11667H13.1835C13.8335 7.11667 14.7835 6.76667 15.2835 6.33334L17.9168 4.08334Z" fill="#1B7F6D"/>
<path d="M17.9833 25.2833C17.6499 25.2833 17.3333 25.15 17.0999 24.9167L13.0666 20.8833C12.5833 20.4 12.5833 19.6 13.0666 19.1167C13.5499 18.6333 14.3499 18.6333 14.8333 19.1167L17.9833 22.2667L25.1499 15.1C25.6333 14.6167 26.4333 14.6167 26.9166 15.1C27.3999 15.5833 27.3999 16.3833 26.9166 16.8667L18.8666 24.9167C18.6333 25.15 18.3166 25.2833 17.9833 25.2833Z" fill="#1B7F6D"/>
</svg>
