<svg width="38" height="38" viewBox="0 0 38 38" fill="none" xmlns="http://www.w3.org/2000/svg">
<path opacity="0.4" d="M28.5 29.8617H27.2967C26.03 29.8617 24.8267 30.3526 23.94 31.2392L21.2325 33.9151C19.9975 35.1342 17.9867 35.1342 16.7517 33.9151L14.0442 31.2392C13.1575 30.3526 11.9383 29.8617 10.6875 29.8617H9.5C6.87167 29.8617 4.75 27.756 4.75 25.1593V7.88507C4.75 5.2884 6.87167 3.18262 9.5 3.18262H28.5C31.1283 3.18262 33.25 5.2884 33.25 7.88507V25.1593C33.25 27.7401 31.1283 29.8617 28.5 29.8617Z" fill="#1B7F6D"/>
<path d="M26.2524 15.1524C25.9516 14.7249 25.4449 14.4874 24.8433 14.4874H21.7558C21.5499 14.4874 21.3599 14.4082 21.2333 14.2499C21.1066 14.0916 21.0432 13.8857 21.0749 13.6641L21.4549 11.1941C21.6133 10.4657 21.1224 9.62656 20.3941 9.38906C19.7133 9.13572 18.9058 9.48403 18.5891 9.95903L15.5174 14.519V13.9491C15.5174 12.8407 15.0424 12.3816 13.8707 12.3816H13.0949C11.9233 12.3816 11.4482 12.8407 11.4482 13.9491V21.5174C11.4482 22.6258 11.9233 23.0849 13.0949 23.0849H13.8707C14.9791 23.0849 15.4541 22.6574 15.5016 21.644L17.8291 23.4332C18.1457 23.7499 18.8582 23.924 19.3649 23.924H22.2941C23.3074 23.924 24.3208 23.164 24.5424 22.2299L26.3949 16.5932C26.6007 16.0865 26.5533 15.5641 26.2524 15.1524Z" fill="#1B7F6D"/>
</svg>
