<svg width="40" height="42" viewBox="0 0 40 42" fill="none" xmlns="http://www.w3.org/2000/svg">
<path opacity="0.4" d="M14.8002 7.96146C13.4669 1.973 4.78354 1.95569 3.4502 7.96146C2.66687 11.4749 4.81687 14.4518 6.68354 16.3038C8.05021 17.6365 10.2002 17.6365 11.5669 16.3038C13.4335 14.4518 15.5669 11.4749 14.8002 7.96146ZM9.18354 10.7307C8.26687 10.7307 7.51687 9.95185 7.51687 8.99992C7.51687 8.048 8.2502 7.26915 9.16687 7.26915H9.18354C10.1169 7.26915 10.8502 8.048 10.8502 8.99992C10.8502 9.95185 10.1169 10.7307 9.18354 10.7307Z" fill="#1B7F6D"/>
<path d="M10.8499 9.00006C10.8499 9.95198 10.1166 10.7308 9.18327 10.7308C8.2666 10.7308 7.5166 9.95198 7.5166 9.00006C7.5166 8.04813 8.24993 7.26929 9.1666 7.26929H9.18327C10.1166 7.26929 10.8499 8.04813 10.8499 9.00006Z" fill="#1B7F6D"/>
<path opacity="0.4" d="M36.5167 28.7307C35.1833 22.7423 26.4667 22.725 25.1167 28.7307C24.3333 32.2442 26.4833 35.2211 28.3667 37.0731C29.7333 38.4057 31.9 38.4057 33.2667 37.0731C35.15 35.2211 37.3 32.2442 36.5167 28.7307ZM30.8833 31.5C29.9667 31.5 29.2167 30.7211 29.2167 29.7692C29.2167 28.8173 29.95 28.0384 30.8667 28.0384H30.8833C31.8 28.0384 32.55 28.8173 32.55 29.7692C32.55 30.7211 31.8 31.5 30.8833 31.5Z" fill="#1B7F6D"/>
<path d="M32.5496 29.7692C32.5496 30.7211 31.7996 31.5 30.883 31.5C29.9663 31.5 29.2163 30.7211 29.2163 29.7692C29.2163 28.8173 29.9496 28.0385 30.8663 28.0385H30.883C31.7996 28.0385 32.5496 28.8173 32.5496 29.7692Z" fill="#1B7F6D"/>
<path d="M20.0001 34.1826H15.5334C13.6001 34.1826 11.9167 32.9711 11.2501 31.1019C10.5667 29.2326 11.0667 27.173 12.5167 25.8403L25.8334 13.7423C26.6334 13.0153 26.6501 12.0288 26.4167 11.3538C26.1667 10.6788 25.5334 9.95187 24.4667 9.95187H20.0001C19.3167 9.95187 18.7501 9.36341 18.7501 8.65379C18.7501 7.94417 19.3167 7.35571 20.0001 7.35571H24.4667C26.4001 7.35571 28.0834 8.56725 28.7501 10.4365C29.4334 12.3057 28.9334 14.3653 27.4834 15.698L14.1667 27.7961C13.3667 28.523 13.3501 29.5096 13.5834 30.1846C13.8334 30.8596 14.4667 31.5865 15.5334 31.5865H20.0001C20.6834 31.5865 21.2501 32.1749 21.2501 32.8846C21.2501 33.5942 20.6834 34.1826 20.0001 34.1826Z" fill="#1B7F6D"/>
</svg>
