<svg width="38" height="38" viewBox="0 0 38 38" fill="none" xmlns="http://www.w3.org/2000/svg">
<path opacity="0.4" d="M33.25 36.0208H4.75C4.10083 36.0208 3.5625 35.4824 3.5625 34.8333C3.5625 34.1841 4.10083 33.6458 4.75 33.6458H33.25C33.8992 33.6458 34.4375 34.1841 34.4375 34.8333C34.4375 35.4824 33.8992 36.0208 33.25 36.0208Z" fill="#1B7F6D"/>
<path d="M8.86663 13.2683H6.33333C5.4625 13.2683 4.75 13.9808 4.75 14.8516V28.5C4.75 29.3708 5.4625 30.0833 6.33333 30.0833H8.86663C9.73746 30.0833 10.45 29.3708 10.45 28.5V14.8516C10.45 13.965 9.73746 13.2683 8.86663 13.2683Z" fill="#1B7F6D"/>
<path d="M20.267 8.21753H17.7337C16.8629 8.21753 16.1504 8.93003 16.1504 9.80086V28.5C16.1504 29.3709 16.8629 30.0834 17.7337 30.0834H20.267C21.1379 30.0834 21.8504 29.3709 21.8504 28.5V9.80086C21.8504 8.93003 21.1379 8.21753 20.267 8.21753Z" fill="#1B7F6D"/>
<path d="M31.6674 3.16675H29.1341C28.2633 3.16675 27.5508 3.87925 27.5508 4.75008V28.5001C27.5508 29.3709 28.2633 30.0834 29.1341 30.0834H31.6674C32.5382 30.0834 33.2507 29.3709 33.2507 28.5001V4.75008C33.2507 3.87925 32.5382 3.16675 31.6674 3.16675Z" fill="#1B7F6D"/>
</svg>
