<svg width="40" height="40" viewBox="0 0 40 40" fill="none" xmlns="http://www.w3.org/2000/svg">
<path opacity="0.4" d="M35 11.6667V28.3334C35 33.3334 32.5 36.6667 26.6667 36.6667H13.3333C7.5 36.6667 5 33.3334 5 28.3334V11.6667C5 6.66671 7.5 3.33337 13.3333 3.33337H26.6667C32.5 3.33337 35 6.66671 35 11.6667Z" fill="#1B7F6D"/>
<path d="M25.8332 3.33337V16.4333C25.8332 17.1667 24.9665 17.5334 24.4331 17.0501L20.5665 13.4834C20.2499 13.1834 19.7498 13.1834 19.4331 13.4834L15.5665 17.0501C15.0332 17.5501 14.1665 17.1667 14.1665 16.4333V3.33337H25.8332Z" fill="#1B7F6D"/>
<path d="M29.1668 24.5834H22.0835C21.4002 24.5834 20.8335 24.0167 20.8335 23.3334C20.8335 22.65 21.4002 22.0834 22.0835 22.0834H29.1668C29.8502 22.0834 30.4168 22.65 30.4168 23.3334C30.4168 24.0167 29.8502 24.5834 29.1668 24.5834Z" fill="#1B7F6D"/>
<path d="M29.1667 31.25H15C14.3167 31.25 13.75 30.6833 13.75 30C13.75 29.3167 14.3167 28.75 15 28.75H29.1667C29.85 28.75 30.4167 29.3167 30.4167 30C30.4167 30.6833 29.85 31.25 29.1667 31.25Z" fill="#1B7F6D"/>
</svg>
