<svg width="40" height="40" viewBox="0 0 40 40" fill="none" xmlns="http://www.w3.org/2000/svg">
<path opacity="0.4" d="M34.9499 11.9833V22.2833H3.33325V11.9833C3.33325 8.13333 6.46659 5 10.3166 5H27.9666C31.8166 5 34.9499 8.13333 34.9499 11.9833Z" fill="#1B7F6D"/>
<path d="M3.33325 22.2834V22.6001C3.33325 26.4668 6.46659 29.5834 10.3166 29.5834H16.3166C17.2333 29.5834 17.9833 30.3334 17.9833 31.2501V32.6168C17.9833 33.5334 17.2333 34.2834 16.3166 34.2834H12.5499C11.8999 34.2834 11.3666 34.8168 11.3666 35.4668C11.3666 36.1168 11.8999 36.6501 12.5499 36.6501H25.7666C26.4166 36.6501 26.9499 36.1168 26.9499 35.4668C26.9499 34.8168 26.4166 34.2834 25.7666 34.2834H22.0166C21.0999 34.2834 20.3499 33.5334 20.3499 32.6168V31.2501C20.3499 30.3334 21.0999 29.5834 22.0166 29.5834H27.9666C31.8333 29.5834 34.9499 26.4501 34.9499 22.6001V22.2834H3.33325Z" fill="#1B7F6D"/>
<path d="M36.6501 3.93343L34.7667 5.2501V4.5501C34.7667 2.96677 33.4834 1.7001 31.9167 1.7001H24.7834C23.0667 1.68343 21.6667 3.08343 21.6667 4.8001V10.2668C21.6667 11.7001 22.3834 13.1168 24.5167 13.1168H31.9001C33.4834 13.1168 34.7501 11.8334 34.7501 10.2668V9.5501L36.6334 10.8668C37.5834 11.5168 38.3334 11.1168 38.3334 9.98343V4.81677C38.3334 3.68343 37.5834 3.3001 36.6501 3.93343Z" fill="#1B7F6D"/>
</svg>
