<svg width="38" height="38" viewBox="0 0 38 38" fill="none" xmlns="http://www.w3.org/2000/svg">
<path opacity="0.4" d="M13.7278 22.1667H6.33366C4.59199 22.1667 3.16699 23.5917 3.16699 25.3334V34.8334H13.7278V22.1667Z" fill="#1B7F6D"/>
<path d="M21.1061 15.8333H16.8786C15.1369 15.8333 13.7119 17.2583 13.7119 18.9999V34.8333H24.2727V18.9999C24.2727 17.2583 22.8636 15.8333 21.1061 15.8333Z" fill="#1B7F6D"/>
<path opacity="0.4" d="M31.6666 26.9167H24.2725V34.8334H34.8333V30.0834C34.8333 28.3417 33.4083 26.9167 31.6666 26.9167Z" fill="#1B7F6D"/>
<path d="M23.7652 7.67912C24.256 7.18828 24.446 6.60245 24.2877 6.09578C24.1293 5.58911 23.6385 5.22496 22.9418 5.11412L21.4218 4.86078C21.3585 4.84495 21.216 4.74992 21.1843 4.68659L20.3452 3.00826C19.7118 1.72576 18.271 1.72576 17.6377 3.00826L16.7985 4.68659C16.7668 4.74992 16.6243 4.84495 16.561 4.86078L15.041 5.11412C14.3443 5.22496 13.8693 5.58911 13.6952 6.09578C13.5368 6.60245 13.7268 7.18828 14.2177 7.67912L15.3893 8.86662C15.4368 8.91411 15.5002 9.10412 15.4843 9.16745L15.1518 10.6241C14.8985 11.7008 15.3102 12.1916 15.5793 12.3974C15.8485 12.5874 16.4343 12.8408 17.4002 12.2708L18.8252 11.4316C18.8885 11.3841 19.0943 11.3841 19.1577 11.4316L20.5827 12.2708C21.026 12.5399 21.3902 12.6191 21.6752 12.6191C22.0077 12.6191 22.2452 12.4924 22.3877 12.3974C22.6568 12.2074 23.0685 11.7166 22.8152 10.6241L22.4827 9.16745C22.4668 9.08829 22.5143 8.91411 22.5777 8.86662L23.7652 7.67912Z" fill="#1B7F6D"/>
</svg>
