<svg width="37" height="37" viewBox="0 0 37 37" fill="none" xmlns="http://www.w3.org/2000/svg">
<path opacity="0.4" d="M29.2923 13.8749C29.2923 16.1103 28.6294 18.1608 27.4886 19.872C25.8236 22.3387 23.1873 24.0808 20.1194 24.5278C19.5952 24.6203 19.0557 24.6666 18.5007 24.6666C17.9457 24.6666 17.4061 24.6203 16.8819 24.5278C13.814 24.0808 11.1777 22.3387 9.51273 19.872C8.3719 18.1608 7.70898 16.1103 7.70898 13.8749C7.70898 7.90867 12.5344 3.08325 18.5007 3.08325C24.4669 3.08325 29.2923 7.90867 29.2923 13.8749Z" fill="#1B7F6D"/>
<path d="M32.7596 28.4745L30.2158 29.0758C29.6454 29.2145 29.1983 29.6462 29.075 30.2166L28.5354 32.4829C28.2425 33.7162 26.67 34.0862 25.8529 33.115L18.4992 24.6666L11.1454 33.1304C10.3284 34.1016 8.75585 33.7316 8.46293 32.4983L7.92335 30.232C7.7846 29.6616 7.33752 29.2145 6.78252 29.0912L4.23877 28.49C3.0671 28.2125 2.65085 26.7479 3.49877 25.8999L9.51127 19.8875C11.1763 22.3541 13.8125 24.0962 16.8804 24.5433C17.4046 24.6358 17.9442 24.6821 18.4992 24.6821C19.0542 24.6821 19.5938 24.6358 20.1179 24.5433C23.1859 24.0962 25.8221 22.3541 27.4871 19.8875L33.4996 25.8999C34.3475 26.7324 33.9313 28.197 32.7596 28.4745Z" fill="#1B7F6D"/>
<path d="M19.3945 9.21925L20.3041 11.0384C20.4274 11.2851 20.7512 11.5317 21.0441 11.578L22.6937 11.8555C23.742 12.0251 23.9887 12.7959 23.2333 13.5513L21.9537 14.8309C21.7379 15.0467 21.6145 15.463 21.6916 15.7713L22.0616 17.3592C22.3545 18.608 21.6916 19.1013 20.5816 18.4384L19.0399 17.5288C18.7624 17.3592 18.2999 17.3592 18.0224 17.5288L16.4808 18.4384C15.3708 19.0859 14.7079 18.608 15.0008 17.3592L15.3708 15.7713C15.4324 15.4784 15.3245 15.0467 15.1087 14.8309L13.8291 13.5513C13.0737 12.7959 13.3204 12.0405 14.3687 11.8555L16.0183 11.578C16.2958 11.5317 16.6195 11.2851 16.7429 11.0384L17.6524 9.21925C18.0995 8.23258 18.9012 8.23258 19.3945 9.21925Z" fill="#1B7F6D"/>
</svg>
