<svg width="38" height="38" viewBox="0 0 38 38" fill="none" xmlns="http://www.w3.org/2000/svg">
<path opacity="0.4" d="M25.6345 3.16675H12.3662C6.60283 3.16675 3.16699 6.60258 3.16699 12.3659V25.6184C3.16699 31.3976 6.60283 34.8334 12.3662 34.8334H25.6187C31.382 34.8334 34.8178 31.3976 34.8178 25.6343V12.3659C34.8337 6.60258 31.3978 3.16675 25.6345 3.16675Z" fill="#1B7F6D"/>
<path d="M10.8936 29.9252C10.2444 29.9252 9.70605 29.3869 9.70605 28.7377V25.4602C9.70605 24.811 10.2444 24.2727 10.8936 24.2727C11.5427 24.2727 12.0811 24.811 12.0811 25.4602V28.7377C12.0811 29.4027 11.5427 29.9252 10.8936 29.9252Z" fill="#1B7F6D"/>
<path d="M19 29.9251C18.3508 29.9251 17.8125 29.3867 17.8125 28.7376V22.1667C17.8125 21.5176 18.3508 20.9792 19 20.9792C19.6492 20.9792 20.1875 21.5176 20.1875 22.1667V28.7376C20.1875 29.4026 19.6492 29.9251 19 29.9251Z" fill="#1B7F6D"/>
<path d="M27.1074 29.925C26.4583 29.925 25.9199 29.3867 25.9199 28.7375V18.8892C25.9199 18.24 26.4583 17.7017 27.1074 17.7017C27.7566 17.7017 28.2949 18.24 28.2949 18.8892V28.7375C28.2949 29.4025 27.7724 29.925 27.1074 29.925Z" fill="#1B7F6D"/>
<path d="M28.2947 9.2152C28.2947 9.13603 28.263 9.04103 28.2472 8.96186C28.2314 8.89853 28.2155 8.81936 28.1997 8.75603C28.168 8.6927 28.1205 8.6452 28.0889 8.58186C28.0414 8.51853 27.9939 8.43936 27.9305 8.39186C27.9147 8.37603 27.9147 8.3602 27.8989 8.3602C27.8514 8.32853 27.8039 8.3127 27.7564 8.28103C27.693 8.23353 27.6139 8.18603 27.5347 8.15436C27.4555 8.1227 27.3764 8.1227 27.2972 8.10686C27.2339 8.09103 27.1864 8.0752 27.123 8.0752H22.4839C21.8347 8.0752 21.2964 8.61353 21.2964 9.2627C21.2964 9.91186 21.8347 10.4502 22.4839 10.4502H24.463C20.6947 14.4085 15.9447 17.1952 10.6089 18.541C9.97554 18.6994 9.57971 19.3485 9.73804 19.9819C9.86471 20.5202 10.3555 20.8844 10.8939 20.8844C10.9889 20.8844 11.0839 20.8685 11.1789 20.8527C16.8314 19.4435 21.8822 16.5144 25.9197 12.366V13.9019C25.9197 14.551 26.458 15.0894 27.1072 15.0894C27.7564 15.0894 28.2947 14.551 28.2947 13.9019V9.2627C28.2947 9.24686 28.2947 9.23103 28.2947 9.2152Z" fill="#1B7F6D"/>
</svg>
