<svg width="38" height="38" viewBox="0 0 38 38" fill="none" xmlns="http://www.w3.org/2000/svg">
<path opacity="0.4" d="M17.3536 3.26183L8.64526 6.5235C6.98276 7.15683 5.62109 9.12017 5.62109 10.9093V23.7343C5.62109 25.0168 6.46026 26.711 7.48943 27.471L16.1978 33.9785C17.7336 35.1343 20.2511 35.1343 21.7869 33.9785L30.4953 27.471C31.5244 26.6952 32.3636 25.0168 32.3636 23.7343V10.9093C32.3636 9.136 31.0019 7.15683 29.3394 6.53933L20.6311 3.27767C19.7444 2.92933 18.2561 2.92933 17.3536 3.26183Z" fill="#1B7F6D"/>
<path d="M16.8792 22.5309C16.5784 22.5309 16.2775 22.4201 16.04 22.1826L13.4909 19.6334C13.0317 19.1743 13.0317 18.4143 13.4909 17.9551C13.95 17.4959 14.71 17.4959 15.1692 17.9551L16.8792 19.6651L22.8484 13.6959C23.3075 13.2368 24.0675 13.2368 24.5267 13.6959C24.9859 14.1551 24.9859 14.9151 24.5267 15.3743L17.7184 22.1826C17.4809 22.4201 17.18 22.5309 16.8792 22.5309Z" fill="#1B7F6D"/>
</svg>
