<svg width="40" height="40" viewBox="0 0 40 40" fill="none" xmlns="http://www.w3.org/2000/svg">
<path opacity="0.4" d="M27.0667 6.08337H12.9334C8.81673 6.08337 5.4834 9.43337 5.4834 13.5334V29.2167C5.4834 33.3167 8.8334 36.6667 12.9334 36.6667H27.0501C31.1667 36.6667 34.5001 33.3167 34.5001 29.2167V13.5334C34.5167 9.41671 31.1667 6.08337 27.0667 6.08337Z" fill="#1B7F6D"/>
<path d="M23.9164 3.33337H16.0831C14.3498 3.33337 12.9331 4.73337 12.9331 6.46671V8.03337C12.9331 9.76671 14.3331 11.1667 16.0664 11.1667H23.9164C25.6498 11.1667 27.0498 9.76671 27.0498 8.03337V6.46671C27.0664 4.73337 25.6498 3.33337 23.9164 3.33337Z" fill="#1B7F6D"/>
<path d="M18.0168 28.25C17.7002 28.25 17.3835 28.1334 17.1335 27.8834L14.6335 25.3834C14.1502 24.9 14.1502 24.1 14.6335 23.6167C15.1168 23.1334 15.9168 23.1334 16.4002 23.6167L18.0168 25.2334L23.8002 19.45C24.2835 18.9667 25.0835 18.9667 25.5668 19.45C26.0502 19.9334 26.0502 20.7334 25.5668 21.2167L18.9002 27.8834C18.6668 28.1334 18.3335 28.25 18.0168 28.25Z" fill="#1B7F6D"/>
</svg>
