<svg width="40" height="40" viewBox="0 0 40 40" fill="none" xmlns="http://www.w3.org/2000/svg">
<path opacity="0.4" d="M33.1335 34.9001C31.5502 36.0668 29.4668 36.6668 26.9835 36.6668H13.0168C12.6168 36.6668 12.2168 36.6501 11.8335 36.6001L23.3335 25.1001L33.1335 34.9001Z" fill="#1B7F6D"/>
<path opacity="0.4" d="M36.6668 13.0167V26.9834C36.6668 29.4667 36.0668 31.55 34.9001 33.1334L25.1001 23.3334L36.6001 11.8334C36.6501 12.2167 36.6668 12.6167 36.6668 13.0167Z" fill="#1B7F6D"/>
<path opacity="0.4" d="M25.0999 23.3334L34.8999 33.1334C34.4166 33.8334 33.8333 34.4167 33.1333 34.9L23.3333 25.1L11.8333 36.6C10.7666 36.5334 9.79993 36.3167 8.9166 35.9834C5.34993 34.6834 3.33325 31.5167 3.33325 26.9834V13.0167C3.33325 6.95004 6.94991 3.33337 13.0166 3.33337H26.9833C31.5166 3.33337 34.6832 5.35004 35.9832 8.9167C36.3166 9.80004 36.5332 10.7667 36.5999 11.8334L25.0999 23.3334Z" fill="#1B7F6D"/>
<path d="M25.1001 23.3333L34.9001 33.1333C34.4167 33.8333 33.8334 34.4166 33.1334 34.9L23.3334 25.1L11.8334 36.6C10.7667 36.5333 9.80008 36.3166 8.91675 35.9833L9.56672 35.3333L35.9834 8.91663C36.3167 9.79996 36.5334 10.7666 36.6001 11.8333L25.1001 23.3333Z" fill="#1B7F6D"/>
<path d="M20.3999 13.2167C19.7666 10.4667 17.3333 9.23334 15.1999 9.21667C13.0666 9.21667 10.6333 10.45 9.99993 13.2C9.29993 16.25 11.1666 18.8 12.8499 20.4C13.5166 21.0333 14.3499 21.3333 15.1999 21.3333C16.0499 21.3333 16.8833 21.0167 17.5499 20.4C19.2333 18.8 21.0999 16.25 20.3999 13.2167ZM15.2499 15.8167C14.3333 15.8167 13.5833 15.0667 13.5833 14.15C13.5833 13.2333 14.3166 12.4833 15.2499 12.4833H15.2666C16.1833 12.4833 16.9333 13.2333 16.9333 14.15C16.9333 15.0667 16.1666 15.8167 15.2499 15.8167Z" fill="#1B7F6D"/>
</svg>
