<svg width="38" height="38" viewBox="0 0 38 38" fill="none" xmlns="http://www.w3.org/2000/svg">
<path opacity="0.4" d="M25.6335 3.16675H12.3652C6.60185 3.16675 3.16602 6.60258 3.16602 12.3659V25.6184C3.16602 31.3976 6.60185 34.8334 12.3652 34.8334H25.6177C31.381 34.8334 34.8168 31.3976 34.8168 25.6343V12.3659C34.8327 6.60258 31.3969 3.16675 25.6335 3.16675Z" fill="#1B7F6D"/>
<path d="M24.668 30.4792C24.0188 30.4792 23.4805 29.9409 23.4805 29.2917V23.1167C23.4805 22.4675 24.0188 21.9292 24.668 21.9292C25.3171 21.9292 25.8555 22.4675 25.8555 23.1167V29.2917C25.8555 29.9409 25.3171 30.4792 24.668 30.4792Z" fill="#1B7F6D"/>
<path d="M24.668 12.9833C24.0188 12.9833 23.4805 12.4449 23.4805 11.7958V8.70825C23.4805 8.05909 24.0188 7.52075 24.668 7.52075C25.3171 7.52075 25.8555 8.05909 25.8555 8.70825V11.7958C25.8555 12.4449 25.3171 12.9833 24.668 12.9833Z" fill="#1B7F6D"/>
<path d="M13.332 30.4791C12.6829 30.4791 12.1445 29.9408 12.1445 29.2916V26.2041C12.1445 25.5549 12.6829 25.0166 13.332 25.0166C13.9812 25.0166 14.5195 25.5549 14.5195 26.2041V29.2916C14.5195 29.9408 13.997 30.4791 13.332 30.4791Z" fill="#1B7F6D"/>
<path d="M13.332 16.0708C12.6829 16.0708 12.1445 15.5324 12.1445 14.8833V8.70825C12.1445 8.05909 12.6829 7.52075 13.332 7.52075C13.9812 7.52075 14.5195 8.05909 14.5195 8.70825V14.8833C14.5195 15.5324 13.997 16.0708 13.332 16.0708Z" fill="#1B7F6D"/>
<path d="M24.6682 11.606C22.2932 11.606 20.3457 13.5376 20.3457 15.9126C20.3457 18.2876 22.2774 20.2351 24.6682 20.2351C27.0432 20.2351 28.9749 18.3035 28.9749 15.9126C28.9749 13.5218 27.0432 11.606 24.6682 11.606Z" fill="#1B7F6D"/>
<path d="M13.3321 17.7808C10.9571 17.7808 9.02539 19.7124 9.02539 22.1033C9.02539 24.4941 10.9571 26.4099 13.3321 26.4099C15.7071 26.4099 17.6546 24.4783 17.6546 22.1033C17.6546 19.7283 15.7229 17.7808 13.3321 17.7808Z" fill="#1B7F6D"/>
</svg>
