<svg width="40" height="40" viewBox="0 0 40 40" fill="none" xmlns="http://www.w3.org/2000/svg">
<path opacity="0.4" d="M36.6654 16.6666V28.3333C36.6654 33.3333 33.332 36.6666 28.332 36.6666H11.6654C6.66536 36.6666 3.33203 33.3333 3.33203 28.3333V16.6666C3.33203 12.0999 6.11536 8.91657 10.4154 8.41656C10.8154 8.3499 11.232 8.33325 11.6654 8.33325H28.332C33.332 8.33325 36.6654 11.6666 36.6654 16.6666Z" fill="#1B7F6D"/>
<path d="M12.918 3.33325V8.33325H11.668C11.2346 8.33325 10.818 8.3499 10.418 8.41656V3.33325C10.418 2.64992 10.9846 2.08325 11.668 2.08325C12.3513 2.08325 12.918 2.64992 12.918 3.33325Z" fill="#1B7F6D"/>
<path d="M13.1315 26.6668C15.4327 26.6668 17.2982 24.8013 17.2982 22.5002C17.2982 20.199 15.4327 18.3335 13.1315 18.3335C10.8303 18.3335 8.96484 20.199 8.96484 22.5002C8.96484 24.8013 10.8303 26.6668 13.1315 26.6668Z" fill="#1B7F6D"/>
<path d="M29.7995 20.4167H23.1328C22.4495 20.4167 21.8828 19.8501 21.8828 19.1667C21.8828 18.4834 22.4495 17.9167 23.1328 17.9167H29.7995C30.4828 17.9167 31.0495 18.4834 31.0495 19.1667C31.0495 19.8501 30.4828 20.4167 29.7995 20.4167Z" fill="#1B7F6D"/>
<path d="M23.9661 27.0835H23.1328C22.4495 27.0835 21.8828 26.5168 21.8828 25.8335C21.8828 25.1502 22.4495 24.5835 23.1328 24.5835H23.9661C24.6495 24.5835 25.2161 25.1502 25.2161 25.8335C25.2161 26.5168 24.6495 27.0835 23.9661 27.0835Z" fill="#1B7F6D"/>
<path d="M29.7982 27.0835H28.9648C28.2815 27.0835 27.7148 26.5168 27.7148 25.8335C27.7148 25.1502 28.2815 24.5835 28.9648 24.5835H29.7982C30.4815 24.5835 31.0482 25.1502 31.0482 25.8335C31.0482 26.5168 30.4815 27.0835 29.7982 27.0835Z" fill="#1B7F6D"/>
</svg>
