<svg width="38" height="38" viewBox="0 0 38 38" fill="none" xmlns="http://www.w3.org/2000/svg">
<path d="M8.1543 34.8334C7.50513 34.8334 6.9668 34.2951 6.9668 33.6459V4.35425C6.9668 3.70508 7.50513 3.16675 8.1543 3.16675C8.80346 3.16675 9.3418 3.70508 9.3418 4.35425V33.6459C9.3418 34.2951 8.80346 34.8334 8.1543 34.8334Z" fill="#1B7F6D"/>
<path opacity="0.4" d="M28.5319 19.5225L26.6002 17.5908C26.1411 17.195 25.8719 16.6092 25.8561 15.96C25.8244 15.2475 26.1094 14.535 26.6319 14.0125L28.5319 12.1125C30.1786 10.4658 30.7961 8.88249 30.2736 7.63165C29.7669 6.39665 28.1994 5.71582 25.8877 5.71582H8.1544C7.8219 5.73165 7.55273 6.00082 7.55273 6.33332V25.3333C7.55273 25.6658 7.8219 25.935 8.1544 25.935H25.8877C28.1677 25.935 29.7036 25.2383 30.2261 23.9875C30.7486 22.7208 30.1469 21.1533 28.5319 19.5225Z" fill="#1B7F6D"/>
</svg>
