<svg width="40" height="40" viewBox="0 0 40 40" fill="none" xmlns="http://www.w3.org/2000/svg">
<path opacity="0.4" d="M35.8332 13.9499V26.3666C35.8332 26.6166 35.7498 26.8666 35.5332 27.0833C33.1165 29.5166 28.8165 33.8499 26.3498 36.3333C26.1332 36.5666 25.8498 36.6666 25.5665 36.6666H12.2832C7.79984 36.6666 4.1665 33.0333 4.1665 28.5499V13.9499C4.1665 9.46659 7.79984 5.83325 12.2832 5.83325H27.7165C32.1998 5.83325 35.8332 9.46659 35.8332 13.9499Z" fill="#1B7F6D"/>
<path d="M13.8169 10.4833C13.1169 10.4833 12.5669 9.91658 12.5669 9.23325V4.58325C12.5669 3.89992 13.1169 3.33325 13.8169 3.33325C14.5169 3.33325 15.0669 3.89992 15.0669 4.58325V9.21659C15.0669 9.91658 14.5169 10.4833 13.8169 10.4833Z" fill="#1B7F6D"/>
<path d="M26.1831 10.4833C25.4831 10.4833 24.9331 9.91658 24.9331 9.23325V4.58325C24.9331 3.88325 25.4998 3.33325 26.1831 3.33325C26.8831 3.33325 27.4331 3.89992 27.4331 4.58325V9.21659C27.4331 9.91658 26.8831 10.4833 26.1831 10.4833Z" fill="#1B7F6D"/>
<path d="M24.6333 21.1833H12.2666C11.5666 21.1833 11.0166 20.6167 11.0166 19.9333C11.0166 19.25 11.5833 18.6833 12.2666 18.6833H24.6333C25.3333 18.6833 25.8833 19.25 25.8833 19.9333C25.8833 20.6167 25.3333 21.1833 24.6333 21.1833Z" fill="#1B7F6D"/>
<path d="M19.9999 27.3667H12.2666C11.5666 27.3667 11.0166 26.8 11.0166 26.1167C11.0166 25.4167 11.5833 24.8667 12.2666 24.8667H19.9999C20.6999 24.8667 21.2499 25.4334 21.2499 26.1167C21.2499 26.8 20.6999 27.3667 19.9999 27.3667Z" fill="#1B7F6D"/>
<path d="M35.8334 26.3667C35.8334 26.6167 35.7501 26.8667 35.5334 27.0834C33.1167 29.5167 28.8167 33.85 26.3501 36.3334C26.1334 36.5667 25.8501 36.6667 25.5667 36.6667C25.0167 36.6667 24.4834 36.2334 24.4834 35.6001V29.7667C24.4834 27.3334 26.5501 25.3167 29.0834 25.3167C30.6667 25.3 32.8667 25.3 34.7501 25.3C35.4001 25.3 35.8334 25.8167 35.8334 26.3667Z" fill="#1B7F6D"/>
</svg>
