<svg width="38" height="38" viewBox="0 0 38 38" fill="none" xmlns="http://www.w3.org/2000/svg">
<path opacity="0.4" d="M34.8327 22.1667V26.9167C34.8327 29.5451 32.711 31.6667 30.0827 31.6667H28.4994C28.4994 29.9251 27.0744 28.5001 25.3327 28.5001C23.591 28.5001 22.166 29.9251 22.166 31.6667H15.8327C15.8327 29.9251 14.4077 28.5001 12.666 28.5001C10.9243 28.5001 9.49935 29.9251 9.49935 31.6667H7.91602C5.28768 31.6667 3.16602 29.5451 3.16602 26.9167V22.1667H20.5827C22.3244 22.1667 23.7494 20.7417 23.7494 19.0001V7.91675H26.6627C27.8027 7.91675 28.8477 8.53426 29.4177 9.51593L32.1252 14.2501H30.0827C29.2119 14.2501 28.4994 14.9626 28.4994 15.8334V20.5834C28.4994 21.4542 29.2119 22.1667 30.0827 22.1667H34.8327Z" fill="#1B7F6D"/>
<path d="M12.6667 34.8333C14.4156 34.8333 15.8333 33.4156 15.8333 31.6667C15.8333 29.9178 14.4156 28.5 12.6667 28.5C10.9178 28.5 9.5 29.9178 9.5 31.6667C9.5 33.4156 10.9178 34.8333 12.6667 34.8333Z" fill="#1B7F6D"/>
<path d="M25.3327 34.8333C27.0816 34.8333 28.4993 33.4156 28.4993 31.6667C28.4993 29.9178 27.0816 28.5 25.3327 28.5C23.5838 28.5 22.166 29.9178 22.166 31.6667C22.166 33.4156 23.5838 34.8333 25.3327 34.8333Z" fill="#1B7F6D"/>
<path d="M34.8333 19.8392V22.1667H30.0833C29.2125 22.1667 28.5 21.4542 28.5 20.5833V15.8333C28.5 14.9625 29.2125 14.25 30.0833 14.25H32.1258L34.4217 18.2716C34.6908 18.7466 34.8333 19.285 34.8333 19.8392Z" fill="#1B7F6D"/>
<path d="M22.168 3.16675H9.5013C6.4138 3.16675 3.84883 5.38341 3.29466 8.31258H11.0846C11.7338 8.31258 12.2721 8.85091 12.2721 9.50008C12.2721 10.1492 11.7338 10.6876 11.0846 10.6876H3.16797V13.0626H7.91797C8.56714 13.0626 9.10547 13.6009 9.10547 14.2501C9.10547 14.8992 8.56714 15.4376 7.91797 15.4376H3.16797V17.8126H4.7513C5.40047 17.8126 5.9388 18.3509 5.9388 19.0001C5.9388 19.6492 5.40047 20.1876 4.7513 20.1876H3.16797V22.1667H20.5846C22.3263 22.1667 23.7513 20.7417 23.7513 19.0001V4.75008C23.7513 3.87925 23.0388 3.16675 22.168 3.16675Z" fill="#1B7F6D"/>
<path d="M3.29401 8.3125H1.58398C0.934818 8.3125 0.396484 8.85083 0.396484 9.5C0.396484 10.1492 0.934818 10.6875 1.58398 10.6875H3.16732V9.5C3.16732 9.08833 3.21484 8.6925 3.29401 8.3125Z" fill="#1B7F6D"/>
<path d="M1.58398 13.0625C0.934818 13.0625 0.396484 13.6008 0.396484 14.25C0.396484 14.8992 0.934818 15.4375 1.58398 15.4375H3.16732V13.0625H1.58398Z" fill="#1B7F6D"/>
<path d="M1.58398 17.8125C0.934818 17.8125 0.396484 18.3508 0.396484 19C0.396484 19.6492 0.934818 20.1875 1.58398 20.1875H3.16732V17.8125H1.58398Z" fill="#1B7F6D"/>
</svg>
