<svg width="71" height="27" viewBox="0 0 71 27" fill="none" xmlns="http://www.w3.org/2000/svg">
<path d="M63 3.99465C63 3.27451 63.1746 2.60606 63.5239 1.9893C63.877 1.37255 64.3634 0.887701 64.9831 0.534759C65.6066 0.178253 66.2789 0 67 0C67.7211 0 68.3915 0.178253 69.0113 0.534759C69.6347 0.887701 70.1211 1.37255 70.4704 1.9893C70.8235 2.60606 71 3.27451 71 3.99465C71 4.72193 70.8216 5.39572 70.4648 6.01604C70.108 6.6328 69.6197 7.11765 69 7.47059C68.384 7.82353 67.7174 8 67 8C66.2751 8 65.6028 7.82175 64.9831 7.46524C64.3671 7.10873 63.8826 6.6221 63.5296 6.00535C63.1765 5.38859 63 4.71836 63 3.99465ZM70.307 3.99465C70.307 3.40285 70.1662 2.85383 69.8845 2.34759C69.6028 1.83779 69.2047 1.43137 68.6901 1.12834C68.1756 0.821747 67.6122 0.668449 67 0.668449C66.4028 0.668449 65.8469 0.814617 65.3324 1.10695C64.8216 1.39929 64.4197 1.80214 64.1268 2.31551C63.8338 2.82888 63.6873 3.38859 63.6873 3.99465C63.6873 4.60071 63.8319 5.16043 64.1211 5.6738C64.4141 6.18717 64.816 6.59358 65.3268 6.89305C65.8413 7.18895 66.3991 7.3369 67 7.3369C67.6009 7.3369 68.1587 7.18538 68.6732 6.88235C69.1915 6.57932 69.5934 6.17112 69.8789 5.65775C70.1643 5.14438 70.307 4.59002 70.307 3.99465ZM66.1887 4.40107V6.20321H65.338V1.65775H66.9211C67.4883 1.65775 67.9352 1.78075 68.262 2.02674C68.5887 2.26916 68.7521 2.61497 68.7521 3.06417C68.7521 3.46346 68.5399 3.77362 68.1155 3.99465C68.3446 4.10517 68.5042 4.26025 68.5944 4.45989C68.6883 4.65597 68.7352 4.90018 68.7352 5.19251C68.7352 5.48485 68.7408 5.69162 68.7521 5.81283C68.7671 5.93405 68.7934 6.03565 68.831 6.11765V6.20321H67.9577C67.9089 6.082 67.8845 5.73619 67.8845 5.16578C67.8845 4.89483 67.8225 4.70053 67.6986 4.58289C67.5746 4.46168 67.3681 4.40107 67.0789 4.40107H66.1887ZM66.1887 3.68449H66.9549C67.2329 3.68449 67.4601 3.62745 67.6366 3.51337C67.8169 3.39929 67.907 3.24955 67.907 3.06417C67.907 2.81462 67.8394 2.63815 67.7042 2.53476C67.5728 2.42781 67.3324 2.37255 66.9831 2.36898H66.1887V3.68449Z" fill="white"/>
<path d="M30.6942 1.27877C29.4851 1.58836 28.8081 1.93053 28.131 2.51711C26.9542 3.55993 26.261 5.28709 26.261 7.19348V8.22H25.1326H24.0042V10.2567V12.2935H25.1326H26.261V19.3814V26.4692H29.0821H31.9032V19.3814V12.3098L34.0472 12.2609L36.1751 12.212L36.2235 10.2079L36.2719 8.22H33.9828H31.7098L31.7742 7.32383C31.9354 5.28709 33.1606 4.83086 36.7877 5.38485L37.3842 5.48262V3.44587C37.3842 1.99571 37.3197 1.36024 37.1907 1.27877C36.82 1.03436 31.5647 1.03436 30.6942 1.27877Z" fill="white"/>
<path d="M39.6411 3.4136V5.61328H42.6234H45.6057V3.4136V1.21391H42.6234H39.6411V3.4136Z" fill="white"/>
<path d="M0.0490147 2.40321C0.000653176 2.53356 -0.0154673 6.55817 0.0167737 11.3323C0.0651353 19.186 0.113497 20.1147 0.371425 20.9294C0.855041 22.4448 1.59658 23.6668 2.57994 24.5793C3.66001 25.5895 4.80457 26.1761 6.56171 26.6486C8.206 27.0886 11.6074 27.1211 13.3646 26.7138C16.9756 25.8828 19.1841 23.6994 19.8773 20.2451C20.0868 19.2023 20.1352 17.6055 20.1352 10.5828V2.19139L17.1206 2.22398L14.09 2.27286L14.0094 10.9087C13.9288 19.2186 13.9127 19.577 13.5903 20.2777C13.1228 21.2879 12.2845 22.0048 11.2689 22.2167C9.04427 22.7055 7.31937 21.9886 6.52946 20.2777C6.20705 19.577 6.19093 19.2186 6.11033 10.9087L6.02973 2.27286L3.07967 2.22398C0.693835 2.19139 0.129617 2.22398 0.0490147 2.40321Z" fill="#1B7F6D"/>
<path d="M58.2603 7.943C57.3253 8.26888 56.2936 8.82288 55.3264 9.55611L54.472 10.1916V9.19764V8.22H51.6509H48.8298V17.3446V26.4692H51.6509H54.472L54.5043 19.9842L54.5526 13.5155L55.4392 13.043C56.1486 12.652 56.5193 12.5542 57.3737 12.5542C58.7278 12.5542 59.3404 12.8638 59.7273 13.7925C59.9852 14.4117 60.0175 15.1449 60.082 20.4731L60.1464 26.4692H62.9514H65.7725L65.7241 19.251C65.6758 12.1631 65.6758 12.0328 65.305 11.1203C64.8053 9.86569 63.7252 8.69253 62.6612 8.22C61.6134 7.74748 59.2759 7.61712 58.2603 7.943Z" fill="white"/>
<path d="M39.8022 17.3446V26.4692H42.6233H45.4444V17.3446V8.22H42.6233H39.8022V17.3446Z" fill="white"/>
</svg>
