<svg width="24" height="24" viewBox="0 0 24 24" fill="none" xmlns="http://www.w3.org/2000/svg">
<path d="M22 11.89V12.78C22 16.34 21.11 17.22 17.56 17.22H6.44C2.89 17.22 2 16.33 2 12.78V6.44C2 2.89 2.89 2 6.44 2H8" stroke="#1C2024" stroke-width="1.5" stroke-linecap="round" stroke-linejoin="round"/>
<path d="M12 17.2202V22.0002" stroke="#1C2024" stroke-width="1.5" stroke-linecap="round" stroke-linejoin="round"/>
<path d="M2 13H22" stroke="#1C2024" stroke-width="1.5" stroke-linecap="round" stroke-linejoin="round"/>
<path d="M7.5 22H16.5" stroke="#1C2024" stroke-width="1.5" stroke-linecap="round" stroke-linejoin="round"/>
<path d="M17.86 9.36977H13.1C11.72 9.36977 11.26 8.44977 11.26 7.52977V4.00977C11.26 2.90977 12.16 2.00977 13.26 2.00977H17.86C18.88 2.00977 19.7 2.82977 19.7 3.84977V7.52977C19.7 8.54977 18.88 9.36977 17.86 9.36977Z" stroke="#1C2024" stroke-width="1.5" stroke-linecap="round" stroke-linejoin="round"/>
<path d="M20.91 7.91998L19.7 7.06998V4.30998L20.91 3.45998C21.51 3.04998 22 3.29998 22 4.02998V7.35998C22 8.08998 21.51 8.33998 20.91 7.91998Z" stroke="#1C2024" stroke-width="1.5" stroke-linecap="round" stroke-linejoin="round"/>
</svg>
