<svg width="22" height="22" viewBox="0 0 22 22" fill="none" xmlns="http://www.w3.org/2000/svg">
<path d="M16.1876 4.27955L15.4877 4.54907C15.5966 4.83191 15.8651 5.02139 16.1681 5.0293L16.1876 4.27955ZM18.324 13.0211L18.007 12.3413C17.7389 12.4663 17.5693 12.7373 17.574 13.033L18.324 13.0211ZM17.4953 20.1677L16.9572 19.6453L17.4953 20.1677ZM4.50439 20.1677L5.04249 19.6453L5.04249 19.6453L4.50439 20.1677ZM3.67572 13.0211L4.42563 13.033C4.43034 12.7373 4.26075 12.4663 3.99263 12.3413L3.67572 13.0211ZM5.81205 4.27955L5.83161 5.0293C6.13459 5.02139 6.40304 4.83191 6.51195 4.54907L5.81205 4.27955ZM16.8875 4.01004C16.0137 1.74078 13.6829 0.166504 10.9998 0.166504V1.6665C13.1078 1.6665 14.8527 2.89996 15.4877 4.54907L16.8875 4.01004ZM21.8332 8.89918C21.8332 5.92611 19.269 3.60969 16.2072 3.52981L16.1681 5.0293C18.54 5.09118 20.3332 6.85704 20.3332 8.89918H21.8332ZM18.6409 13.7008C20.5072 12.8307 21.8332 11.0271 21.8332 8.89918H20.3332C20.3332 10.37 19.4156 11.6846 18.007 12.3413L18.6409 13.7008ZM19.0832 14.3713C19.0832 13.8851 19.0806 13.4316 19.0739 13.0091L17.574 13.033C17.5806 13.4449 17.5832 13.89 17.5832 14.3713H19.0832ZM18.0334 20.6901C18.6297 20.076 18.8636 19.2331 18.9738 18.2508C19.0843 17.265 19.0832 15.9816 19.0832 14.3713H17.5832C17.5832 16.0179 17.582 17.2012 17.4831 18.0837C17.3838 18.9696 17.1988 19.3964 16.9572 19.6453L18.0334 20.6901ZM10.9998 21.8332C12.8688 21.8332 14.32 21.8343 15.4118 21.7142C16.4956 21.5951 17.3999 21.3426 18.0334 20.6901L16.9572 19.6453C16.7018 19.9083 16.2458 20.1135 15.2479 20.2232C14.2578 20.3321 12.9058 20.3332 10.9998 20.3332V21.8332ZM3.96629 20.6901C4.59978 21.3426 5.50402 21.5951 6.58789 21.7142C7.67964 21.8343 9.13091 21.8332 10.9998 21.8332V20.3332C9.0939 20.3332 7.74186 20.3321 6.75181 20.2232C5.75389 20.1135 5.29784 19.9083 5.04249 19.6453L3.96629 20.6901ZM2.9165 14.3713C2.9165 15.9816 2.91538 17.265 3.02591 18.2508C3.13605 19.2331 3.37002 20.076 3.96629 20.6901L5.04249 19.6453C4.80087 19.3964 4.6159 18.9696 4.51657 18.0837C4.41763 17.2012 4.4165 16.0179 4.4165 14.3713H2.9165ZM2.92582 13.0091C2.91909 13.4316 2.9165 13.8851 2.9165 14.3713H4.4165C4.4165 13.89 4.41906 13.4449 4.42563 13.033L2.92582 13.0091ZM3.99263 12.3413C2.58407 11.6846 1.6665 10.37 1.6665 8.89918H0.166504C0.166504 11.0271 1.49248 12.8307 3.35881 13.7008L3.99263 12.3413ZM1.6665 8.89918C1.6665 6.85704 3.45969 5.09118 5.83161 5.0293L5.79249 3.52981C2.73069 3.60969 0.166504 5.92611 0.166504 8.89918H1.6665ZM10.9998 0.166504C8.31675 0.166504 5.98599 1.74078 5.11215 4.01004L6.51195 4.54907C7.14698 2.89996 8.89188 1.6665 10.9998 1.6665V0.166504Z" fill="#212135"/>
<path d="M18.1923 16.5L3.74951 16.5" stroke="#212135" stroke-width="1.5" stroke-linecap="square" stroke-linejoin="round"/>
</svg>
