<svg width="40" height="40" viewBox="0 0 40 40" fill="none" xmlns="http://www.w3.org/2000/svg">
<path opacity="0.4" d="M3.33301 21.4667V18.5333C3.33301 16.8 4.74967 15.3667 6.49967 15.3667C9.51634 15.3667 10.7497 13.2333 9.23301 10.6167C8.36634 9.11667 8.88301 7.16667 10.3997 6.3L13.283 4.65C14.5997 3.86667 16.2997 4.33333 17.083 5.65L17.2663 5.96667C18.7663 8.58333 21.233 8.58333 22.7497 5.96667L22.933 5.65C23.7163 4.33333 25.4163 3.86667 26.733 4.65L29.6163 6.3C31.133 7.16667 31.6497 9.11667 30.783 10.6167C29.2663 13.2333 30.4997 15.3667 33.5163 15.3667C35.2497 15.3667 36.683 16.7833 36.683 18.5333V21.4667C36.683 23.2 35.2663 24.6333 33.5163 24.6333C30.4997 24.6333 29.2663 26.7667 30.783 29.3833C31.6497 30.9 31.133 32.8333 29.6163 33.7L26.733 35.35C25.4163 36.1333 23.7163 35.6667 22.933 34.35L22.7497 34.0333C21.2497 31.4167 18.783 31.4167 17.2663 34.0333L17.083 34.35C16.2997 35.6667 14.5997 36.1333 13.283 35.35L10.3997 33.7C8.88301 32.8333 8.36634 30.8833 9.23301 29.3833C10.7497 26.7667 9.51634 24.6333 6.49967 24.6333C4.74967 24.6333 3.33301 23.2 3.33301 21.4667Z" fill="#1B7F6D"/>
<path d="M19.9997 25.4167C22.9912 25.4167 25.4163 22.9915 25.4163 20C25.4163 17.0085 22.9912 14.5833 19.9997 14.5833C17.0081 14.5833 14.583 17.0085 14.583 20C14.583 22.9915 17.0081 25.4167 19.9997 25.4167Z" fill="#1B7F6D"/>
</svg>
