<svg width="40" height="40" viewBox="0 0 40 40" fill="none" xmlns="http://www.w3.org/2000/svg">
<path d="M28.3327 37.9167H11.666C10.9827 37.9167 10.416 37.35 10.416 36.6667C10.416 35.9833 10.9827 35.4167 11.666 35.4167H28.3327C29.016 35.4167 29.5827 35.9833 29.5827 36.6667C29.5827 37.35 29.016 37.9167 28.3327 37.9167Z" fill="#1B7F6D"/>
<path opacity="0.4" d="M30.0007 31.6667H10.0007C6.31732 31.6667 3.33398 28.6833 3.33398 25V10C3.33398 6.31667 6.31732 3.33333 10.0007 3.33333H30.0007C33.684 3.33333 36.6673 6.31667 36.6673 10V25C36.6673 28.6833 33.684 31.6667 30.0007 31.6667Z" fill="#1B7F6D"/>
<path d="M28.7661 15.1167H22.6328C21.9495 15.1167 21.3828 14.55 21.3828 13.8667C21.3828 13.1833 21.9495 12.6167 22.6328 12.6167H28.7661C29.4495 12.6167 30.0161 13.1833 30.0161 13.8667C30.0161 14.55 29.4661 15.1167 28.7661 15.1167Z" fill="#1B7F6D"/>
<path d="M16.6667 15.5333C15.75 15.5333 15 14.7833 15 13.8667C15 12.95 15.7333 12.2 16.6667 12.2C17.5833 12.2 18.3333 12.95 18.3333 13.8667C18.3333 14.7833 17.6 15.5333 16.6667 15.5333Z" fill="#1B7F6D"/>
<path d="M11.4167 15.5333C10.5 15.5333 9.75 14.7833 9.75 13.8667C9.75 12.95 10.4833 12.2 11.4167 12.2H11.4333C12.35 12.2 13.1 12.95 13.1 13.8667C13.1 14.7833 12.3333 15.5333 11.4167 15.5333Z" fill="#1B7F6D"/>
<path d="M28.7677 24.7666H11.251C10.5677 24.7666 9.98438 24.2 9.98438 23.5166C9.98438 22.8333 10.5344 22.2666 11.2177 22.2666H28.7677C29.451 22.2666 30.0177 22.8333 30.0177 23.5166C30.0177 24.2 29.4677 24.7666 28.7677 24.7666Z" fill="#1B7F6D"/>
</svg>
