<svg width="40" height="40" viewBox="0 0 40 40" fill="none" xmlns="http://www.w3.org/2000/svg">
<path opacity="0.4" d="M18.267 3.51667L9.10033 6.95C7.35033 7.61667 5.91699 9.68334 5.91699 11.5667V25.0667C5.91699 26.4167 6.80033 28.2 7.88366 29L17.0503 35.85C18.667 37.0667 21.317 37.0667 22.9337 35.85L32.1003 29C33.1837 28.1833 34.067 26.4167 34.067 25.0667V11.5667C34.067 9.7 32.6337 7.61667 30.8837 6.96667L21.717 3.53334C20.7837 3.16667 19.217 3.16667 18.267 3.51667Z" fill="#1B7F6D"/>
<path d="M19.9997 27.0833C15.633 27.0833 12.083 23.5333 12.083 19.1667C12.083 14.8 15.633 11.25 19.9997 11.25C24.3663 11.25 27.9163 14.8 27.9163 19.1667C27.9163 23.5333 24.3663 27.0833 19.9997 27.0833ZM19.9997 13.75C17.0163 13.75 14.583 16.1833 14.583 19.1667C14.583 22.15 17.0163 24.5833 19.9997 24.5833C22.983 24.5833 25.4163 22.15 25.4163 19.1667C25.4163 16.1833 22.983 13.75 19.9997 13.75Z" fill="#1B7F6D"/>
<path d="M18.3331 22.0833C17.9165 22.0833 17.4998 21.8667 17.2665 21.4833C16.9165 20.8833 17.0998 20.1167 17.6998 19.7667L18.9665 19C19.0998 18.9167 19.1665 18.7833 19.1665 18.65V17.1C19.1665 16.4167 19.7331 15.85 20.4165 15.85C21.0998 15.85 21.6665 16.4 21.6665 17.0833V18.6333C21.6665 19.65 21.1165 20.6167 20.2498 21.1333L18.9665 21.9C18.7831 22.0333 18.5498 22.0833 18.3331 22.0833Z" fill="#1B7F6D"/>
</svg>
