<svg width="25" height="25" viewBox="0 0 25 25" fill="none" xmlns="http://www.w3.org/2000/svg">
<mask id="path-1-outside-1_34_100" maskUnits="userSpaceOnUse" x="0" y="-0.0224609" width="25" height="25" fill="black">
<rect fill="white" y="-0.0224609" width="25" height="25"/>
<path d="M8.31777 1.08535C8.21445 1.13027 8.08418 1.23809 8.02578 1.31895C7.92695 1.4627 7.91797 1.51211 7.91797 2.0332C7.91797 2.54082 7.92695 2.6127 8.02578 2.79688C8.19199 3.11133 8.2998 3.23711 8.54238 3.40332C8.89727 3.64141 9.18027 3.69531 10.1281 3.69531H10.9502V4.63867V5.58203H10.5594C10.0428 5.58203 9.69687 5.64043 9.38691 5.78418C8.89727 6.00879 8.53789 6.4041 8.3582 6.91621L8.27734 7.1543H6.36816C5.21816 7.1543 4.37812 7.17676 4.25684 7.20371C3.5291 7.36992 2.87324 7.98984 2.63516 8.72656L2.53633 9.03652L2.3207 9.06348C1.82207 9.13086 1.31445 9.5082 1.09883 9.97539L1 10.1865V15.5547V20.9229L1.14824 21.2238C1.37734 21.6955 1.81309 22.0055 2.30723 22.0549L2.54082 22.0818L2.59473 22.2795C2.77441 22.9982 3.33594 23.5957 4.07715 23.8697L4.36914 23.9775H12.5H20.6309L20.8959 23.8742C21.6146 23.6047 22.1852 22.9803 22.3604 22.2795L22.4143 22.0818L22.6479 22.0549C23.142 22.0055 23.5777 21.6955 23.8068 21.2238L23.9551 20.9229V15.5547V10.1865L23.8562 9.9709C23.726 9.69238 23.407 9.35547 23.151 9.2252C23.0387 9.17129 22.8275 9.10391 22.6838 9.07695L22.4187 9.02754L22.3199 8.71758C22.1223 8.10215 21.5922 7.54063 20.9723 7.28008C20.7252 7.17676 20.6982 7.17676 18.6902 7.16328L16.6643 7.14981L16.5879 6.91621C16.4262 6.41309 16.0803 6.02676 15.5996 5.80215C15.2672 5.64492 14.9303 5.58203 14.4002 5.58203H14.0049V4.63867V3.69531H14.827C15.7748 3.69531 16.0578 3.64141 16.4127 3.40332C16.6553 3.23711 16.7631 3.11133 16.9293 2.79688C17.0281 2.6127 17.0371 2.54082 17.0371 2.0332C17.0371 1.51211 17.0281 1.4627 16.9293 1.31895C16.8709 1.23809 16.7406 1.13027 16.6373 1.08535C16.4621 1.00449 16.26 1 12.4775 1C8.69512 1 8.49297 1.00449 8.31777 1.08535ZM16.2959 2.05566C16.2959 2.22188 16.2689 2.40606 16.233 2.47344C16.1342 2.66211 15.932 2.82832 15.7344 2.88223C15.4783 2.9541 9.40488 2.94961 9.19375 2.88223C9.01406 2.81934 8.81191 2.64414 8.72207 2.47344C8.68613 2.40606 8.65918 2.22188 8.65918 2.05566V1.76367H12.4775H16.2959V2.05566ZM13.2412 4.63867V5.58203H12.4775H11.7139V4.63867V3.69531H12.4775H13.2412V4.63867ZM15.2896 6.50293C15.4828 6.60176 15.5951 6.69609 15.7029 6.85781C15.7793 6.97461 15.8467 7.09141 15.8467 7.11387C15.8467 7.13633 14.4092 7.1543 12.4775 7.1543C10.6268 7.1543 9.1084 7.14082 9.1084 7.12285C9.1084 7.10938 9.15781 7.01055 9.2207 6.90273C9.35098 6.68262 9.67891 6.44902 9.9125 6.40859C10.0023 6.39512 10.0967 6.37715 10.1191 6.36816C10.1461 6.35918 11.2557 6.35469 12.5943 6.35918L15.0201 6.36816L15.2896 6.50293ZM20.7881 8.04824C20.8959 8.10664 21.0486 8.19648 21.1205 8.25039C21.3227 8.39863 21.5742 8.8209 21.6371 9.11738C21.6775 9.31504 21.6865 10.9053 21.6775 15.7119L21.6641 22.0459L21.5473 22.293C21.3316 22.7557 21.0127 23.0342 20.5545 23.1645C20.3389 23.2318 19.4854 23.2363 12.3877 23.2273L4.45898 23.2139L4.20293 23.0926C3.84805 22.9264 3.57402 22.6613 3.42129 22.3244L3.29102 22.0459L3.27754 15.6895C3.26855 11.2871 3.28203 9.26113 3.31348 9.09941C3.37637 8.79844 3.65039 8.38066 3.90195 8.20547C4.32871 7.9 3.65937 7.92246 12.5449 7.93145L20.5859 7.94043L20.7881 8.04824ZM2.50488 15.5547V21.3047H2.40605C2.22187 21.3047 1.95684 21.1115 1.84453 20.9049L1.74121 20.7027L1.7502 15.5098L1.76367 10.3123L1.89395 10.1461C2.01074 9.98887 2.30723 9.80918 2.45098 9.80469C2.49141 9.80469 2.50488 10.9861 2.50488 15.5547ZM22.7062 9.87207C22.9309 9.96641 23.0297 10.0607 23.1285 10.2764C23.2094 10.4471 23.2139 10.7031 23.2139 15.5816V20.7072L23.1105 20.9049C22.9982 21.1115 22.7332 21.3047 22.5535 21.3047H22.4502V15.5547C22.4502 11.633 22.4637 9.80469 22.4951 9.80469C22.5221 9.80469 22.6164 9.83613 22.7062 9.87207Z"/>
</mask>
<path d="M8.31777 1.08535C8.21445 1.13027 8.08418 1.23809 8.02578 1.31895C7.92695 1.4627 7.91797 1.51211 7.91797 2.0332C7.91797 2.54082 7.92695 2.6127 8.02578 2.79688C8.19199 3.11133 8.2998 3.23711 8.54238 3.40332C8.89727 3.64141 9.18027 3.69531 10.1281 3.69531H10.9502V4.63867V5.58203H10.5594C10.0428 5.58203 9.69687 5.64043 9.38691 5.78418C8.89727 6.00879 8.53789 6.4041 8.3582 6.91621L8.27734 7.1543H6.36816C5.21816 7.1543 4.37812 7.17676 4.25684 7.20371C3.5291 7.36992 2.87324 7.98984 2.63516 8.72656L2.53633 9.03652L2.3207 9.06348C1.82207 9.13086 1.31445 9.5082 1.09883 9.97539L1 10.1865V15.5547V20.9229L1.14824 21.2238C1.37734 21.6955 1.81309 22.0055 2.30723 22.0549L2.54082 22.0818L2.59473 22.2795C2.77441 22.9982 3.33594 23.5957 4.07715 23.8697L4.36914 23.9775H12.5H20.6309L20.8959 23.8742C21.6146 23.6047 22.1852 22.9803 22.3604 22.2795L22.4143 22.0818L22.6479 22.0549C23.142 22.0055 23.5777 21.6955 23.8068 21.2238L23.9551 20.9229V15.5547V10.1865L23.8562 9.9709C23.726 9.69238 23.407 9.35547 23.151 9.2252C23.0387 9.17129 22.8275 9.10391 22.6838 9.07695L22.4187 9.02754L22.3199 8.71758C22.1223 8.10215 21.5922 7.54063 20.9723 7.28008C20.7252 7.17676 20.6982 7.17676 18.6902 7.16328L16.6643 7.14981L16.5879 6.91621C16.4262 6.41309 16.0803 6.02676 15.5996 5.80215C15.2672 5.64492 14.9303 5.58203 14.4002 5.58203H14.0049V4.63867V3.69531H14.827C15.7748 3.69531 16.0578 3.64141 16.4127 3.40332C16.6553 3.23711 16.7631 3.11133 16.9293 2.79688C17.0281 2.6127 17.0371 2.54082 17.0371 2.0332C17.0371 1.51211 17.0281 1.4627 16.9293 1.31895C16.8709 1.23809 16.7406 1.13027 16.6373 1.08535C16.4621 1.00449 16.26 1 12.4775 1C8.69512 1 8.49297 1.00449 8.31777 1.08535ZM16.2959 2.05566C16.2959 2.22188 16.2689 2.40606 16.233 2.47344C16.1342 2.66211 15.932 2.82832 15.7344 2.88223C15.4783 2.9541 9.40488 2.94961 9.19375 2.88223C9.01406 2.81934 8.81191 2.64414 8.72207 2.47344C8.68613 2.40606 8.65918 2.22188 8.65918 2.05566V1.76367H12.4775H16.2959V2.05566ZM13.2412 4.63867V5.58203H12.4775H11.7139V4.63867V3.69531H12.4775H13.2412V4.63867ZM15.2896 6.50293C15.4828 6.60176 15.5951 6.69609 15.7029 6.85781C15.7793 6.97461 15.8467 7.09141 15.8467 7.11387C15.8467 7.13633 14.4092 7.1543 12.4775 7.1543C10.6268 7.1543 9.1084 7.14082 9.1084 7.12285C9.1084 7.10938 9.15781 7.01055 9.2207 6.90273C9.35098 6.68262 9.67891 6.44902 9.9125 6.40859C10.0023 6.39512 10.0967 6.37715 10.1191 6.36816C10.1461 6.35918 11.2557 6.35469 12.5943 6.35918L15.0201 6.36816L15.2896 6.50293ZM20.7881 8.04824C20.8959 8.10664 21.0486 8.19648 21.1205 8.25039C21.3227 8.39863 21.5742 8.8209 21.6371 9.11738C21.6775 9.31504 21.6865 10.9053 21.6775 15.7119L21.6641 22.0459L21.5473 22.293C21.3316 22.7557 21.0127 23.0342 20.5545 23.1645C20.3389 23.2318 19.4854 23.2363 12.3877 23.2273L4.45898 23.2139L4.20293 23.0926C3.84805 22.9264 3.57402 22.6613 3.42129 22.3244L3.29102 22.0459L3.27754 15.6895C3.26855 11.2871 3.28203 9.26113 3.31348 9.09941C3.37637 8.79844 3.65039 8.38066 3.90195 8.20547C4.32871 7.9 3.65937 7.92246 12.5449 7.93145L20.5859 7.94043L20.7881 8.04824ZM2.50488 15.5547V21.3047H2.40605C2.22187 21.3047 1.95684 21.1115 1.84453 20.9049L1.74121 20.7027L1.7502 15.5098L1.76367 10.3123L1.89395 10.1461C2.01074 9.98887 2.30723 9.80918 2.45098 9.80469C2.49141 9.80469 2.50488 10.9861 2.50488 15.5547ZM22.7062 9.87207C22.9309 9.96641 23.0297 10.0607 23.1285 10.2764C23.2094 10.4471 23.2139 10.7031 23.2139 15.5816V20.7072L23.1105 20.9049C22.9982 21.1115 22.7332 21.3047 22.5535 21.3047H22.4502V15.5547C22.4502 11.633 22.4637 9.80469 22.4951 9.80469C22.5221 9.80469 22.6164 9.83613 22.7062 9.87207Z" fill="#1B7F6D"/>
<path d="M8.31777 1.08535C8.21445 1.13027 8.08418 1.23809 8.02578 1.31895C7.92695 1.4627 7.91797 1.51211 7.91797 2.0332C7.91797 2.54082 7.92695 2.6127 8.02578 2.79688C8.19199 3.11133 8.2998 3.23711 8.54238 3.40332C8.89727 3.64141 9.18027 3.69531 10.1281 3.69531H10.9502V4.63867V5.58203H10.5594C10.0428 5.58203 9.69687 5.64043 9.38691 5.78418C8.89727 6.00879 8.53789 6.4041 8.3582 6.91621L8.27734 7.1543H6.36816C5.21816 7.1543 4.37812 7.17676 4.25684 7.20371C3.5291 7.36992 2.87324 7.98984 2.63516 8.72656L2.53633 9.03652L2.3207 9.06348C1.82207 9.13086 1.31445 9.5082 1.09883 9.97539L1 10.1865V15.5547V20.9229L1.14824 21.2238C1.37734 21.6955 1.81309 22.0055 2.30723 22.0549L2.54082 22.0818L2.59473 22.2795C2.77441 22.9982 3.33594 23.5957 4.07715 23.8697L4.36914 23.9775H12.5H20.6309L20.8959 23.8742C21.6146 23.6047 22.1852 22.9803 22.3604 22.2795L22.4143 22.0818L22.6479 22.0549C23.142 22.0055 23.5777 21.6955 23.8068 21.2238L23.9551 20.9229V15.5547V10.1865L23.8562 9.9709C23.726 9.69238 23.407 9.35547 23.151 9.2252C23.0387 9.17129 22.8275 9.10391 22.6838 9.07695L22.4187 9.02754L22.3199 8.71758C22.1223 8.10215 21.5922 7.54063 20.9723 7.28008C20.7252 7.17676 20.6982 7.17676 18.6902 7.16328L16.6643 7.14981L16.5879 6.91621C16.4262 6.41309 16.0803 6.02676 15.5996 5.80215C15.2672 5.64492 14.9303 5.58203 14.4002 5.58203H14.0049V4.63867V3.69531H14.827C15.7748 3.69531 16.0578 3.64141 16.4127 3.40332C16.6553 3.23711 16.7631 3.11133 16.9293 2.79688C17.0281 2.6127 17.0371 2.54082 17.0371 2.0332C17.0371 1.51211 17.0281 1.4627 16.9293 1.31895C16.8709 1.23809 16.7406 1.13027 16.6373 1.08535C16.4621 1.00449 16.26 1 12.4775 1C8.69512 1 8.49297 1.00449 8.31777 1.08535ZM16.2959 2.05566C16.2959 2.22188 16.2689 2.40606 16.233 2.47344C16.1342 2.66211 15.932 2.82832 15.7344 2.88223C15.4783 2.9541 9.40488 2.94961 9.19375 2.88223C9.01406 2.81934 8.81191 2.64414 8.72207 2.47344C8.68613 2.40606 8.65918 2.22188 8.65918 2.05566V1.76367H12.4775H16.2959V2.05566ZM13.2412 4.63867V5.58203H12.4775H11.7139V4.63867V3.69531H12.4775H13.2412V4.63867ZM15.2896 6.50293C15.4828 6.60176 15.5951 6.69609 15.7029 6.85781C15.7793 6.97461 15.8467 7.09141 15.8467 7.11387C15.8467 7.13633 14.4092 7.1543 12.4775 7.1543C10.6268 7.1543 9.1084 7.14082 9.1084 7.12285C9.1084 7.10938 9.15781 7.01055 9.2207 6.90273C9.35098 6.68262 9.67891 6.44902 9.9125 6.40859C10.0023 6.39512 10.0967 6.37715 10.1191 6.36816C10.1461 6.35918 11.2557 6.35469 12.5943 6.35918L15.0201 6.36816L15.2896 6.50293ZM20.7881 8.04824C20.8959 8.10664 21.0486 8.19648 21.1205 8.25039C21.3227 8.39863 21.5742 8.8209 21.6371 9.11738C21.6775 9.31504 21.6865 10.9053 21.6775 15.7119L21.6641 22.0459L21.5473 22.293C21.3316 22.7557 21.0127 23.0342 20.5545 23.1645C20.3389 23.2318 19.4854 23.2363 12.3877 23.2273L4.45898 23.2139L4.20293 23.0926C3.84805 22.9264 3.57402 22.6613 3.42129 22.3244L3.29102 22.0459L3.27754 15.6895C3.26855 11.2871 3.28203 9.26113 3.31348 9.09941C3.37637 8.79844 3.65039 8.38066 3.90195 8.20547C4.32871 7.9 3.65937 7.92246 12.5449 7.93145L20.5859 7.94043L20.7881 8.04824ZM2.50488 15.5547V21.3047H2.40605C2.22187 21.3047 1.95684 21.1115 1.84453 20.9049L1.74121 20.7027L1.7502 15.5098L1.76367 10.3123L1.89395 10.1461C2.01074 9.98887 2.30723 9.80918 2.45098 9.80469C2.49141 9.80469 2.50488 10.9861 2.50488 15.5547ZM22.7062 9.87207C22.9309 9.96641 23.0297 10.0607 23.1285 10.2764C23.2094 10.4471 23.2139 10.7031 23.2139 15.5816V20.7072L23.1105 20.9049C22.9982 21.1115 22.7332 21.3047 22.5535 21.3047H22.4502V15.5547C22.4502 11.633 22.4637 9.80469 22.4951 9.80469C22.5221 9.80469 22.6164 9.83613 22.7062 9.87207Z" stroke="#1B7F6D" stroke-width="0.4" mask="url(#path-1-outside-1_34_100)"/>
<path d="M9.05462 10.4875L9.10992 10.5708C8.86367 10.7342 8.54091 11.0112 8.23871 11.3089C7.93628 11.6069 7.66115 11.9191 7.50728 12.151L7.50716 12.1512C6.79922 13.2131 6.46379 14.3124 6.46379 15.5771C6.46379 16.286 6.53869 16.77 6.73765 17.4022C7.80701 20.7558 11.5187 22.4793 14.78 21.1358L14.78 21.1358C16.6796 20.3539 18.0587 18.6306 18.4212 16.5839L18.4213 16.5834C18.4669 16.3337 18.4904 15.9576 18.4904 15.576C18.4904 15.1945 18.4669 14.816 18.4212 14.5616L18.4211 14.5611C18.2001 13.2922 17.6573 12.2462 16.7464 11.3309C15.8703 10.4548 14.9125 9.92513 13.6914 9.65525L13.6914 9.65525L13.6902 9.65496C13.6266 9.64006 13.4896 9.62365 13.3096 9.60847C13.1324 9.5935 12.9204 9.58024 12.7116 9.57046C12.5028 9.56067 12.298 9.55441 12.135 9.55337C12.0534 9.55285 11.9831 9.55364 11.9285 9.55587C11.8704 9.55825 11.8388 9.56202 11.8287 9.56463L11.8281 9.56477C11.7863 9.57521 11.597 9.6073 11.4146 9.634C10.6673 9.75281 9.82728 10.097 9.10973 10.5709L9.05462 10.4875ZM9.05462 10.4875C8.547 10.8244 7.7429 11.615 7.42395 12.0957L9.05462 10.4875ZM11.6317 8.6097L11.6317 8.60964L11.6349 8.60926C11.68 8.60396 11.8171 8.6007 11.9936 8.5996C12.1735 8.59847 12.4024 8.5996 12.6368 8.60411L12.6369 8.60411C13.3026 8.6176 13.5898 8.6401 13.915 8.71441L13.9153 8.71448C15.348 9.04651 16.3935 9.62148 17.4043 10.6277L17.4047 10.6282C18.036 11.2641 18.4428 11.8302 18.7851 12.5467L18.7853 12.5471C20.6944 16.5841 18.4434 21.3195 14.1139 22.3677L14.1137 22.3677C12.6734 22.7141 11.1287 22.5865 9.75247 22.0033C7.91566 21.2284 6.48016 19.679 5.85113 17.7874L5.85107 17.7872C5.15403 15.6779 5.45062 13.5077 6.69372 11.6361C6.88766 11.343 7.20955 10.9726 7.55196 10.6297C7.89442 10.2866 8.26359 9.96477 8.55442 9.77088L8.5548 9.77063C9.46595 9.16927 10.486 8.78246 11.6317 8.6097Z" fill="#1B7F6D" stroke="#1B7F6D" stroke-width="0.2"/>
<path d="M13.5495 19.1379L13.5495 19.1379C12.6702 19.4004 11.6364 19.3167 10.838 18.9153L13.5495 19.1379ZM13.5495 19.1379C14.8826 18.7402 15.9161 17.5673 16.1569 16.1802C16.191 15.9797 16.1981 15.675 16.1809 15.3648C16.1637 15.0546 16.1227 14.7498 16.065 14.5491C15.6712 13.184 14.5335 12.1514 13.1337 11.8976C12.0796 11.7095 11.0036 11.9806 10.1546 12.659L10.1543 12.6592C8.69374 13.818 8.32127 15.8961 9.29291 17.5111L9.29298 17.5112M13.5495 19.1379L9.29298 17.5112M9.29298 17.5112C9.60595 18.0328 10.2471 18.6177 10.8379 18.9153L9.29298 17.5112ZM7.79551 15.5681L7.79551 15.5679L16.1387 12.7965C16.8125 13.6904 17.0955 14.6248 17.0461 15.7927L17.146 15.7967C17.146 15.7967 17.146 15.7967 17.146 15.7967C17.0955 17.0731 16.5981 18.1307 15.6321 19.0371L15.632 19.0372C14.6941 19.9154 13.2587 20.3877 11.9761 20.236L11.976 20.236C10.904 20.1077 9.96686 19.6673 9.22711 18.9413C8.26927 18.0064 7.79551 16.8846 7.79551 15.5681ZM11.6647 10.9416C13.3641 10.6339 15.1762 11.3451 16.2186 12.7363L11.6824 11.04L11.6646 10.9416C11.6646 10.9416 11.6646 10.9416 11.6647 10.9416Z" fill="#1B7F6D" stroke="#1B7F6D" stroke-width="0.2"/>
<path d="M12.8916 13.4118L12.8908 13.4116C12.159 13.2782 11.4556 13.4973 10.94 14.0129C9.54714 15.4057 10.5142 17.7459 12.4775 17.7459C12.9404 17.7459 13.3031 17.6428 13.6631 17.4114C14.8445 16.6467 15.0169 15.006 14.0107 14.004L14.01 14.0033C13.7232 13.7123 13.2838 13.48 12.8916 13.4118ZM9.33642 15.7351C9.2948 14.9436 9.47703 14.333 9.95242 13.6683C10.3494 13.1127 11.0988 12.6278 11.8044 12.4744C12.2768 12.367 12.9505 12.4044 13.4289 12.5576C14.8247 13.0029 15.6927 14.2662 15.6186 15.7351C15.5979 16.1578 15.5218 16.5188 15.37 16.8539C15.2184 17.1888 14.9935 17.4927 14.682 17.8043C14.0568 18.4295 13.3755 18.714 12.4775 18.714C11.5842 18.714 10.9031 18.4341 10.2689 17.8047C9.65396 17.1989 9.37812 16.5869 9.33642 15.7351Z" fill="#1B7F6D" stroke="#1B7F6D" stroke-width="0.2"/>
<path d="M12.9023 14.2182C12.9724 14.3869 12.9686 14.5527 12.8688 14.6842C12.7733 14.8101 12.6063 14.8819 12.4007 14.9082C12.0788 14.9515 11.8138 15.2488 11.8138 15.5503C11.8138 15.668 11.7602 15.7794 11.6847 15.8644C11.6088 15.9496 11.5036 16.0165 11.3871 16.0392L11.3871 16.0392L11.3861 16.0394C11.3196 16.0517 11.2555 16.0568 11.1877 16.0303C11.1255 16.0059 11.0712 15.9587 11.0111 15.9008L11.0111 15.9008L11.0097 15.8995C10.9448 15.8345 10.8902 15.7781 10.8669 15.6961C10.8455 15.621 10.8534 15.5323 10.864 15.4158C10.8976 15.0136 11.0572 14.6853 11.3579 14.4037C11.6017 14.174 11.8187 14.0475 12.1163 13.9753C12.2985 13.9281 12.4634 13.9191 12.5997 13.9569C12.7403 13.9959 12.8469 14.0842 12.9023 14.2182ZM12.9023 14.2182C12.9023 14.2182 12.9023 14.2182 12.9023 14.2182L12.81 14.2565L12.9024 14.2183C12.9023 14.2183 12.9023 14.2183 12.9023 14.2182Z" fill="#1B7F6D" stroke="#1B7F6D" stroke-width="0.2"/>
<path d="M6.2685 9.78876C6.2375 9.81329 6.20425 9.83617 6.15972 9.85396C6.11628 9.87132 6.06709 9.88187 6.00548 9.88888C5.88508 9.90259 5.69646 9.90469 5.37088 9.90469C5.02683 9.90469 4.83912 9.90382 4.72539 9.88801C4.66574 9.87972 4.61826 9.86644 4.57583 9.84259C4.53486 9.81956 4.50485 9.78984 4.47856 9.76356C4.37764 9.66512 4.32596 9.54156 4.33271 9.41473C4.33946 9.28806 4.40381 9.17003 4.51212 9.08068L4.57576 9.15781L4.51174 9.08099C4.54469 9.05354 4.57851 9.02562 4.61948 9.00387C4.66243 8.98105 4.70859 8.96722 4.76692 8.95842C4.87684 8.94184 5.04943 8.94102 5.36189 8.94102C5.57334 8.94102 5.74256 8.94436 5.87675 8.95561C6.00952 8.96675 6.1169 8.9862 6.19998 9.02324C6.28812 9.06254 6.34898 9.12176 6.38397 9.20507C6.41629 9.282 6.42322 9.37228 6.42322 9.46777C6.42322 9.53142 6.41393 9.59114 6.38704 9.64737C6.36011 9.70368 6.31928 9.74865 6.2685 9.78876ZM6.2685 9.78876L6.20643 9.71035M6.2685 9.78876C6.26846 9.78878 6.26843 9.78881 6.26839 9.78884L6.20643 9.71035M6.20643 9.71035C6.09861 9.7957 6.02674 9.80469 5.37088 9.80469C4.67459 9.80469 4.65662 9.8002 4.54881 9.69238C4.3826 9.53066 4.39607 9.30605 4.57576 9.15781C4.71053 9.04551 4.72849 9.04102 5.36189 9.04102C6.20643 9.04102 6.32322 9.09492 6.32322 9.46777C6.32322 9.57559 6.29178 9.64297 6.20643 9.71035Z" fill="#1B7F6D" stroke="#1B7F6D" stroke-width="0.2"/>
</svg>
