<svg width="25" height="25" viewBox="0 0 25 25" fill="none" xmlns="http://www.w3.org/2000/svg">
<mask id="path-1-outside-1_34_108" maskUnits="userSpaceOnUse" x="0" y="-0.0166016" width="25" height="25" fill="black">
<rect fill="white" y="-0.0166016" width="25" height="25"/>
<path d="M18.4073 1.02522C18.3399 1.04768 14.5216 2.5885 9.92158 4.44826C0.986623 8.06447 1.31904 7.91623 1.10791 8.32502C0.959669 8.59904 0.964162 9.06623 1.12139 9.36272C1.31455 9.74006 1.44932 9.81193 3.09795 10.3914L4.60733 10.917L4.76904 11.3213C4.85889 11.5459 4.93526 11.7436 4.93526 11.7615C4.93526 11.784 4.77354 11.8649 4.57588 11.9457L4.21651 12.0895L4.05928 11.9682C3.65049 11.6582 3.25518 11.6537 2.53643 11.9457C1.77725 12.2557 1.51221 12.5612 1.50772 13.1272C1.50772 13.3832 1.56611 13.5494 2.28037 15.3149C2.7251 16.411 3.10694 17.2914 3.17881 17.3813C3.37647 17.6283 3.72236 17.7856 4.06377 17.7856C4.30186 17.7856 4.44111 17.7496 4.86338 17.5789C5.29912 17.4082 5.41143 17.3408 5.58213 17.1567C5.76631 16.959 5.92354 16.6131 5.92354 16.393C5.92354 16.3481 6.04033 16.2807 6.26944 16.1908C6.45811 16.1145 6.62432 16.0516 6.64229 16.0426C6.66026 16.0381 6.72764 16.1639 6.79502 16.3211C6.96572 16.7209 7.2083 16.986 7.57666 17.1656C7.8417 17.2959 7.91807 17.3139 8.23701 17.3094C8.5919 17.3094 8.60987 17.3049 10.1642 16.6715C11.0267 16.3211 11.7364 16.0381 11.7409 16.0426C11.7454 16.0516 11.8128 16.1459 11.8847 16.2582C12.2351 16.7703 12.8505 17.1926 13.4839 17.3543L13.6995 17.4082L14.2071 18.4908C14.7731 19.6903 14.881 19.8699 15.2403 20.2024C15.5503 20.4809 15.8647 20.6651 16.278 20.7998C16.5835 20.9031 16.6509 20.9031 18.5556 20.9211L20.5142 20.9346L20.5321 21.8645C20.5456 22.7764 20.5501 22.7988 20.6759 23.0729C20.8241 23.4008 21.1386 23.7153 21.453 23.859C21.6417 23.9444 21.772 23.9578 22.4458 23.9758C23.3667 23.9983 23.4835 23.9803 23.6991 23.7916C23.9956 23.5311 23.9821 23.7602 23.9821 19.3803C23.9821 15.0319 23.9956 15.2205 23.7171 14.9869C23.488 14.7938 23.3083 14.7668 22.4728 14.7803C21.7181 14.7983 21.7091 14.7983 21.4126 14.9465C21.0667 15.1172 20.8286 15.3598 20.6624 15.7147C20.5501 15.9572 20.5456 16.0022 20.5321 16.9006L20.5142 17.8305L18.8925 17.8215L17.2708 17.808L16.9249 17.0668C16.7317 16.658 16.5745 16.2987 16.57 16.2672C16.57 16.2358 16.6194 16.1369 16.6823 16.0426C16.9788 15.5889 17.1495 14.7803 17.0642 14.2278C17.0372 14.0526 17.0237 13.9043 17.0327 13.8953C17.0417 13.8863 18.0749 13.4641 19.3282 12.9565C20.5815 12.4488 21.6956 11.9727 21.8034 11.9008C22.2077 11.6223 22.4278 11.2 22.4278 10.6879C22.4323 10.3914 22.4099 10.2881 22.2347 9.84787L22.0415 9.34924L22.1583 9.19201C22.338 8.95842 22.4278 8.65295 22.3964 8.37893C22.3784 8.2217 21.9606 7.1301 21.0712 4.93342C20.3524 3.1635 19.737 1.65861 19.7011 1.58674C19.6112 1.42053 19.3731 1.19592 19.18 1.09709C19.0048 1.00725 18.578 0.971308 18.4073 1.02522ZM18.9239 1.84728C19.0093 1.92365 19.3821 2.80412 20.3435 5.18049C21.0577 6.95939 21.6462 8.45529 21.6462 8.50471C21.6417 8.68889 21.489 8.79221 20.7702 9.0842C15.0696 11.4022 12.0105 12.6196 11.9116 12.6196C11.8397 12.6196 10.3708 12.1209 8.64131 11.519C6.91182 10.9125 4.68369 10.1309 3.68643 9.78049C2.04229 9.20549 1.87158 9.13361 1.80869 9.02131C1.71885 8.84611 1.72783 8.73381 1.84912 8.60354C1.921 8.52717 3.10244 8.02854 6.01338 6.85158C8.25049 5.94865 12.0015 4.43479 14.3464 3.48244C16.6958 2.5301 18.6589 1.75295 18.7128 1.75295C18.7667 1.74846 18.861 1.79338 18.9239 1.84728ZM21.5114 10.0949C21.6956 10.5576 21.7091 10.8182 21.5653 11.0563C21.5114 11.1461 21.4216 11.2449 21.3632 11.2809C21.3093 11.3168 20.0515 11.8379 18.569 12.4399C17.0866 13.0373 14.2251 14.1963 12.2126 15.0094C10.2001 15.827 8.47959 16.5143 8.38975 16.5367C8.17862 16.5951 7.89561 16.5188 7.71592 16.3571C7.6126 16.2582 7.3835 15.7416 6.5794 13.7516C5.86963 11.9951 5.59561 11.2719 5.64951 11.2854C5.68994 11.2944 7.05557 11.775 8.68623 12.3455C11.2019 13.2305 11.6915 13.3877 11.9116 13.3877C12.1317 13.3922 12.2935 13.3383 13.0571 13.0328C15.6177 11.9951 17.3786 11.2854 19.2204 10.5352C20.3435 10.0815 21.2868 9.70412 21.3093 9.70412C21.3362 9.69963 21.4261 9.87482 21.5114 10.0949ZM3.55166 12.5477C3.65049 12.624 3.7044 12.7408 4.50401 14.7219C4.97569 15.8854 5.15537 16.3795 5.13291 16.4559C5.09248 16.6176 4.94873 16.7254 4.55342 16.8826C4.02783 17.0893 3.86162 17.0713 3.72686 16.8018C3.62803 16.6086 2.33428 13.4147 2.28486 13.2395C2.25791 13.1586 2.27139 13.0733 2.3208 12.9744C2.38369 12.8487 2.46455 12.7992 2.80147 12.66C3.23272 12.4803 3.43037 12.4533 3.55166 12.5477ZM5.8292 13.9358C6.13018 14.677 6.36377 15.2924 6.35479 15.3104C6.32783 15.3508 5.69893 15.6024 5.68096 15.5799C5.64951 15.5395 4.57588 12.8487 4.57588 12.8127C4.57588 12.7453 5.22276 12.4983 5.25869 12.5522C5.27217 12.5746 5.53272 13.199 5.8292 13.9358ZM16.314 14.385C16.3679 14.7803 16.2286 15.3373 15.9815 15.7237C15.3526 16.703 14.023 16.9725 13.0347 16.3166C12.8146 16.1729 12.4821 15.836 12.4821 15.7596C12.4821 15.7461 12.9224 15.5529 13.4614 15.3328C13.996 15.1172 14.8405 14.7713 15.3347 14.5692C15.8288 14.3625 16.2466 14.1963 16.2601 14.1963C16.278 14.1918 16.3005 14.2772 16.314 14.385ZM23.2185 19.3803V23.2211H22.5896C21.7585 23.2211 21.5519 23.1403 21.3722 22.7494C21.2958 22.5787 21.2868 22.3811 21.2868 19.4252C21.2868 17.3543 21.3048 16.2223 21.3362 16.11C21.3587 16.0156 21.4351 15.8764 21.5024 15.8045C21.6911 15.5934 21.9022 15.544 22.603 15.5395H23.2185V19.3803ZM16.5161 18.0012C16.7228 18.4504 16.7677 18.5178 16.9069 18.5717C17.0327 18.6256 17.3831 18.6391 18.7937 18.6391H20.5231V19.4028V20.1664H18.7577C17.6706 20.1664 16.889 20.1485 16.7228 20.117C16.3185 20.0451 15.995 19.8699 15.694 19.5645C15.447 19.3174 15.3796 19.2006 14.9933 18.3696L14.562 17.4487L14.881 17.3723C15.2134 17.2869 15.8108 17.0129 15.9052 16.8961C15.9636 16.8242 15.9905 16.8692 16.5161 18.0012Z"/>
</mask>
<path d="M18.4073 1.02522C18.3399 1.04768 14.5216 2.5885 9.92158 4.44826C0.986623 8.06447 1.31904 7.91623 1.10791 8.32502C0.959669 8.59904 0.964162 9.06623 1.12139 9.36272C1.31455 9.74006 1.44932 9.81193 3.09795 10.3914L4.60733 10.917L4.76904 11.3213C4.85889 11.5459 4.93526 11.7436 4.93526 11.7615C4.93526 11.784 4.77354 11.8649 4.57588 11.9457L4.21651 12.0895L4.05928 11.9682C3.65049 11.6582 3.25518 11.6537 2.53643 11.9457C1.77725 12.2557 1.51221 12.5612 1.50772 13.1272C1.50772 13.3832 1.56611 13.5494 2.28037 15.3149C2.7251 16.411 3.10694 17.2914 3.17881 17.3813C3.37647 17.6283 3.72236 17.7856 4.06377 17.7856C4.30186 17.7856 4.44111 17.7496 4.86338 17.5789C5.29912 17.4082 5.41143 17.3408 5.58213 17.1567C5.76631 16.959 5.92354 16.6131 5.92354 16.393C5.92354 16.3481 6.04033 16.2807 6.26944 16.1908C6.45811 16.1145 6.62432 16.0516 6.64229 16.0426C6.66026 16.0381 6.72764 16.1639 6.79502 16.3211C6.96572 16.7209 7.2083 16.986 7.57666 17.1656C7.8417 17.2959 7.91807 17.3139 8.23701 17.3094C8.5919 17.3094 8.60987 17.3049 10.1642 16.6715C11.0267 16.3211 11.7364 16.0381 11.7409 16.0426C11.7454 16.0516 11.8128 16.1459 11.8847 16.2582C12.2351 16.7703 12.8505 17.1926 13.4839 17.3543L13.6995 17.4082L14.2071 18.4908C14.7731 19.6903 14.881 19.8699 15.2403 20.2024C15.5503 20.4809 15.8647 20.6651 16.278 20.7998C16.5835 20.9031 16.6509 20.9031 18.5556 20.9211L20.5142 20.9346L20.5321 21.8645C20.5456 22.7764 20.5501 22.7988 20.6759 23.0729C20.8241 23.4008 21.1386 23.7153 21.453 23.859C21.6417 23.9444 21.772 23.9578 22.4458 23.9758C23.3667 23.9983 23.4835 23.9803 23.6991 23.7916C23.9956 23.5311 23.9821 23.7602 23.9821 19.3803C23.9821 15.0319 23.9956 15.2205 23.7171 14.9869C23.488 14.7938 23.3083 14.7668 22.4728 14.7803C21.7181 14.7983 21.7091 14.7983 21.4126 14.9465C21.0667 15.1172 20.8286 15.3598 20.6624 15.7147C20.5501 15.9572 20.5456 16.0022 20.5321 16.9006L20.5142 17.8305L18.8925 17.8215L17.2708 17.808L16.9249 17.0668C16.7317 16.658 16.5745 16.2987 16.57 16.2672C16.57 16.2358 16.6194 16.1369 16.6823 16.0426C16.9788 15.5889 17.1495 14.7803 17.0642 14.2278C17.0372 14.0526 17.0237 13.9043 17.0327 13.8953C17.0417 13.8863 18.0749 13.4641 19.3282 12.9565C20.5815 12.4488 21.6956 11.9727 21.8034 11.9008C22.2077 11.6223 22.4278 11.2 22.4278 10.6879C22.4323 10.3914 22.4099 10.2881 22.2347 9.84787L22.0415 9.34924L22.1583 9.19201C22.338 8.95842 22.4278 8.65295 22.3964 8.37893C22.3784 8.2217 21.9606 7.1301 21.0712 4.93342C20.3524 3.1635 19.737 1.65861 19.7011 1.58674C19.6112 1.42053 19.3731 1.19592 19.18 1.09709C19.0048 1.00725 18.578 0.971308 18.4073 1.02522ZM18.9239 1.84728C19.0093 1.92365 19.3821 2.80412 20.3435 5.18049C21.0577 6.95939 21.6462 8.45529 21.6462 8.50471C21.6417 8.68889 21.489 8.79221 20.7702 9.0842C15.0696 11.4022 12.0105 12.6196 11.9116 12.6196C11.8397 12.6196 10.3708 12.1209 8.64131 11.519C6.91182 10.9125 4.68369 10.1309 3.68643 9.78049C2.04229 9.20549 1.87158 9.13361 1.80869 9.02131C1.71885 8.84611 1.72783 8.73381 1.84912 8.60354C1.921 8.52717 3.10244 8.02854 6.01338 6.85158C8.25049 5.94865 12.0015 4.43479 14.3464 3.48244C16.6958 2.5301 18.6589 1.75295 18.7128 1.75295C18.7667 1.74846 18.861 1.79338 18.9239 1.84728ZM21.5114 10.0949C21.6956 10.5576 21.7091 10.8182 21.5653 11.0563C21.5114 11.1461 21.4216 11.2449 21.3632 11.2809C21.3093 11.3168 20.0515 11.8379 18.569 12.4399C17.0866 13.0373 14.2251 14.1963 12.2126 15.0094C10.2001 15.827 8.47959 16.5143 8.38975 16.5367C8.17862 16.5951 7.89561 16.5188 7.71592 16.3571C7.6126 16.2582 7.3835 15.7416 6.5794 13.7516C5.86963 11.9951 5.59561 11.2719 5.64951 11.2854C5.68994 11.2944 7.05557 11.775 8.68623 12.3455C11.2019 13.2305 11.6915 13.3877 11.9116 13.3877C12.1317 13.3922 12.2935 13.3383 13.0571 13.0328C15.6177 11.9951 17.3786 11.2854 19.2204 10.5352C20.3435 10.0815 21.2868 9.70412 21.3093 9.70412C21.3362 9.69963 21.4261 9.87482 21.5114 10.0949ZM3.55166 12.5477C3.65049 12.624 3.7044 12.7408 4.50401 14.7219C4.97569 15.8854 5.15537 16.3795 5.13291 16.4559C5.09248 16.6176 4.94873 16.7254 4.55342 16.8826C4.02783 17.0893 3.86162 17.0713 3.72686 16.8018C3.62803 16.6086 2.33428 13.4147 2.28486 13.2395C2.25791 13.1586 2.27139 13.0733 2.3208 12.9744C2.38369 12.8487 2.46455 12.7992 2.80147 12.66C3.23272 12.4803 3.43037 12.4533 3.55166 12.5477ZM5.8292 13.9358C6.13018 14.677 6.36377 15.2924 6.35479 15.3104C6.32783 15.3508 5.69893 15.6024 5.68096 15.5799C5.64951 15.5395 4.57588 12.8487 4.57588 12.8127C4.57588 12.7453 5.22276 12.4983 5.25869 12.5522C5.27217 12.5746 5.53272 13.199 5.8292 13.9358ZM16.314 14.385C16.3679 14.7803 16.2286 15.3373 15.9815 15.7237C15.3526 16.703 14.023 16.9725 13.0347 16.3166C12.8146 16.1729 12.4821 15.836 12.4821 15.7596C12.4821 15.7461 12.9224 15.5529 13.4614 15.3328C13.996 15.1172 14.8405 14.7713 15.3347 14.5692C15.8288 14.3625 16.2466 14.1963 16.2601 14.1963C16.278 14.1918 16.3005 14.2772 16.314 14.385ZM23.2185 19.3803V23.2211H22.5896C21.7585 23.2211 21.5519 23.1403 21.3722 22.7494C21.2958 22.5787 21.2868 22.3811 21.2868 19.4252C21.2868 17.3543 21.3048 16.2223 21.3362 16.11C21.3587 16.0156 21.4351 15.8764 21.5024 15.8045C21.6911 15.5934 21.9022 15.544 22.603 15.5395H23.2185V19.3803ZM16.5161 18.0012C16.7228 18.4504 16.7677 18.5178 16.9069 18.5717C17.0327 18.6256 17.3831 18.6391 18.7937 18.6391H20.5231V19.4028V20.1664H18.7577C17.6706 20.1664 16.889 20.1485 16.7228 20.117C16.3185 20.0451 15.995 19.8699 15.694 19.5645C15.447 19.3174 15.3796 19.2006 14.9933 18.3696L14.562 17.4487L14.881 17.3723C15.2134 17.2869 15.8108 17.0129 15.9052 16.8961C15.9636 16.8242 15.9905 16.8692 16.5161 18.0012Z" fill="#0B253C"/>
<path d="M18.4073 1.02522C18.3399 1.04768 14.5216 2.5885 9.92158 4.44826C0.986623 8.06447 1.31904 7.91623 1.10791 8.32502C0.959669 8.59904 0.964162 9.06623 1.12139 9.36272C1.31455 9.74006 1.44932 9.81193 3.09795 10.3914L4.60733 10.917L4.76904 11.3213C4.85889 11.5459 4.93526 11.7436 4.93526 11.7615C4.93526 11.784 4.77354 11.8649 4.57588 11.9457L4.21651 12.0895L4.05928 11.9682C3.65049 11.6582 3.25518 11.6537 2.53643 11.9457C1.77725 12.2557 1.51221 12.5612 1.50772 13.1272C1.50772 13.3832 1.56611 13.5494 2.28037 15.3149C2.7251 16.411 3.10694 17.2914 3.17881 17.3813C3.37647 17.6283 3.72236 17.7856 4.06377 17.7856C4.30186 17.7856 4.44111 17.7496 4.86338 17.5789C5.29912 17.4082 5.41143 17.3408 5.58213 17.1567C5.76631 16.959 5.92354 16.6131 5.92354 16.393C5.92354 16.3481 6.04033 16.2807 6.26944 16.1908C6.45811 16.1145 6.62432 16.0516 6.64229 16.0426C6.66026 16.0381 6.72764 16.1639 6.79502 16.3211C6.96572 16.7209 7.2083 16.986 7.57666 17.1656C7.8417 17.2959 7.91807 17.3139 8.23701 17.3094C8.5919 17.3094 8.60987 17.3049 10.1642 16.6715C11.0267 16.3211 11.7364 16.0381 11.7409 16.0426C11.7454 16.0516 11.8128 16.1459 11.8847 16.2582C12.2351 16.7703 12.8505 17.1926 13.4839 17.3543L13.6995 17.4082L14.2071 18.4908C14.7731 19.6903 14.881 19.8699 15.2403 20.2024C15.5503 20.4809 15.8647 20.6651 16.278 20.7998C16.5835 20.9031 16.6509 20.9031 18.5556 20.9211L20.5142 20.9346L20.5321 21.8645C20.5456 22.7764 20.5501 22.7988 20.6759 23.0729C20.8241 23.4008 21.1386 23.7153 21.453 23.859C21.6417 23.9444 21.772 23.9578 22.4458 23.9758C23.3667 23.9983 23.4835 23.9803 23.6991 23.7916C23.9956 23.5311 23.9821 23.7602 23.9821 19.3803C23.9821 15.0319 23.9956 15.2205 23.7171 14.9869C23.488 14.7938 23.3083 14.7668 22.4728 14.7803C21.7181 14.7983 21.7091 14.7983 21.4126 14.9465C21.0667 15.1172 20.8286 15.3598 20.6624 15.7147C20.5501 15.9572 20.5456 16.0022 20.5321 16.9006L20.5142 17.8305L18.8925 17.8215L17.2708 17.808L16.9249 17.0668C16.7317 16.658 16.5745 16.2987 16.57 16.2672C16.57 16.2358 16.6194 16.1369 16.6823 16.0426C16.9788 15.5889 17.1495 14.7803 17.0642 14.2278C17.0372 14.0526 17.0237 13.9043 17.0327 13.8953C17.0417 13.8863 18.0749 13.4641 19.3282 12.9565C20.5815 12.4488 21.6956 11.9727 21.8034 11.9008C22.2077 11.6223 22.4278 11.2 22.4278 10.6879C22.4323 10.3914 22.4099 10.2881 22.2347 9.84787L22.0415 9.34924L22.1583 9.19201C22.338 8.95842 22.4278 8.65295 22.3964 8.37893C22.3784 8.2217 21.9606 7.1301 21.0712 4.93342C20.3524 3.1635 19.737 1.65861 19.7011 1.58674C19.6112 1.42053 19.3731 1.19592 19.18 1.09709C19.0048 1.00725 18.578 0.971308 18.4073 1.02522ZM18.9239 1.84728C19.0093 1.92365 19.3821 2.80412 20.3435 5.18049C21.0577 6.95939 21.6462 8.45529 21.6462 8.50471C21.6417 8.68889 21.489 8.79221 20.7702 9.0842C15.0696 11.4022 12.0105 12.6196 11.9116 12.6196C11.8397 12.6196 10.3708 12.1209 8.64131 11.519C6.91182 10.9125 4.68369 10.1309 3.68643 9.78049C2.04229 9.20549 1.87158 9.13361 1.80869 9.02131C1.71885 8.84611 1.72783 8.73381 1.84912 8.60354C1.921 8.52717 3.10244 8.02854 6.01338 6.85158C8.25049 5.94865 12.0015 4.43479 14.3464 3.48244C16.6958 2.5301 18.6589 1.75295 18.7128 1.75295C18.7667 1.74846 18.861 1.79338 18.9239 1.84728ZM21.5114 10.0949C21.6956 10.5576 21.7091 10.8182 21.5653 11.0563C21.5114 11.1461 21.4216 11.2449 21.3632 11.2809C21.3093 11.3168 20.0515 11.8379 18.569 12.4399C17.0866 13.0373 14.2251 14.1963 12.2126 15.0094C10.2001 15.827 8.47959 16.5143 8.38975 16.5367C8.17862 16.5951 7.89561 16.5188 7.71592 16.3571C7.6126 16.2582 7.3835 15.7416 6.5794 13.7516C5.86963 11.9951 5.59561 11.2719 5.64951 11.2854C5.68994 11.2944 7.05557 11.775 8.68623 12.3455C11.2019 13.2305 11.6915 13.3877 11.9116 13.3877C12.1317 13.3922 12.2935 13.3383 13.0571 13.0328C15.6177 11.9951 17.3786 11.2854 19.2204 10.5352C20.3435 10.0815 21.2868 9.70412 21.3093 9.70412C21.3362 9.69963 21.4261 9.87482 21.5114 10.0949ZM3.55166 12.5477C3.65049 12.624 3.7044 12.7408 4.50401 14.7219C4.97569 15.8854 5.15537 16.3795 5.13291 16.4559C5.09248 16.6176 4.94873 16.7254 4.55342 16.8826C4.02783 17.0893 3.86162 17.0713 3.72686 16.8018C3.62803 16.6086 2.33428 13.4147 2.28486 13.2395C2.25791 13.1586 2.27139 13.0733 2.3208 12.9744C2.38369 12.8487 2.46455 12.7992 2.80147 12.66C3.23272 12.4803 3.43037 12.4533 3.55166 12.5477ZM5.8292 13.9358C6.13018 14.677 6.36377 15.2924 6.35479 15.3104C6.32783 15.3508 5.69893 15.6024 5.68096 15.5799C5.64951 15.5395 4.57588 12.8487 4.57588 12.8127C4.57588 12.7453 5.22276 12.4983 5.25869 12.5522C5.27217 12.5746 5.53272 13.199 5.8292 13.9358ZM16.314 14.385C16.3679 14.7803 16.2286 15.3373 15.9815 15.7237C15.3526 16.703 14.023 16.9725 13.0347 16.3166C12.8146 16.1729 12.4821 15.836 12.4821 15.7596C12.4821 15.7461 12.9224 15.5529 13.4614 15.3328C13.996 15.1172 14.8405 14.7713 15.3347 14.5692C15.8288 14.3625 16.2466 14.1963 16.2601 14.1963C16.278 14.1918 16.3005 14.2772 16.314 14.385ZM23.2185 19.3803V23.2211H22.5896C21.7585 23.2211 21.5519 23.1403 21.3722 22.7494C21.2958 22.5787 21.2868 22.3811 21.2868 19.4252C21.2868 17.3543 21.3048 16.2223 21.3362 16.11C21.3587 16.0156 21.4351 15.8764 21.5024 15.8045C21.6911 15.5934 21.9022 15.544 22.603 15.5395H23.2185V19.3803ZM16.5161 18.0012C16.7228 18.4504 16.7677 18.5178 16.9069 18.5717C17.0327 18.6256 17.3831 18.6391 18.7937 18.6391H20.5231V19.4028V20.1664H18.7577C17.6706 20.1664 16.889 20.1485 16.7228 20.117C16.3185 20.0451 15.995 19.8699 15.694 19.5645C15.447 19.3174 15.3796 19.2006 14.9933 18.3696L14.562 17.4487L14.881 17.3723C15.2134 17.2869 15.8108 17.0129 15.9052 16.8961C15.9636 16.8242 15.9905 16.8692 16.5161 18.0012Z" stroke="#0B253C" stroke-width="0.4" mask="url(#path-1-outside-1_34_108)"/>
</svg>
