<svg width="25" height="25" viewBox="0 0 25 25" fill="none" xmlns="http://www.w3.org/2000/svg">
<mask id="path-1-outside-1_34_112" maskUnits="userSpaceOnUse" x="0" y="-0.0349121" width="25" height="25" fill="black">
<rect fill="white" y="-0.0349121" width="25" height="25"/>
<path d="M2.06914 1.05044C1.67383 1.17622 1.27852 1.5311 1.09883 1.92192L1 2.13306V12.4875V22.842L1.09883 23.0532C1.23359 23.3497 1.57051 23.6956 1.87148 23.8393L2.12305 23.9651H7.87305H13.623L13.8746 23.8483C14.198 23.6956 14.4766 23.417 14.6293 23.0936L14.7461 22.842L14.7596 20.4163L14.7686 17.9905L16.3318 16.4272L17.8906 14.8684H18.0838C18.3264 14.8684 18.5285 14.7786 18.7217 14.5764L18.8699 14.4192L19.0271 14.6034C19.2518 14.8684 19.4943 14.9762 19.8447 14.9762C20.0379 14.9762 20.1996 14.9493 20.3164 14.8954C20.5725 14.7741 23.726 11.634 23.8518 11.3735C24.0719 10.9153 24 10.484 23.6451 10.1247L23.416 9.90005L23.5508 9.68442C23.7035 9.43286 23.7529 9.0106 23.6631 8.72759C23.5912 8.52095 22.3918 7.27661 22.1133 7.12837C21.8752 7.00259 21.3766 6.9936 21.1475 7.11489C20.9678 7.20923 16.0084 12.1327 15.9096 12.3168C15.8736 12.3842 15.8467 12.5235 15.8467 12.6313C15.8467 12.82 15.8287 12.8424 15.3076 13.3635L14.7686 13.8981L14.7596 7.99536L14.7461 2.08813L14.6203 1.85005C14.4541 1.5356 14.1846 1.27505 13.8746 1.12681L13.623 1.01001L7.94043 1.00103C3.35391 0.996534 2.22187 1.00552 2.06914 1.05044ZM4.04121 2.47896C4.05469 3.12134 4.06816 3.23364 4.15352 3.39536C4.28379 3.63794 4.60723 3.92095 4.83184 3.98833C5.09687 4.06919 10.7301 4.06021 10.9547 3.97935C11.2063 3.8895 11.4174 3.70532 11.5611 3.44927C11.6869 3.22017 11.6914 3.18872 11.7049 2.47896L11.7229 1.75122H12.5629C13.358 1.75122 13.4164 1.75571 13.6006 1.85454C13.7354 1.92642 13.8297 2.02075 13.9016 2.15552L14.0049 2.34868V8.50747V14.6663L12.7516 15.9241C11.8307 16.8495 11.4713 17.2403 11.3904 17.4065C11.3275 17.5278 11.1119 18.0489 10.9098 18.561C10.492 19.6122 10.483 19.702 10.748 19.967C10.9277 20.1467 11.1434 20.1917 11.3814 20.1063C11.7678 19.9715 13.0975 19.4325 13.3041 19.3292C13.4254 19.2663 13.632 19.1135 13.7668 18.9922L14.0049 18.7631V20.6948C14.0049 22.6219 14.0049 22.6264 13.9016 22.8196C13.8297 22.9543 13.7354 23.0487 13.6006 23.1206L13.4074 23.2239H7.88652C3.3 23.2239 2.34316 23.2149 2.22187 23.161C2.04668 23.0891 1.85352 22.887 1.79062 22.7163C1.72324 22.5366 1.72324 2.43853 1.79062 2.25884C1.85352 2.09263 2.04668 1.89048 2.21289 1.81411C2.30723 1.77368 2.58574 1.75571 3.1832 1.75122H4.02324L4.04121 2.47896ZM10.9502 2.36216C10.9502 2.9731 10.9232 3.10786 10.775 3.22017C10.7211 3.2606 10.0293 3.27407 7.88652 3.27856H5.06992L4.94414 3.17075C4.81836 3.06294 4.81836 3.06294 4.80488 2.40708L4.79141 1.75122H7.86855H10.9502V2.36216ZM22.3469 8.36821C22.8814 8.90278 22.9443 8.97915 22.9443 9.11841C22.9443 9.26216 22.7826 9.43735 20.5186 11.7014L18.0928 14.1272L17.3516 13.386L16.6104 12.6448L19.0496 10.2055C21.1609 8.09419 21.5023 7.77075 21.6191 7.77075C21.727 7.77075 21.8527 7.87407 22.3469 8.36821ZM23.1375 10.6997C23.2004 10.785 23.2184 10.8524 23.1959 10.9377C23.16 11.0815 20.0828 14.1452 19.9076 14.2125C19.7504 14.2754 19.5572 14.1227 19.5393 13.925C19.5258 13.7813 19.6021 13.6959 21.134 12.1641C22.6703 10.6233 22.7512 10.5514 22.8949 10.5649C22.9982 10.5739 23.0746 10.6188 23.1375 10.6997ZM15.2088 16.4766C13.7668 17.9186 13.066 18.5879 12.9268 18.6598C12.6168 18.817 11.5342 19.2393 11.5072 19.2124C11.4937 19.2034 11.6195 18.8485 11.7857 18.4352L12.0867 17.676L14.2025 15.5512L16.3184 13.4309L16.799 13.9116L17.2842 14.3967L15.2088 16.4766Z"/>
</mask>
<path d="M2.06914 1.05044C1.67383 1.17622 1.27852 1.5311 1.09883 1.92192L1 2.13306V12.4875V22.842L1.09883 23.0532C1.23359 23.3497 1.57051 23.6956 1.87148 23.8393L2.12305 23.9651H7.87305H13.623L13.8746 23.8483C14.198 23.6956 14.4766 23.417 14.6293 23.0936L14.7461 22.842L14.7596 20.4163L14.7686 17.9905L16.3318 16.4272L17.8906 14.8684H18.0838C18.3264 14.8684 18.5285 14.7786 18.7217 14.5764L18.8699 14.4192L19.0271 14.6034C19.2518 14.8684 19.4943 14.9762 19.8447 14.9762C20.0379 14.9762 20.1996 14.9493 20.3164 14.8954C20.5725 14.7741 23.726 11.634 23.8518 11.3735C24.0719 10.9153 24 10.484 23.6451 10.1247L23.416 9.90005L23.5508 9.68442C23.7035 9.43286 23.7529 9.0106 23.6631 8.72759C23.5912 8.52095 22.3918 7.27661 22.1133 7.12837C21.8752 7.00259 21.3766 6.9936 21.1475 7.11489C20.9678 7.20923 16.0084 12.1327 15.9096 12.3168C15.8736 12.3842 15.8467 12.5235 15.8467 12.6313C15.8467 12.82 15.8287 12.8424 15.3076 13.3635L14.7686 13.8981L14.7596 7.99536L14.7461 2.08813L14.6203 1.85005C14.4541 1.5356 14.1846 1.27505 13.8746 1.12681L13.623 1.01001L7.94043 1.00103C3.35391 0.996534 2.22187 1.00552 2.06914 1.05044ZM4.04121 2.47896C4.05469 3.12134 4.06816 3.23364 4.15352 3.39536C4.28379 3.63794 4.60723 3.92095 4.83184 3.98833C5.09687 4.06919 10.7301 4.06021 10.9547 3.97935C11.2063 3.8895 11.4174 3.70532 11.5611 3.44927C11.6869 3.22017 11.6914 3.18872 11.7049 2.47896L11.7229 1.75122H12.5629C13.358 1.75122 13.4164 1.75571 13.6006 1.85454C13.7354 1.92642 13.8297 2.02075 13.9016 2.15552L14.0049 2.34868V8.50747V14.6663L12.7516 15.9241C11.8307 16.8495 11.4713 17.2403 11.3904 17.4065C11.3275 17.5278 11.1119 18.0489 10.9098 18.561C10.492 19.6122 10.483 19.702 10.748 19.967C10.9277 20.1467 11.1434 20.1917 11.3814 20.1063C11.7678 19.9715 13.0975 19.4325 13.3041 19.3292C13.4254 19.2663 13.632 19.1135 13.7668 18.9922L14.0049 18.7631V20.6948C14.0049 22.6219 14.0049 22.6264 13.9016 22.8196C13.8297 22.9543 13.7354 23.0487 13.6006 23.1206L13.4074 23.2239H7.88652C3.3 23.2239 2.34316 23.2149 2.22187 23.161C2.04668 23.0891 1.85352 22.887 1.79062 22.7163C1.72324 22.5366 1.72324 2.43853 1.79062 2.25884C1.85352 2.09263 2.04668 1.89048 2.21289 1.81411C2.30723 1.77368 2.58574 1.75571 3.1832 1.75122H4.02324L4.04121 2.47896ZM10.9502 2.36216C10.9502 2.9731 10.9232 3.10786 10.775 3.22017C10.7211 3.2606 10.0293 3.27407 7.88652 3.27856H5.06992L4.94414 3.17075C4.81836 3.06294 4.81836 3.06294 4.80488 2.40708L4.79141 1.75122H7.86855H10.9502V2.36216ZM22.3469 8.36821C22.8814 8.90278 22.9443 8.97915 22.9443 9.11841C22.9443 9.26216 22.7826 9.43735 20.5186 11.7014L18.0928 14.1272L17.3516 13.386L16.6104 12.6448L19.0496 10.2055C21.1609 8.09419 21.5023 7.77075 21.6191 7.77075C21.727 7.77075 21.8527 7.87407 22.3469 8.36821ZM23.1375 10.6997C23.2004 10.785 23.2184 10.8524 23.1959 10.9377C23.16 11.0815 20.0828 14.1452 19.9076 14.2125C19.7504 14.2754 19.5572 14.1227 19.5393 13.925C19.5258 13.7813 19.6021 13.6959 21.134 12.1641C22.6703 10.6233 22.7512 10.5514 22.8949 10.5649C22.9982 10.5739 23.0746 10.6188 23.1375 10.6997ZM15.2088 16.4766C13.7668 17.9186 13.066 18.5879 12.9268 18.6598C12.6168 18.817 11.5342 19.2393 11.5072 19.2124C11.4937 19.2034 11.6195 18.8485 11.7857 18.4352L12.0867 17.676L14.2025 15.5512L16.3184 13.4309L16.799 13.9116L17.2842 14.3967L15.2088 16.4766Z" fill="#1B7F6D"/>
<path d="M2.06914 1.05044C1.67383 1.17622 1.27852 1.5311 1.09883 1.92192L1 2.13306V12.4875V22.842L1.09883 23.0532C1.23359 23.3497 1.57051 23.6956 1.87148 23.8393L2.12305 23.9651H7.87305H13.623L13.8746 23.8483C14.198 23.6956 14.4766 23.417 14.6293 23.0936L14.7461 22.842L14.7596 20.4163L14.7686 17.9905L16.3318 16.4272L17.8906 14.8684H18.0838C18.3264 14.8684 18.5285 14.7786 18.7217 14.5764L18.8699 14.4192L19.0271 14.6034C19.2518 14.8684 19.4943 14.9762 19.8447 14.9762C20.0379 14.9762 20.1996 14.9493 20.3164 14.8954C20.5725 14.7741 23.726 11.634 23.8518 11.3735C24.0719 10.9153 24 10.484 23.6451 10.1247L23.416 9.90005L23.5508 9.68442C23.7035 9.43286 23.7529 9.0106 23.6631 8.72759C23.5912 8.52095 22.3918 7.27661 22.1133 7.12837C21.8752 7.00259 21.3766 6.9936 21.1475 7.11489C20.9678 7.20923 16.0084 12.1327 15.9096 12.3168C15.8736 12.3842 15.8467 12.5235 15.8467 12.6313C15.8467 12.82 15.8287 12.8424 15.3076 13.3635L14.7686 13.8981L14.7596 7.99536L14.7461 2.08813L14.6203 1.85005C14.4541 1.5356 14.1846 1.27505 13.8746 1.12681L13.623 1.01001L7.94043 1.00103C3.35391 0.996534 2.22187 1.00552 2.06914 1.05044ZM4.04121 2.47896C4.05469 3.12134 4.06816 3.23364 4.15352 3.39536C4.28379 3.63794 4.60723 3.92095 4.83184 3.98833C5.09687 4.06919 10.7301 4.06021 10.9547 3.97935C11.2063 3.8895 11.4174 3.70532 11.5611 3.44927C11.6869 3.22017 11.6914 3.18872 11.7049 2.47896L11.7229 1.75122H12.5629C13.358 1.75122 13.4164 1.75571 13.6006 1.85454C13.7354 1.92642 13.8297 2.02075 13.9016 2.15552L14.0049 2.34868V8.50747V14.6663L12.7516 15.9241C11.8307 16.8495 11.4713 17.2403 11.3904 17.4065C11.3275 17.5278 11.1119 18.0489 10.9098 18.561C10.492 19.6122 10.483 19.702 10.748 19.967C10.9277 20.1467 11.1434 20.1917 11.3814 20.1063C11.7678 19.9715 13.0975 19.4325 13.3041 19.3292C13.4254 19.2663 13.632 19.1135 13.7668 18.9922L14.0049 18.7631V20.6948C14.0049 22.6219 14.0049 22.6264 13.9016 22.8196C13.8297 22.9543 13.7354 23.0487 13.6006 23.1206L13.4074 23.2239H7.88652C3.3 23.2239 2.34316 23.2149 2.22187 23.161C2.04668 23.0891 1.85352 22.887 1.79062 22.7163C1.72324 22.5366 1.72324 2.43853 1.79062 2.25884C1.85352 2.09263 2.04668 1.89048 2.21289 1.81411C2.30723 1.77368 2.58574 1.75571 3.1832 1.75122H4.02324L4.04121 2.47896ZM10.9502 2.36216C10.9502 2.9731 10.9232 3.10786 10.775 3.22017C10.7211 3.2606 10.0293 3.27407 7.88652 3.27856H5.06992L4.94414 3.17075C4.81836 3.06294 4.81836 3.06294 4.80488 2.40708L4.79141 1.75122H7.86855H10.9502V2.36216ZM22.3469 8.36821C22.8814 8.90278 22.9443 8.97915 22.9443 9.11841C22.9443 9.26216 22.7826 9.43735 20.5186 11.7014L18.0928 14.1272L17.3516 13.386L16.6104 12.6448L19.0496 10.2055C21.1609 8.09419 21.5023 7.77075 21.6191 7.77075C21.727 7.77075 21.8527 7.87407 22.3469 8.36821ZM23.1375 10.6997C23.2004 10.785 23.2184 10.8524 23.1959 10.9377C23.16 11.0815 20.0828 14.1452 19.9076 14.2125C19.7504 14.2754 19.5572 14.1227 19.5393 13.925C19.5258 13.7813 19.6021 13.6959 21.134 12.1641C22.6703 10.6233 22.7512 10.5514 22.8949 10.5649C22.9982 10.5739 23.0746 10.6188 23.1375 10.6997ZM15.2088 16.4766C13.7668 17.9186 13.066 18.5879 12.9268 18.6598C12.6168 18.817 11.5342 19.2393 11.5072 19.2124C11.4937 19.2034 11.6195 18.8485 11.7857 18.4352L12.0867 17.676L14.2025 15.5512L16.3184 13.4309L16.799 13.9116L17.2842 14.3967L15.2088 16.4766Z" stroke="#1B7F6D" stroke-width="0.4" mask="url(#path-1-outside-1_34_112)"/>
<path d="M3.36855 3.10654L3.36855 3.10654V3.10779C3.36855 3.19029 3.3683 3.25618 3.36554 3.3091C3.3628 3.36178 3.35735 3.40807 3.34438 3.44972C3.3161 3.54056 3.25694 3.59018 3.19005 3.64628L3.18922 3.64697C3.18919 3.647 3.18917 3.64702 3.18914 3.64704C3.08835 3.73189 2.97191 3.77739 2.85094 3.76668C2.7305 3.756 2.62185 3.69106 2.53302 3.58702C2.48265 3.53112 2.44724 3.47536 2.42737 3.39365C2.40903 3.31827 2.40488 3.22403 2.40488 3.09431C2.40488 2.95296 2.4063 2.85515 2.42842 2.7781C2.4533 2.69141 2.50198 2.63685 2.56445 2.57438C2.64203 2.4968 2.72581 2.44158 2.8218 2.42427C2.91894 2.40675 3.01266 2.43084 3.10408 2.48027C3.20319 2.53125 3.27798 2.59148 3.3203 2.70119C3.35809 2.79916 3.36633 2.92939 3.36855 3.10654Z" fill="#1B7F6D" stroke="#1B7F6D" stroke-width="0.2"/>
<path d="M12.5371 2.57455L12.5371 2.57452L12.5392 2.57256C12.5855 2.52883 12.6377 2.49069 12.6904 2.46297C12.7416 2.43608 12.8008 2.41499 12.8594 2.41499C12.9179 2.41499 12.9771 2.43608 13.0283 2.46297C13.081 2.49069 13.1333 2.52883 13.1796 2.57256L13.1796 2.57253L13.1816 2.57455C13.2441 2.63702 13.2928 2.69158 13.3177 2.77827C13.3398 2.85533 13.3412 2.95313 13.3412 3.09448C13.3412 3.22628 13.3371 3.32092 13.318 3.39725C13.2973 3.48019 13.2603 3.5366 13.2091 3.59557C13.1643 3.64775 13.1175 3.69097 13.0572 3.71911C12.9967 3.74734 12.9321 3.75601 12.8594 3.75601C12.7866 3.75601 12.722 3.74734 12.6615 3.71911C12.6012 3.69097 12.5544 3.64775 12.5097 3.59557C12.4584 3.5366 12.4215 3.48019 12.4007 3.39725C12.3817 3.32092 12.3775 3.22628 12.3775 3.09448C12.3775 2.95313 12.379 2.85533 12.4011 2.77827C12.426 2.69158 12.4746 2.63702 12.5371 2.57455Z" fill="#1B7F6D" stroke="#1B7F6D" stroke-width="0.2"/>
<path d="M2.95821 7.08505L2.95821 7.08505L3.07501 7.19286L3.10361 7.21927L3.14254 7.21938L7.70654 7.23286L2.95821 7.08505ZM2.95821 7.08505L2.95759 7.08448M2.95821 7.08505L2.95759 7.08448M2.95759 7.08448C2.67732 6.82136 2.81146 6.35765 3.17733 6.26759L3.17733 6.26759M2.95759 7.08448L3.17733 6.26759M12.4833 7.21833L12.4833 7.2183C12.6185 7.19827 12.7339 7.1501 12.8157 7.06528C12.899 6.97899 12.937 6.86573 12.937 6.73755C12.937 6.67006 12.9279 6.60765 12.9027 6.54809C12.8774 6.48841 12.8388 6.43813 12.789 6.39093L12.788 6.39004L12.788 6.39004L12.6712 6.28223L12.6425 6.25575L12.6035 6.25571L7.94965 6.25122L7.94957 6.25122M12.4833 7.21833L7.94957 6.25122M12.4833 7.21833L12.481 7.21861M12.4833 7.21833L12.481 7.21861M7.94957 6.25122C6.66925 6.24897 5.49441 6.24897 4.63342 6.25122C4.20294 6.25234 3.85075 6.25403 3.60301 6.25628C3.47919 6.2574 3.38115 6.25867 3.31237 6.26008C3.27805 6.26079 3.25051 6.26154 3.23051 6.26236C3.22059 6.26276 3.21182 6.2632 3.20471 6.26372C3.20454 6.26373 3.20433 6.26375 3.20408 6.26376C3.20048 6.26401 3.18869 6.26481 3.17733 6.26759M7.94957 6.25122L3.17733 6.26759M12.481 7.21861C12.461 7.22111 12.4088 7.22272 12.3381 7.22418M12.481 7.21861L12.3381 7.22418M12.3381 7.22418C12.2638 7.22571 12.161 7.22713 12.0333 7.22843M12.3381 7.22418L12.0333 7.22843M12.0333 7.22843C11.7776 7.23103 11.421 7.23314 10.9893 7.23454M12.0333 7.22843L10.9893 7.23454M10.9893 7.23454C10.126 7.23735 8.96234 7.23735 7.7066 7.23286L10.9893 7.23454Z" fill="#1B7F6D" stroke="#1B7F6D" stroke-width="0.2"/>
<path d="M2.96762 9.25767L2.88868 9.31906C2.82051 9.23141 2.80235 9.11365 2.81435 9.00826C2.82644 8.90214 2.87083 8.7912 2.95004 8.71156L3.0572 8.59994L3.08671 8.56919H3.12933H5.96391H8.79848H8.8411L8.87061 8.59994L8.9773 8.71107C9.07772 8.80939 9.12912 8.93264 9.12238 9.05915C9.11564 9.18568 9.05142 9.30359 8.94332 9.39291C8.94321 9.39301 8.94309 9.39311 8.94297 9.3932L8.80434 9.50948L8.77646 9.53286H8.74008H5.98187C4.56436 9.53286 3.83926 9.53179 3.45309 9.50911C3.26178 9.49787 3.14204 9.48094 3.06001 9.45099C3.01658 9.43513 2.98236 9.41524 2.95309 9.39019C2.92506 9.36622 2.90459 9.33991 2.88812 9.31833L2.96762 9.25767ZM2.96762 9.25767C2.87328 9.13638 2.90023 8.90278 3.02152 8.78149L5.98187 9.43286C3.14281 9.43286 3.09789 9.42837 2.96762 9.25767Z" fill="#1B7F6D" stroke="#1B7F6D" stroke-width="0.2"/>
<path d="M9.69117 10.0826C9.69783 9.57892 9.70731 9.28647 9.76187 9.09643C9.79067 8.9961 9.83286 8.91992 9.89473 8.85445C9.9542 8.79153 10.0284 8.74243 10.1121 8.69156L10.1121 8.69155L10.1132 8.69087C10.157 8.66506 10.1989 8.6408 10.2514 8.62228C10.3041 8.60363 10.3631 8.59225 10.4428 8.58479C10.5986 8.57019 10.854 8.56919 11.3365 8.56919C11.8124 8.56919 12.0674 8.57021 12.2206 8.58361C12.2985 8.59042 12.3562 8.60083 12.4063 8.61843C12.4572 8.63633 12.495 8.65993 12.5324 8.68441L12.5324 8.68439L12.5344 8.6858C12.6252 8.74866 12.7031 8.81162 12.766 8.88889C12.8299 8.96736 12.8753 9.05657 12.9072 9.1685C12.969 9.38547 12.9818 9.69672 12.9818 10.1965C12.9818 10.7157 12.9681 11.039 12.8991 11.2571C12.8632 11.3704 12.8117 11.4585 12.7387 11.5322C12.6673 11.6043 12.5794 11.6583 12.4783 11.7095C12.3748 11.7637 12.2993 11.794 12.1391 11.8089C11.9879 11.8229 11.7541 11.8239 11.332 11.8239C10.8384 11.8239 10.536 11.8142 10.332 11.7699C10.2274 11.7472 10.1442 11.7146 10.0722 11.6671C10.0005 11.6197 9.94516 11.561 9.89233 11.4938C9.79559 11.3716 9.7393 11.2547 9.71115 11.046C9.68411 10.8456 9.68223 10.5547 9.69117 10.0826ZM9.69117 10.0826C9.69118 10.0825 9.69118 10.0824 9.69118 10.0823L9.79116 10.0842L9.69117 10.0829C9.69117 10.0828 9.69117 10.0827 9.69117 10.0826ZM11.3095 10.8602H11.9732V10.1965V9.53286H11.3095H10.6458V10.1965V10.8602H11.3095Z" fill="#1B7F6D" stroke="#1B7F6D" stroke-width="0.2"/>
<path d="M2.84272 11.5578L2.84273 11.5578C2.8523 11.5825 2.86559 11.616 2.88911 11.6473C2.9144 11.6809 2.94754 11.7072 2.99108 11.7274C3.07071 11.7644 3.19226 11.7839 3.38358 11.7967C3.77255 11.8228 4.51512 11.8239 5.96375 11.8239C7.37227 11.8239 8.0929 11.8228 8.47685 11.8001C8.66705 11.7889 8.78626 11.7719 8.86805 11.742C8.91135 11.7261 8.94547 11.7062 8.97467 11.6812C9.00246 11.6573 9.02283 11.6312 9.03925 11.6097M2.84272 11.5578L8.96003 11.5487M2.84272 11.5578L2.84227 11.5565C2.7727 11.3692 2.80607 11.142 2.95055 11.0019M2.84272 11.5578L2.95055 11.0019M9.03925 11.6097C9.03934 11.6096 9.03944 11.6095 9.03953 11.6093L8.96003 11.5487M9.03925 11.6097C9.03916 11.6098 9.03906 11.61 9.03897 11.6101L8.96003 11.5487M9.03925 11.6097C9.10719 11.5221 9.12529 11.4045 9.1133 11.2993C9.10121 11.1932 9.05682 11.0822 8.97761 11.0026M8.96003 11.5487C9.05437 11.4274 9.02742 11.1938 8.90613 11.0725M8.97761 11.0026L8.97827 11.0033L8.90613 11.0725M8.97761 11.0026L8.87045 10.891L8.84094 10.8602H8.79832H5.96375H3.12918H3.08655L3.05704 10.891L2.95055 11.0019M8.97761 11.0026C8.97735 11.0023 8.9771 11.0021 8.97684 11.0018L8.90613 11.0725M8.90613 11.0725L2.95055 11.0019" fill="#1B7F6D" stroke="#1B7F6D" stroke-width="0.2"/>
<path d="M7.75173 14.4102C10.2898 14.4147 12.4326 14.4102 12.5135 14.3967C12.7246 14.3563 12.8369 14.2305 12.8369 14.0239C12.8369 13.9026 12.8054 13.8217 12.7336 13.7543L12.6303 13.6555H7.86404L7.75173 14.4102ZM12.8024 13.6817C12.8983 13.7719 12.9369 13.8815 12.9369 14.0239C12.9369 14.1458 12.9034 14.2541 12.8296 14.3384C12.7566 14.4221 12.653 14.4718 12.5323 14.4949L12.5323 14.4949L12.5299 14.4953C12.517 14.4975 12.4964 14.4984 12.4783 14.4991C12.4566 14.4999 12.4276 14.5006 12.3917 14.5013C12.3199 14.5027 12.2192 14.504 12.0931 14.5051C11.8409 14.5074 11.4859 14.5091 11.0543 14.5102C10.1911 14.5124 9.02068 14.5124 7.75156 14.5102L7.75144 14.5102L3.14245 14.4967L3.10352 14.4966L3.07492 14.4702L2.95812 14.3624L2.95812 14.3624L2.95755 14.3618C2.77179 14.1877 2.76636 13.9131 2.92449 13.711L3.01407 13.5945L3.04409 13.5555H3.09333H7.86404H12.6303H12.6704L12.6994 13.5832L12.802 13.6814C12.8021 13.6815 12.8022 13.6816 12.8024 13.6817Z" fill="#1B7F6D" stroke="#1B7F6D" stroke-width="0.2"/>
<path d="M4.92475 16.2493L4.924 16.2495C4.44938 16.3706 4.07282 16.7488 3.97925 17.2114C3.92859 17.4576 3.94154 17.756 4.00235 18.0485C4.06329 18.3416 4.17388 18.6363 4.32517 18.8751L4.92475 16.2493ZM4.92475 16.2493C5.1311 16.1984 5.37735 16.2276 5.59826 16.3048C5.81917 16.382 6.03001 16.5125 6.15988 16.6806L6.16022 16.681C6.2595 16.811 6.3273 16.9298 6.36881 17.0726C6.40978 17.2135 6.42333 17.3717 6.42333 17.5772C6.42333 17.8384 6.37296 18.126 6.29121 18.3845C6.2102 18.6408 6.09538 18.878 5.95978 19.034C5.97167 19.0403 5.9878 19.0479 6.00943 19.057C6.05552 19.0762 6.11817 19.0985 6.20191 19.1264C6.61134 19.26 7.10358 19.3056 8.38075 19.3056H9.56219H9.60482L9.63433 19.3363L9.74099 19.4474C9.9331 19.6352 9.9325 19.9247 9.73412 20.1117L9.73412 20.1117L9.73334 20.1124L9.61655 20.2203L9.58769 20.2469L9.54841 20.2468L8.06153 20.2423C8.06152 20.2423 8.06151 20.2423 8.0615 20.2423C7.23093 20.24 6.76934 20.2346 6.42757 20.1874C6.0791 20.1393 5.85491 20.0478 5.49971 19.8827C5.49965 19.8826 5.49959 19.8826 5.49952 19.8826L5.20084 19.745L4.91061 19.8823L4.91063 19.8823L4.90806 19.8835C4.72324 19.9646 4.45165 20.0709 4.29914 20.109L4.27489 20.012M4.92475 16.2493L3.51571 19.3651C3.1743 19.4011 3.09794 19.428 3.01258 19.5224M3.01258 19.5224C2.81942 19.7335 2.91376 20.039 3.19676 20.1423M3.01258 19.5224L2.93843 19.4553C2.99134 19.3968 3.04636 19.3556 3.13784 19.3266C3.22122 19.3 3.33519 19.2836 3.50434 19.2658C3.68055 19.244 3.90917 19.1968 4.10461 19.1454C4.20236 19.1198 4.29012 19.0935 4.35772 19.0694C4.38185 19.0608 4.40274 19.0528 4.4202 19.0453C4.39948 19.0005 4.36599 18.9395 4.32518 18.8751L3.19676 20.1423M3.01258 19.5224L2.9388 19.4549C2.8188 19.586 2.78523 19.7517 2.83035 19.9016C2.87508 20.0502 2.99418 20.1748 3.16247 20.2362L3.16391 20.2367L3.16391 20.2367C3.19171 20.2464 3.22546 20.2494 3.25413 20.2506C3.28575 20.2519 3.32313 20.2515 3.364 20.2496C3.44592 20.246 3.54731 20.2367 3.65522 20.2236C3.87063 20.1974 4.11892 20.1552 4.29973 20.1089L4.27489 20.012M3.19676 20.1423C3.30008 20.1782 3.9245 20.1019 4.27489 20.012M3.19676 20.1423L4.27489 20.012M5.39823 17.2965L5.39805 17.2964C5.33076 17.2352 5.28027 17.2086 5.23676 17.1996C5.19483 17.1909 5.14646 17.196 5.0775 17.2246C5.00865 17.2543 4.96299 17.3022 4.93606 17.373C4.90768 17.4477 4.89855 17.5527 4.91755 17.6942C4.95619 17.9818 5.03675 18.1958 5.16163 18.3834C5.17592 18.4039 5.18766 18.4206 5.19758 18.4342C5.25608 18.3644 5.31296 18.2538 5.35869 18.1172C5.40703 17.9727 5.44017 17.8072 5.45086 17.6474C5.46008 17.4883 5.46076 17.4165 5.45209 17.3736C5.44858 17.3562 5.44398 17.3467 5.43844 17.3386C5.43159 17.3286 5.42071 17.3169 5.39823 17.2965Z" fill="#1B7F6D" stroke="#1B7F6D" stroke-width="0.2"/>
<path d="M4.85249 22.4112L4.85247 22.4112L4.8509 22.4096C4.66064 22.2194 4.6785 21.9005 4.88325 21.7286L5.00342 21.6218L5.03183 21.5965H5.06985L7.88646 21.5965L7.88661 21.5965C8.00604 21.5967 8.12058 21.5969 8.23045 21.597C9.48571 21.5988 10.1301 21.5996 10.4713 21.6232C10.6533 21.6357 10.7677 21.6553 10.844 21.6962C10.9228 21.7385 10.9544 21.801 10.9775 21.847C10.9799 21.8518 10.9823 21.8564 10.9845 21.8608C11.0341 21.9523 11.0582 22.0461 11.0407 22.1433C11.0234 22.2393 10.9681 22.3231 10.8906 22.4006L10.8906 22.4007L10.8894 22.4018L10.7546 22.5321L10.7254 22.5603L10.6848 22.5602L7.85469 22.5512L7.85453 22.5512L5.02446 22.5377L4.98461 22.5376L4.95581 22.51L4.85249 22.4112Z" fill="#1B7F6D" stroke="#1B7F6D" stroke-width="0.2"/>
</svg>
