<svg width="23" height="24" viewBox="0 0 23 24" fill="none" xmlns="http://www.w3.org/2000/svg">
<path d="M20.1919 2.34092C19.5955 1.79061 17.1853 0.0409966 11.8169 0.0172266C11.8169 0.0172266 5.48622 -0.364533 2.40009 2.46625C0.682169 4.18453 0.0778361 6.69874 0.0140895 9.81584C-0.0496572 12.9329 -0.132132 18.7746 5.49882 20.3585H5.50422L5.50062 22.7755C5.50062 22.7755 5.46461 23.754 6.10892 23.9536C6.88828 24.1956 7.34567 23.4519 8.08974 22.6502C8.49815 22.2101 9.06215 21.5636 9.48713 21.0695C13.3382 21.3936 16.3001 20.6528 16.6365 20.5433C17.414 20.2912 21.814 19.7275 22.5296 13.8863C23.2683 7.86563 22.1723 4.0574 20.1919 2.34092Z" fill="white"/>
<path d="M18.9399 3.55711C18.4357 3.099 16.2593 1.73151 11.7182 1.7117C11.7182 1.7117 6.34075 1.35839 3.73038 3.72278C2.27753 5.15726 1.78809 7.29043 1.73443 9.8936C1.68076 12.4968 1.40273 17.4697 6.16427 18.7926C6.16427 18.7926 6.14555 22.4845 6.14339 22.809C6.14339 23.0358 6.1794 23.1911 6.30905 23.2231C6.40233 23.2458 6.54207 23.1976 6.66092 23.0791C7.42228 22.3145 9.85978 19.3738 9.85978 19.3738C13.1303 19.5874 15.7324 18.9417 16.0122 18.8502C16.672 18.6381 20.2407 18.3316 20.8447 13.453C21.4689 8.42418 20.6153 4.99159 18.9399 3.55711Z" fill="#7360F2"/>
<path d="M14.0273 9.67968C13.9683 8.48902 13.3635 7.86368 12.2129 7.80365" stroke="white" stroke-linecap="round" stroke-linejoin="round"/>
<path d="M15.5847 10.2019C15.6087 9.09262 15.2801 8.16583 14.5989 7.42152C13.9147 6.67457 12.9675 6.26327 11.752 6.17432" stroke="white" stroke-linecap="round" stroke-linejoin="round"/>
<path d="M17.1795 10.8256C17.1648 8.90076 16.5896 7.38477 15.454 6.27766C14.3183 5.17056 12.9059 4.61113 11.2168 4.59937" stroke="white" stroke-linecap="round" stroke-linejoin="round"/>
<path d="M12.2728 13.7461C12.2728 13.7461 12.6996 13.7821 12.9293 13.4991L13.3774 12.9354C13.5935 12.6559 14.115 12.4777 14.6256 12.7622C15.0083 12.9804 15.3799 13.2177 15.7389 13.4731C16.0778 13.7223 16.7718 14.3015 16.7739 14.3015C17.1046 14.5806 17.1809 14.9904 16.9558 15.4226C16.9558 15.4251 16.954 15.4295 16.954 15.4316C16.7061 15.8614 16.3914 16.249 16.0216 16.5798C16.0173 16.5819 16.0173 16.5841 16.0133 16.5863C15.6921 16.8547 15.3764 17.0073 15.0665 17.044C15.0208 17.052 14.9745 17.0549 14.9282 17.0527C14.7915 17.054 14.6555 17.033 14.5255 16.9907L14.5154 16.9759C14.0379 16.8412 13.2405 16.5041 11.9126 15.7716C11.1442 15.3527 10.4126 14.8694 9.72579 14.327C9.38152 14.0553 9.05312 13.7641 8.74222 13.4548L8.70908 13.4216L8.67595 13.3885L8.64281 13.3554C8.63165 13.3445 8.62085 13.3334 8.60968 13.3222C8.30034 13.0113 8.0091 12.6829 7.73739 12.3386C7.19508 11.6519 6.71183 10.9204 6.29283 10.1522C5.56028 8.82395 5.22318 8.0273 5.08848 7.54902L5.07372 7.53893C5.03149 7.40894 5.01069 7.27295 5.01213 7.13628C5.00961 7.09002 5.01239 7.04362 5.02041 6.99799C5.05907 6.6885 5.21189 6.37265 5.47889 6.05043C5.48105 6.04647 5.48321 6.04647 5.48537 6.04215C5.8161 5.67239 6.20369 5.35775 6.63353 5.11008C6.63569 5.11008 6.64001 5.10792 6.64254 5.10792C7.07472 4.88283 7.48457 4.95918 7.76333 5.288C7.76549 5.29016 8.34353 5.98416 8.59167 6.32307C8.8471 6.6824 9.08438 7.0543 9.30261 7.43737C9.58713 7.9477 9.40886 8.47028 9.12938 8.68565L8.56574 9.13368C8.28122 9.36345 8.31868 9.79023 8.31868 9.79023C8.31868 9.79023 9.15351 12.9498 12.2728 13.7461Z" fill="white"/>
</svg>
